<svg id="Layer_1" data-name="Layer 1" xmlns="http://www.w3.org/2000/svg" xmlns:xlink="http://www.w3.org/1999/xlink" viewBox="0 0 1599 901.12"><defs><style>.cls-1{fill:url(#linear-gradient);}.cls-2{fill:#9b6b1e;}.cls-3{fill:#876217;}.cls-4{fill:#2e9330;}.cls-23,.cls-5{fill:none;stroke-miterlimit:10;}.cls-5{stroke:#111110;stroke-width:0.25px;}.cls-6{fill:#e21313;}.cls-7{fill:#ba7e1e;}.cls-8{fill:#050505;}.cls-9{fill:#020202;}.cls-10{fill:#fff;}.cls-11{fill:#0a0a09;}.cls-12{fill:#318e24;}.cls-13{fill:#366d16;}.cls-14{fill:#f2f2f2;}.cls-15{fill:#5b3e0c;}.cls-16{fill:#684513;}.cls-17{fill:#1c511c;}.cls-18{fill:#277227;}.cls-19{fill:#991313;}.cls-20{fill:#6b4b1d;}.cls-21{fill:#76797c;}.cls-22{fill:#a1a8b2;}.cls-23{stroke:#0a0a09;stroke-width:2px;}.cls-24{fill:#0f0f0f;}.cls-25{fill:#0c0c0c;}</style><linearGradient id="linear-gradient" x1="809.85" y1="37.72" x2="789.12" y2="864.41" gradientUnits="userSpaceOnUse"><stop offset="0.01" stop-color="#00241f"/><stop offset="0.21" stop-color="#30649f"/></linearGradient></defs><title>Game over </title><rect class="cls-1" y="-0.06" width="1599" height="901"/><rect class="cls-2" x="931.01" y="697.97" width="83" height="7" rx="3.5" transform="translate(2158.88 875.75) rotate(152.55)"/><path class="cls-2" d="M1003.33,682.52l-4.5-74.09a4.38,4.38,0,0,1,4.11-4.64h0a4.39,4.39,0,0,1,4.64,4.1l4.5,74.1c-2.41-5.1-1.7,4.5-4.11,4.64h0A4.4,4.4,0,0,1,1003.33,682.52Z"/><path class="cls-2" d="M1000.65,611.39h0a1,1,0,0,1-1.4.2l-14.42-10.77a1,1,0,0,1-.21-1.4h0c.33-.44.64,1.76,1.4-.2L1000.44,610C1000.88,610.32,995.65,607.59,1000.65,611.39Z"/><path class="cls-2" d="M1000.54,608.77h0c-3.3-8.29-1.09.13-1.37-.34l-9.39-15.35a1,1,0,0,1,.33-1.38h0c.47-.29.62.14,1.38.33l9.38,15.36A1,1,0,0,1,1000.54,608.77Z"/><path class="cls-2" d="M1000.74,606.92h0a1,1,0,0,1-1.06-.94l-1.09-18a1,1,0,0,1,.94-1.06h0c1.07,2.32,1,.39,1.06.94l1.09,18A1,1,0,0,1,1000.74,606.92Z"/><path class="cls-2" d="M1001.26,606.52h0c-.44-.33-.68-.22-.2-1.4l10.77-14.42c0,1.93,1-.53,1.4-.2h0a1,1,0,0,1,.2,1.4l-10.77,14.41A1,1,0,0,1,1001.26,606.52Z"/><path class="cls-2" d="M1018.75,600.32h0a1,1,0,0,1-.51,1.32l-16.46,7.3c-.5.22,12.43-9.44-1.32-.51h0a1,1,0,0,1,.51-1.32l16.46-7.3C1018.32,601.27,1018.52,599.82,1018.75,600.32Z"/><path class="cls-3" d="M680.45,711.41l67.9,34.14a3.52,3.52,0,0,1,1.56,4.7h0a3.51,3.51,0,0,1-4.7,1.55l-67.9-34.14c4.12-.77-2.42-3-1.56-4.7h0A3.51,3.51,0,0,1,680.45,711.41Z"/><path class="cls-3" d="M675.24,713.74l-4.39-75.87a3.52,3.52,0,0,1,3.3-3.7h0a3.51,3.51,0,0,1,3.69,3.29l4.38,75.88c3-.67-1.37,3.58-3.29,3.69h0C679.43,717,677.2,713.13,675.24,713.74Z"/><path class="cls-3" d="M673.71,641.67h0a1,1,0,0,1-1.4.2l-14.39-10.82a1,1,0,0,1-.19-1.4h0c.33-.44,1.71,1.36,1.4-.2l14.38,10.82A1,1,0,0,1,673.71,641.67Z"/><path class="cls-3" d="M673.61,639h0a1,1,0,0,1-1.37-.33l-9.34-15.39c1.07-.58-.14-1.09.33-1.37h0c.48-.29.8,1.79,1.38.33L674,637.67C667.43,630.55,674.08,638.76,673.61,639Z"/><path class="cls-3" d="M673.82,637.2h0a1,1,0,0,1-1.06-1l-1-18a1,1,0,0,1,.94-1h0c.55,0,1.05.94,1.05.94l1,18C673.42,630.21,674.37,637.16,673.82,637.2Z"/><path class="cls-3" d="M674.34,636.8h0a1,1,0,0,1-.2-1.4L685,621c-2.08-.36,1-.53,1.4-.2h0a1,1,0,0,1,.19,1.4L675.74,636.6A1,1,0,0,1,674.34,636.8Z"/><path class="cls-3" d="M691.84,630.65h0a1,1,0,0,1-.51,1.32l-16.48,7.25a1,1,0,0,1-1.31-.51h0a1,1,0,0,1,.51-1.32l16.48-7.25C691.5,631.17,691.62,630.15,691.84,630.65Z"/><rect class="cls-4" x="815.92" y="637.31" width="9" height="2.48" rx="1.24" transform="translate(-216.71 566.45) rotate(-33.92)"/><path class="cls-4" d="M852,616.89c2.82-1.75-3.42,9.7-10.19,16.66s-16.4,7-18.71,3.54,1.38-12.36,10.34-16S846,620.56,852,616.89Z"/><line class="cls-5" x1="822.77" y1="636.68" x2="851.68" y2="617.84"/><polyline class="cls-5" points="839.27 634.98 827.33 633.85 828.9 623.6"/><polyline class="cls-5" points="844.1 630.77 833.14 629.95 833.87 620.9"/><polyline class="cls-5" points="846.53 627.22 838.95 626.04 840.08 619.58"/><polyline class="cls-5" points="848.36 624.11 843.79 623 845.07 619.29"/><path class="cls-6" d="M926.86,672.21c-18.58-20.09-47.38-26.62-73.26-17.72a64.37,64.37,0,0,1-17.32,3.37,65.25,65.25,0,0,1-17-1.23c-25.79-5.42-52.69,3.67-68.5,24.75-13.54,18.07-21.05,43.58-9.55,64.11,20.1,35.9,32.39,75.26,61.91,89.12,12.08,5.67,26.54,3.68,38.69-1.82a14.32,14.32,0,0,1,5-1.25,13.92,13.92,0,0,1,4.91.59c12.17,3.67,26.94,6.63,36.87-1.29C924.74,802,927.77,767.77,940.73,732,948.58,710.26,941.88,688.46,926.86,672.21Z"/><path class="cls-7" d="M834.34,666h0a3.51,3.51,0,0,1-4.93-.45l-40.93-49.2c4.51,2.9-1-3.7.46-4.93h0c11.26,11.42,6.75,2.67,4.92.45l40.93,49.2C836.45,660.86,835.82,664.81,834.34,666Z"/><path class="cls-8" d="M832.91,669.41c-8.26.48-15.24-1.48-16.48-4.46-.19-.43.62-.87,1.64-.93l1.89-.11a1.92,1.92,0,0,1,1.72.54c1,1.81,5.61,3,11.1,2.65s10-2,10.72-3.91a1.93,1.93,0,0,1,1.65-.73l1.89-.11c1-.06,1.87.29,1.74.74C847.88,666.19,841.17,668.93,832.91,669.41Z"/><path class="cls-9" d="M817.33,728.57c.56,9.65-7.09,20.86-16.46,18.48-9.66-2.45-17.93-6.81-18.48-16.46s7.64-14.52,16.46-18.48C809.1,707.51,816.77,718.92,817.33,728.57Z"/><path class="cls-9" d="M900.19,723.79c.56,9.64-9.09,16.05-16.46,18.48-9.18,3-17.92-6.82-18.48-16.47s7.28-15.45,16.46-18.48C889.08,704.89,899.63,714.14,900.19,723.79Z"/><path class="cls-10" d="M816.9,725.67a17.49,17.49,0,0,0-8.53-11.36,7.5,7.5,0,0,0,8.53,11.36Z"/><circle class="cls-10" cx="790.63" cy="734.62" r="3"/><path class="cls-10" d="M899.76,720.88a17.5,17.5,0,0,0-8.52-11.36,7.49,7.49,0,0,0,8.52,11.36Z"/><circle class="cls-10" cx="872.73" cy="733.89" r="3"/><path class="cls-11" d="M844.48,760.56c23.12-1.75,42.75,7.54,43.74,20.71l-1.37.11c-1-12.61-19.93-21.49-42.29-19.8s-39.78,13.32-38.83,25.93l-1.37.11C803.36,774.45,821.36,762.31,844.48,760.56Z"/><path class="cls-11" d="M844.52,761.07c25-1.89,39.27,7.25,47.14,19.94h0c.11,1.41-1.35,2.66-3.25,2.8l-1.37.11c-1.9.14-11.49-1.12-3.63-2.28h0c-.85-11.21-18.19-19.07-38.66-17.52S808.32,776,809.17,787.25h0c11.53-.28-1.35,2.66-3.25,2.8l-1.37.11c-1.9.14-3.52-.88-3.63-2.28h0C806.79,774.14,819.5,763,844.52,761.07Z"/><rect class="cls-11" x="791.19" y="707.54" width="35" height="3" rx="1.5" transform="translate(404.71 -287.71) rotate(26.69)"/><rect class="cls-11" x="858.19" y="705.67" width="35" height="3" rx="1.5" transform="translate(-235.22 526.08) rotate(-29.66)"/><rect class="cls-12" x="422" y="448.95" width="819.74" height="164.87" rx="49" transform="translate(-38.05 64.89) rotate(-4.37)"/><path class="cls-13" d="M1147.09,568.14l-650.6,17.73c-32.11,0-58.38-24.56-58.38-66.84h0c0-36.76,46.53-40.92,78.64-40.92l650.6-25.92c46.47,0,58.39,30.08,58.39,66.84h0C1225.74,555.79,1179.21,568.14,1147.09,568.14Z"/><path class="cls-14" d="M575,513.43a17.62,17.62,0,0,0-5.61-2.23,29.92,29.92,0,0,0-6.62-.77,21.85,21.85,0,0,0-6.61.95A16.74,16.74,0,0,0,551,514a12.18,12.18,0,0,0-3.43,4,10.77,10.77,0,0,0-1.25,5.09,10,10,0,0,0,1.37,5.08,12.78,12.78,0,0,0,3.75,4,19,19,0,0,0,5.55,2.63,23.43,23.43,0,0,0,6.8,1,21.75,21.75,0,0,0,7.74-1.31,18.63,18.63,0,0,0,6-3.59H570V518.24h32.07v20.17a36.7,36.7,0,0,1-6.86,6.77,44,44,0,0,1-8.93,5.22,52.72,52.72,0,0,1-10.66,3.36,58.54,58.54,0,0,1-11.86,1.18,57.64,57.64,0,0,1-17-2.45,47.59,47.59,0,0,1-13.91-6.72,33,33,0,0,1-9.36-10.09,24.19,24.19,0,0,1-3.44-12.53,24.93,24.93,0,0,1,3.25-12.36,32.68,32.68,0,0,1,8.92-10.13,44.81,44.81,0,0,1,13.48-6.81,54.56,54.56,0,0,1,16.78-2.5,63.74,63.74,0,0,1,12.11,1,58.48,58.48,0,0,1,8.61,2.27,34.81,34.81,0,0,1,6.86,3.18Zm1.25-11.72a24.82,24.82,0,0,0-3.62-.91c-1.17-.24-2.54-.46-4.12-.64a46.58,46.58,0,0,0-5.24-.27,42.67,42.67,0,0,0-12.35,1.73,33.54,33.54,0,0,0-10,4.77,23,23,0,0,0-6.67,7.31,18.77,18.77,0,0,0-2.44,9.45,18.28,18.28,0,0,0,2.5,9.44,23,23,0,0,0,6.86,7.32,35.24,35.24,0,0,0,10.17,4.77,43.4,43.4,0,0,0,12.42,1.72,39.69,39.69,0,0,0,15.6-2.95,31.24,31.24,0,0,0,11.36-7.86v-11.9H577.47v2.18h10V535a27.18,27.18,0,0,1-10,6.63A36.87,36.87,0,0,1,563.74,544a40,40,0,0,1-11.17-1.5,30.26,30.26,0,0,1-9.11-4.27,20.78,20.78,0,0,1-6.17-6.63,16.56,16.56,0,0,1-2.25-8.49,17,17,0,0,1,2.18-8.5,21,21,0,0,1,6-6.63,28.72,28.72,0,0,1,8.92-4.27,39.37,39.37,0,0,1,11.11-1.5,31.61,31.61,0,0,1,4.24.27c1.33.19,2.5.37,3.5.55,1.16.24,2.24.49,3.24.73Z"/><path class="cls-14" d="M633.62,492.8h20l31.57,60.6H659L656.21,548H631l-2.75,5.45h-26.2Zm-13,53.33,2.37-4.54h41.18l2.38,4.54h3.49L646,500.07h-4.74l-24.08,46.06Zm23-43.88,19.47,37.16H624.14Zm5.62,32.34L643.6,524,638,534.59Z"/><path class="cls-14" d="M687,492.8h22l21.72,23.26,21.58-23.26h22v60.6H747.68V531.59l-17,18.17-17.1-18.17V553.4H687Zm15.72,53.33v-41.7l28,29.62,27.82-29.62v41.7h3.25V500.07h-3.25L730.71,530l-28-29.89h-3.24v46.06Z"/><path class="cls-14" d="M783,492.8h49v15.9H809.57v6.72h22.09V530.5H809.57v7h23.34v15.9H783Zm40.68,53.33V544H798.72V524.06h23.71v-2.19H798.72V502.25h24.95v-2.18h-28.2v46.06Z"/><path class="cls-14" d="M863.48,523.15a23.92,23.92,0,0,1,3.43-12.36,33.87,33.87,0,0,1,9.36-10.13,47.85,47.85,0,0,1,13.91-6.81,58.88,58.88,0,0,1,34,0A47.85,47.85,0,0,1,938,500.66a33.87,33.87,0,0,1,9.36,10.13,24,24,0,0,1,0,24.71A33.75,33.75,0,0,1,938,545.63a47.35,47.35,0,0,1-13.91,6.81,58.88,58.88,0,0,1-34,0,47.35,47.35,0,0,1-13.91-6.81,33.75,33.75,0,0,1-9.36-10.13A23.86,23.86,0,0,1,863.48,523.15Zm11.73,0a17.43,17.43,0,0,0,2.5,9,24.74,24.74,0,0,0,6.86,7.4,34.72,34.72,0,0,0,10.17,5,43.48,43.48,0,0,0,24.83,0,34.72,34.72,0,0,0,10.17-5,24.9,24.9,0,0,0,6.87-7.4,17.65,17.65,0,0,0,0-18.08,24.82,24.82,0,0,0-6.87-7.41,34.7,34.7,0,0,0-10.17-5,43.25,43.25,0,0,0-24.83,0,34.7,34.7,0,0,0-10.17,5,24.65,24.65,0,0,0-6.86,7.41A17.41,17.41,0,0,0,875.21,523.15ZM907.16,544A36.56,36.56,0,0,1,896,542.4a31.25,31.25,0,0,1-9.11-4.49,22.51,22.51,0,0,1-6.18-6.63,15.87,15.87,0,0,1,0-16.26,22.42,22.42,0,0,1,6.18-6.64,31.5,31.5,0,0,1,9.11-4.49,38.86,38.86,0,0,1,22.34,0,31.56,31.56,0,0,1,9.1,4.49,22.29,22.29,0,0,1,6.18,6.64,15.81,15.81,0,0,1,0,16.26,22.38,22.38,0,0,1-6.18,6.63,31.31,31.31,0,0,1-9.1,4.49A36.66,36.66,0,0,1,907.16,544Zm-17.47-20.89a9.53,9.53,0,0,0,1.37,5,13.49,13.49,0,0,0,3.74,4,19.1,19.1,0,0,0,5.56,2.73,23.85,23.85,0,0,0,13.6,0,19.16,19.16,0,0,0,5.55-2.73,13.49,13.49,0,0,0,3.74-4,9.57,9.57,0,0,0,0-9.9,13.4,13.4,0,0,0-3.74-4.05,18.9,18.9,0,0,0-5.55-2.72,23.62,23.62,0,0,0-13.6,0,18.84,18.84,0,0,0-5.56,2.72,13.4,13.4,0,0,0-3.74,4.05A9.48,9.48,0,0,0,889.69,523.15Z"/><path class="cls-14" d="M979.91,492.8,994,519.15l14.22-26.35h29.08l-32.44,60.6H983.28l-32.45-60.6Zm15.47,53.33,24.71-46.06h-3.49L994,542l-22.46-41.88h-3.5l24.71,46.06Z"/><path class="cls-14" d="M1039.18,492.8h49v15.9h-22.46v6.72h22.09V530.5h-22.09v7h23.34v15.9h-49.92Zm40.68,53.33V544h-24.95V524.06h23.71v-2.19h-23.71V502.25h24.95v-2.18h-28.2v46.06Z"/><path class="cls-14" d="M1096.58,492.8h28.71a66.64,66.64,0,0,1,14.78,1.55,39.94,39.94,0,0,1,11.8,4.54,23.35,23.35,0,0,1,7.8,7.41,18.41,18.41,0,0,1,2.8,10.12,15.84,15.84,0,0,1-1.74,7.72,22.62,22.62,0,0,1-3.87,5.27,25,25,0,0,1-5.62,4l15.6,20h-31.2l-12.48-15.35V553.4h-26.58Zm26,39.52a60.07,60.07,0,0,0,9.48-.73l11.86,14.54h3.87l-12.48-15.26a25,25,0,0,0,10.73-5.32,11.93,11.93,0,0,0,4-9.31,11.76,11.76,0,0,0-2.12-7,17.09,17.09,0,0,0-5.8-5,30.38,30.38,0,0,0-8.67-3.09,52.8,52.8,0,0,0-10.86-1.05h-13.48v46.06h3.25V532.32Zm-10.23-2.18V502.25h10.23q11.36,0,17.78,3.64t6.43,10.35q0,6.72-6.43,10.31t-17.78,3.59Zm10.85-7.54h1.38a19,19,0,0,0,8-1.54,5.72,5.72,0,0,0,0-10.36,19,19,0,0,0-8-1.54h-1.38Z"/><path class="cls-15" d="M495.1,451.81l21.55,23.62c2.45-.59.5,1.54-.1,2.08h0c-.59.55-2.14-3.05-2.08-.09l-21.54-23.63c3.91.82-.51-1.53.09-2.08l1,.21C494.64,451.37,494.56,451.21,495.1,451.81Z"/><path class="cls-15" d="M503.19,425l-16.07,29.42a1.52,1.52,0,0,1-2,.64h0c-.71-.38-.62-1.12-.21-1.86l15.74-29.61c.23,1.8,1.32-1,2-.65h0A1.51,1.51,0,0,1,503.19,425Z"/><path class="cls-15" d="M523.5,420l22.17,25.14c-4,5.57.52,1.6-.09,2.14h0a1.51,1.51,0,0,1-2.12-.19L521.29,421.9c1.78.39-.52-1.6.09-2.13h0A1.5,1.5,0,0,1,523.5,420Z"/><path class="cls-15" d="M546.32,446.67l-10.78,30.11a1.48,1.48,0,0,1-1.88.89h0c-.76-.28-3-1.41-.89-1.89l10.78-30.1c.53,1.68,1.12-1.16,1.88-.89h0C546.2,445.06,542.85,453.93,546.32,446.67Z"/><path class="cls-16" d="M562.89,398.69,546.46,373a1.48,1.48,0,0,1,.51-2h0a1.48,1.48,0,0,1,2,.52L565.33,399a1.47,1.47,0,0,1-.51,2h0C564.12,401.45,563.3,399.39,562.89,398.69Z"/><path class="cls-16" d="M566.77,400,570,431.09a1.84,1.84,0,0,1-1.64,2h0c-1,.11-1.38-3.76-1.49-4.77l-2.66-25.88c-.39-2.15,0-1.16.35-1.6s-.55-2.41.17-2.48h0C565.76,398.27,565.34,402.7,566.77,400Z"/><path class="cls-16" d="M569.3,429.86h0a.43.43,0,0,1,.59-.11l6.26,4.27a.42.42,0,0,1,.11.58h0c-.13.19-.3-.72-.59.11l-6.26-4.26C569.22,430.32,571.47,431.37,569.3,429.86Z"/><path class="cls-16" d="M569.39,431h0c1.54,3.43.46-.07.59.12l4.22,6.28a.43.43,0,0,1-.11.59h0c-.19.13-.26-.05-.58-.12l-4.23-6.28A.43.43,0,0,1,569.39,431Z"/><path class="cls-16" d="M569.34,431.75h0a.43.43,0,0,1,.47.37l.78,7.53a.43.43,0,0,1-.37.47h0c-.49-1-.44-.15-.46-.38l-.79-7.53A.41.41,0,0,1,569.34,431.75Z"/><path class="cls-16" d="M569.13,431.92h0c.2.13.29.08.11.59L565,438.77c0-.82-.39.24-.59.11h0a.43.43,0,0,1-.11-.59l4.27-6.26A.42.42,0,0,1,569.13,431.92Z"/><path class="cls-16" d="M561.9,434.85h0a.42.42,0,0,1,.19-.57l6.78-3.36c.21-.11-5,4.19.56.19h0a.41.41,0,0,1-.19.56L562.46,435C562.06,434.44,562,435.05,561.9,434.85Z"/><path class="cls-15" d="M451.62,405.53l10.58-30.17a1.48,1.48,0,0,1,1.88-.91h0a1.48,1.48,0,0,1,.9,1.88L454.4,406.51c-.55-1.68-1.12,1.17-1.88.9h0A1.48,1.48,0,0,1,451.62,405.53Z"/><path class="cls-15" d="M454.65,406l3.9,31.74a1.48,1.48,0,0,1-1.28,1.64h0a1.48,1.48,0,0,1-1.64-1.28l-3.9-31.74c4,12.89.48-1.54,1.28-1.64h0C452.8,404.79,453.84,406.35,454.65,406Z"/><path class="cls-15" d="M457.67,436.22h0a.42.42,0,0,1,.58-.12l6.34,4.15a.43.43,0,0,1,.12.58h0c-.13.2-.76-.52-.59.13l-6.33-4.16A.42.42,0,0,1,457.67,436.22Z"/><path class="cls-15" d="M457.78,437.32h0a.43.43,0,0,1,.59.11l4.34,6.2c-.44.28.08.46-.11.59h0c-.19.13-.38-.73-.58-.11l-4.34-6.2C460.61,440.72,457.59,437.45,457.78,437.32Z"/><path class="cls-15" d="M457.74,438.1h0a.43.43,0,0,1,.47.37l.93,7.52a.43.43,0,0,1-.37.47h0c-.23,0-.47-.37-.47-.37l-.92-7.52C458.1,441,457.51,438.13,457.74,438.1Z"/><path class="cls-15" d="M457.54,438.28h0a.43.43,0,0,1,.12.59l-4.15,6.33c.88.1-.39.25-.59.12h0a.43.43,0,0,1-.12-.58l4.15-6.33A.43.43,0,0,1,457.54,438.28Z"/><path class="cls-15" d="M450.35,441.34h0a.44.44,0,0,1,.18-.57l6.72-3.49a.42.42,0,0,1,.57.18h0a.42.42,0,0,1-.18.57l-6.72,3.49C450.48,441.11,450.46,441.54,450.35,441.34Z"/><rect class="cls-17" x="493.38" y="341.28" width="3.79" height="1.05" rx="0.52" transform="matrix(0.81, -0.59, 0.59, 0.81, -106.27, 358.2)"/><path class="cls-18" d="M508.24,332.45c.09,1.4-1.35,3.86-4.08,6.9s-6.77,3.2-7.8,1.8.37-5.22,4.08-6.9S508.13,330.72,508.24,332.45Z"/><line class="cls-5" x1="496.23" y1="340.98" x2="508.07" y2="332.58"/><polyline class="cls-5" points="503.14 339.99 498.1 339.71 498.59 335.38"/><polyline class="cls-5" points="505.1 338.14 500.48 337.98 500.64 334.16"/><polyline class="cls-5" points="506.55 336.56 502.86 336.24 503.48 332.9"/><polyline class="cls-5" points="507.66 335.23 504.84 334.88 505.38 332.19"/><path class="cls-19" d="M540.58,354.19A29,29,0,0,0,509.49,348a27.74,27.74,0,0,1-14.42,1.46A28.51,28.51,0,0,0,466.68,361c-5.39,7.82-8.12,18.67-2.95,27.11,9,14.76,14.86,31.1,27.51,36.44,5.17,2.18,11.21,1.11,16.23-1.41a6,6,0,0,1,4.17-.44c5.18,1.34,11.44,2.35,15.48-1.15,14.72-12.72,15.43-27.17,20.28-42.44C550.34,369.83,547.17,360.78,540.58,354.19Z"/><path class="cls-20" d="M501.58,353.13h0a1.48,1.48,0,0,1-2.08-.11l-18-20c5.62,4.18-.49-1.53.11-2.08h0c.6-.54,3.37,6,2.08.11l18,20C499.29,349.53,502.18,352.59,501.58,353.13Z"/><path class="cls-8" d="M501,354.57c-3.47.34-6.43-.37-7-1.6-.08-.18.25-.38.68-.42l.79-.08a.82.82,0,0,1,.73.2c.44.75,2.41,1.16,4.71.93s4.16-1,4.45-1.82c.05-.16.32-.3.68-.33l.79-.08c.43,0,.79.09.74.28C507.28,353,504.5,354.23,501,354.57Z"/><path class="cls-9" d="M495.46,379.7c.4,4.05-2.63,8.89-6.61,8s-7.65-2.56-8-6.61,3-6.23,6.61-8C491.66,371,495.07,375.66,495.46,379.7Z"/><path class="cls-9" d="M530.22,376.32c.4,4.05-3.55,6.9-6.61,8-3.81,1.42-7.65-2.57-8-6.61s2.8-6.62,6.61-8.05C525.24,368.56,529.83,372.27,530.22,376.32Z"/><path class="cls-10" d="M495.24,378.49a7.4,7.4,0,0,0-3.78-4.64,3.16,3.16,0,0,0,3.78,4.64Z"/><circle class="cls-10" cx="484.34" cy="382.69" r="1.26"/><path class="cls-10" d="M530,375.11a7.36,7.36,0,0,0-3.77-4.64,3.16,3.16,0,0,0,3.77,4.64Z"/><circle class="cls-10" cx="518.84" cy="381.02" r="1.26"/><rect class="cls-11" x="484.15" y="371" width="14.73" height="1.26" rx="0.63" transform="translate(197.8 -170.05) rotate(24.44)"/><rect class="cls-11" x="512.29" y="369.11" width="14.73" height="1.26" rx="0.63" transform="translate(-116.92 330.65) rotate(-31.92)"/><path class="cls-11" d="M509.84,391.62c9.69-1.12,18.1,2.46,18.73,8l-.57.07c-.61-5.29-8.73-8.71-18.11-7.62s-16.5,6.26-15.89,11.54l-.58.07C492.78,398.14,500.15,392.74,509.84,391.62Z"/><path class="cls-11" d="M509.87,391.83c10.48-1.21,16.62,2.4,20.15,7.61h0c.06.59-.53,1.14-1.32,1.23l-.58.07c-.79.09-4.85-.28-1.56-.9h0c-.54-4.7-8-7.72-16.55-6.73s-15.12,5.62-14.57,10.32h0c4.84-.31-.53,1.14-1.32,1.23l-.58.06a1.3,1.3,0,0,1-1.56-.89h0C494.22,398,499.38,393,509.87,391.83Z"/><path class="cls-15" d="M671.52,435.3,699,466c3.17-.72.63,2-.15,2.68h0c-.78.7-2.72-4-2.68-.15l-27.43-30.72c5,1.1-.63-2,.15-2.68l1.31.29C670.93,434.74,670.82,434.53,671.52,435.3Z"/><path class="cls-15" d="M682.29,400.94l-21.1,37.67a2,2,0,0,1-2.62.81h0c-.91-.51-.79-1.46-.25-2.41L679,399.09c.28,2.33,1.72-1.32,2.63-.81h0A1.94,1.94,0,0,1,682.29,400.94Z"/><path class="cls-15" d="M708.52,394.66l28.21,32.68c-5.2,7.12.66,2.06-.13,2.74h0a2,2,0,0,1-2.74-.26l-28.21-32.69c2.28.54-.65-2.06.14-2.74h0A1.94,1.94,0,0,1,708.52,394.66Z"/><path class="cls-15" d="M737.56,429.38,723.27,468a1.91,1.91,0,0,1-2.44,1.12h0c-1-.36-3.86-1.86-1.12-2.44L734,428.06c.66,2.18,1.46-1.48,2.43-1.12h0C737.41,427.31,733,438.68,737.56,429.38Z"/><path class="cls-16" d="M759.53,367.81l-20.81-33.26a1.89,1.89,0,0,1,.69-2.59h0a1.9,1.9,0,0,1,2.59.69l20.68,35.62a1.91,1.91,0,0,1-.69,2.59h0C761.09,371.38,760.06,368.71,759.53,367.81Z"/><path class="cls-16" d="M764.52,369.57l3.76,40.05a2.38,2.38,0,0,1-2.14,2.59h0c-1.3.12-1.72-4.86-1.85-6.16l-3.08-33.37c-.47-2.77,0-1.5.47-2.06s-.68-3.1.25-3.19h0C763.23,367.31,762.64,373,764.52,369.57Z"/><path class="cls-16" d="M767.38,408h0a.54.54,0,0,1,.75-.14l8,5.58a.55.55,0,0,1,.14.76h0c-.17.24-.38-.94-.76.13l-8-5.58C767.27,408.62,770.15,410,767.38,408Z"/><path class="cls-16" d="M767.48,409.46h0c1.93,4.43.59-.09.75.16l5.36,8.15a.55.55,0,0,1-.16.75h0c-.25.16-.33-.07-.75-.16l-5.36-8.15A.55.55,0,0,1,767.48,409.46Z"/><path class="cls-16" d="M767.4,410.46h0a.55.55,0,0,1,.59.49l.92,9.72a.56.56,0,0,1-.49.59h0c-.62-1.24-.56-.2-.59-.49l-.92-9.71A.56.56,0,0,1,767.4,410.46Z"/><path class="cls-16" d="M767.13,410.69h0c.25.17.37.11.14.75l-5.58,8c0-1.05-.51.3-.76.13h0a.54.54,0,0,1-.13-.75l5.58-8A.54.54,0,0,1,767.13,410.69Z"/><path class="cls-16" d="M757.77,414.36h0a.54.54,0,0,1,.25-.72l8.78-4.25c.27-.13-6.56,5.33.73.25h0a.56.56,0,0,1-.25.73l-8.79,4.24C758,413.84,757.9,414.63,757.77,414.36Z"/><path class="cls-15" d="M616.13,375.12l14-38.72a1.91,1.91,0,0,1,2.43-1.14h0a1.91,1.91,0,0,1,1.14,2.43l-14,38.72c-.68-2.17-1.45,1.49-2.43,1.14h0A1.91,1.91,0,0,1,616.13,375.12Z"/><path class="cls-15" d="M620,375.82l4.6,40.93a1.91,1.91,0,0,1-1.67,2.1h0a1.91,1.91,0,0,1-2.1-1.68l-4.6-40.93c5,16.66.64-2,1.68-2.09h0C617.67,374.18,619,376.21,620,375.82Z"/><path class="cls-15" d="M623.51,414.73h0a.55.55,0,0,1,.76-.15l8.1,5.43a.55.55,0,0,1,.15.75h0c-.17.25-1-.68-.76.15l-8.1-5.43A.55.55,0,0,1,623.51,414.73Z"/><path class="cls-15" d="M623.64,416.15h0a.55.55,0,0,1,.76.14l5.5,8c-.56.35.11.59-.14.75h0c-.25.17-.48-.94-.75-.14l-5.51-8.05C627.24,420.56,623.4,416.32,623.64,416.15Z"/><path class="cls-15" d="M623.59,417.15h0a.54.54,0,0,1,.59.48l1.09,9.69a.53.53,0,0,1-.47.6h0c-.3,0-.6-.47-.6-.47l-1.09-9.7C624,420.92,623.29,417.19,623.59,417.15Z"/><path class="cls-15" d="M623.32,417.38h0a.56.56,0,0,1,.15.76l-5.44,8.1c1.14.13-.5.31-.75.15h0a.56.56,0,0,1-.15-.76l5.44-8.1A.54.54,0,0,1,623.32,417.38Z"/><path class="cls-15" d="M614,421.22h0a.56.56,0,0,1,.24-.73l8.71-4.4a.54.54,0,0,1,.73.24h0a.56.56,0,0,1-.24.73l-8.71,4.4C614.19,420.93,614.16,421.49,614,421.22Z"/><rect class="cls-17" x="670.78" y="292.96" width="4.88" height="1.35" rx="0.58" transform="translate(-45.17 446.45) rotate(-35.57)"/><path class="cls-18" d="M690.05,281.76c.09,1.8-1.8,4.95-5.35,8.83s-8.77,4-10.08,2.21.55-6.72,5.35-8.82S689.93,279.52,690.05,281.76Z"/><line class="cls-5" x1="674.46" y1="292.58" x2="689.83" y2="281.92"/><polyline class="cls-5" points="683.38 291.4 676.89 290.98 677.58 285.4"/><polyline class="cls-5" points="685.92 289.04 679.97 288.77 680.23 283.86"/><polyline class="cls-5" points="687.81 287.03 683.06 286.56 683.9 282.27"/><polyline class="cls-5" points="689.26 285.32 685.63 284.84 686.35 281.38"/><path class="cls-19" d="M731.4,310.2a37.34,37.34,0,0,0-40-8.45,35.8,35.8,0,0,1-18.58,1.69c-14.06-2.53-28.49,2.82-36.72,14.49-7.06,10-10.72,23.93-4.17,34.87,11.45,19.14,18.72,40.26,34.93,47.31,6.63,2.88,14.44,1.58,20.93-1.59a7.82,7.82,0,0,1,2.71-.76,7.68,7.68,0,0,1,2.67.24c6.65,1.8,14.7,3.18,19.95-1.27,19.13-16.19,20.24-34.78,26.69-54.38C743.77,330.47,739.8,318.76,731.4,310.2Z"/><path class="cls-20" d="M681.19,308.31h0a1.91,1.91,0,0,1-2.68-.17l-22.94-26c7.18,5.44-.62-2,.17-2.68h0c.78-.69,4.26,7.82,2.67.17l23,26C678.29,303.63,682,307.62,681.19,308.31Z"/><path class="cls-8" d="M680.47,310.15c-4.47.39-8.28-.56-9-2.15-.11-.24.32-.49.87-.53l1-.09c.46,0,.84.07.94.26.56,1,3.09,1.52,6.06,1.27s5.37-1.25,5.75-2.29c.07-.2.42-.38.88-.42l1-.09c.55-.05,1,.12,1,.37C688.53,308.17,684.93,309.76,680.47,310.15Z"/><path class="cls-9" d="M673,342.44c.46,5.22-3.51,11.41-8.63,10.27s-9.81-3.41-10.26-8.62,3.91-8,8.62-10.27C668.17,331.17,672.5,337.23,673,342.44Z"/><path class="cls-9" d="M717.76,338.55c.46,5.22-4.67,8.84-8.62,10.27-4.93,1.78-9.82-3.41-10.27-8.63s3.7-8.48,8.63-10.26C711.45,328.49,717.31,333.34,717.76,338.55Z"/><path class="cls-10" d="M672.67,340.88a9.43,9.43,0,0,0-4.79-6,4.06,4.06,0,0,0,4.79,6Z"/><circle class="cls-10" cx="658.59" cy="346.14" r="1.63"/><path class="cls-10" d="M717.49,337a9.47,9.47,0,0,0-4.8-6,4.06,4.06,0,0,0,4.8,6Z"/><circle class="cls-10" cx="703.05" cy="344.46" r="1.63"/><rect class="cls-11" x="658.48" y="331.19" width="18.97" height="1.63" rx="0.7" transform="translate(203.27 -251.49) rotate(25.04)"/><rect class="cls-11" x="694.75" y="329.12" width="18.97" height="1.63" rx="0.7" transform="translate(-68.88 414.17) rotate(-31.32)"/><path class="cls-11" d="M691.31,358c12.5-1.31,23.27,3.41,24,10.53l-.75.08c-.71-6.82-11.13-11.33-23.21-10.06s-21.34,7.84-20.63,14.65l-.74.08C669.25,366.15,678.81,359.3,691.31,358Z"/><path class="cls-11" d="M691.34,358.26c13.52-1.42,21.38,3.31,25.85,10.07h0c.08.75-.69,1.46-1.72,1.56l-.74.08c-1,.11-6.24-.42-2-1.18h0c-.64-6.05-10.16-10-21.22-8.88S672,366.94,672.6,373h0c6.24-.33-.69,1.46-1.72,1.57l-.74.08c-1,.1-1.92-.42-2-1.18h0C671.11,365.94,677.82,359.68,691.34,358.26Z"/><path class="cls-15" d="M1085.14,416.89l21.25,28.41c2.77-.39.39,1.75-.33,2.29h0c-.72.53-2-3.61-2.29-.33l-21.25-28.41c4.23,1.32-.39-1.75.33-2.29l1.1.34C1084.67,416.36,1084.6,416.17,1085.14,416.89Z"/><path class="cls-15" d="M1096.94,388.21,1076,419a1.67,1.67,0,0,1-2.31.49h0c-.75-.5-.57-1.3,0-2.08l20.56-31c.06,2,1.57-1,2.32-.5h0A1.69,1.69,0,0,1,1096.94,388.21Z"/><path class="cls-15" d="M1119.92,384.76l21.78,30.15c-5,5.73.4,1.82-.33,2.35h0a1.68,1.68,0,0,1-2.32-.43l-21.78-30.15c1.92.63-.4-1.82.33-2.35h0A1.68,1.68,0,0,1,1119.92,384.76Z"/><path class="cls-15" d="M1142.25,416.73l-15.14,32.08a1.63,1.63,0,0,1-2.18.78h0c-.81-.38-3.17-1.88-.78-2.17l15.14-32.09c.41,1.92,1.37-1.16,2.18-.78h0C1142.28,414.94,1137.64,424.37,1142.25,416.73Z"/><path class="cls-16" d="M1165.7,365.53l-15.39-30.1a1.63,1.63,0,0,1,.79-2.17h0a1.64,1.64,0,0,1,2.17.78l15.09,32.11a1.64,1.64,0,0,1-.78,2.18h0C1166.77,368.71,1166.08,366.34,1165.7,365.53Z"/><path class="cls-16" d="M1169.85,367.41l.24,34.65a2,2,0,0,1-2,2.06h0c-1.12,0-1.12-4.3-1.12-5.43l-.16-28.86c-.2-2.41.12-1.28.55-1.73s-.35-2.72.46-2.72h0C1168.91,365.37,1168,370.22,1169.85,367.41Z"/><path class="cls-16" d="M1169.43,400.64h0a.46.46,0,0,1,.66-.06l6.45,5.38a.47.47,0,0,1,.06.66h0c-.16.19-.25-.84-.66.06l-6.45-5.39C1169.29,401.13,1171.67,402.53,1169.43,400.64Z"/><path class="cls-16" d="M1169.41,401.86h0c1.34,3.95.51,0,.64.19l4,7.4a.46.46,0,0,1-.19.63h0c-.23.12-.29-.08-.63-.19l-4-7.4A.47.47,0,0,1,1169.41,401.86Z"/><path class="cls-16" d="M1169.27,402.72h0a.47.47,0,0,1,.47.46l.06,8.41a.47.47,0,0,1-.46.47h0c-.44-1.11-.47-.21-.47-.47l-.06-8.4A.47.47,0,0,1,1169.27,402.72Z"/><path class="cls-16" d="M1169,402.89h0c.2.17.31.12.06.66L1163.7,410c.06-.9-.46.23-.66.06h0a.48.48,0,0,1-.06-.66l5.39-6.45A.46.46,0,0,1,1169,402.89Z"/><path class="cls-16" d="M1160.72,405.34h0a.47.47,0,0,1,.27-.6l7.85-3c.24-.09-6,4.09.6.27h0a.47.47,0,0,1-.27.6l-7.85,3C1160.94,404.91,1160.81,405.58,1160.72,405.34Z"/><path class="cls-15" d="M1042.09,361.11,1057,328.93a1.64,1.64,0,0,1,2.17-.79h0a1.63,1.63,0,0,1,.8,2.17l-14.93,32.18c-.42-1.91-1.36,1.17-2.17.79h0A1.63,1.63,0,0,1,1042.09,361.11Z"/><path class="cls-15" d="M1045.39,362l.89,35.46a1.65,1.65,0,0,1-1.59,1.68h0a1.64,1.64,0,0,1-1.67-1.59l-.9-35.47c3.08,14.66.69-1.65,1.59-1.68h0C1043.48,360.42,1044.46,362.26,1045.39,362Z"/><path class="cls-15" d="M1045.47,395.66h0a.47.47,0,0,1,.66-.08l6.55,5.27a.47.47,0,0,1,.07.66h0c-.16.2-.78-.67-.66.07l-6.54-5.27A.45.45,0,0,1,1045.47,395.66Z"/><path class="cls-15" d="M1045.48,396.88h0a.47.47,0,0,1,.63.18l4.13,7.32c-.51.26,0,.51-.18.64h0c-.22.12-.34-.85-.63-.18l-4.13-7.32C1048.24,400.94,1045.26,397,1045.48,396.88Z"/><path class="cls-15" d="M1045.35,397.74h0a.47.47,0,0,1,.48.46l.22,8.4a.48.48,0,0,1-.46.48h0c-.26,0-.48-.46-.48-.46l-.21-8.4C1045.44,401,1045.1,397.75,1045.35,397.74Z"/><path class="cls-15" d="M1045.11,397.92h0a.47.47,0,0,1,.07.66l-5.27,6.54c1,.21-.45.24-.65.08h0a.47.47,0,0,1-.07-.66l5.26-6.55A.47.47,0,0,1,1045.11,397.92Z"/><path class="cls-15" d="M1036.85,400.52h0a.47.47,0,0,1,.26-.61l7.79-3.13a.48.48,0,0,1,.61.26h0a.47.47,0,0,1-.26.61l-7.8,3.13C1037,400.29,1036.94,400.76,1036.85,400.52Z"/><rect class="cls-17" x="1095.05" y="294.86" width="4.2" height="1.16" rx="0.58" transform="matrix(0.86, -0.51, 0.51, 0.86, 2.46, 599.86)"/><path class="cls-18" d="M1112.48,286.51c0,1.55-1.91,4.11-5.25,7.17s-7.83,2.81-8.81,1.15,1-5.73,5.25-7.18S1112.54,284.57,1112.48,286.51Z"/><line class="cls-5" x1="1098.3" y1="294.63" x2="1112.28" y2="286.63"/><polyline class="cls-5" points="1106.04 294.28 1100.5 293.43 1101.51 288.7"/><polyline class="cls-5" points="1108.4 292.45 1103.31 291.77 1103.9 287.57"/><polyline class="cls-5" points="1110.17 290.86 1106.12 290.1 1107.17 286.48"/><polyline class="cls-5" points="1111.54 289.5 1108.46 288.82 1109.34 285.91"/><path class="cls-19" d="M1145.85,314a32.16,32.16,0,0,0-33.66-10.23,30.89,30.89,0,0,1-16.08.07c-11.87-3.22-24.65.29-32.59,9.69-6.8,8.06-11,19.75-6.18,29.62,8.41,17.28,13.07,35.95,26.46,43.2,5.47,3,12.27,2.43,18.08.2a6.58,6.58,0,0,1,2.38-.45,6.43,6.43,0,0,1,2.27.41c5.57,2,12.38,3.81,17.22.39,17.62-12.47,20-28.34,27-44.68C1155,332.31,1152.42,322,1145.85,314Z"/><path class="cls-20" d="M1102.9,308.62h0a1.63,1.63,0,0,1-2.28-.34l-17.76-24c5.76,5.21-.37-1.75.35-2.29h0c.72-.53,3.08,7,2.28.35l17.75,24C1100.76,304.4,1103.62,308.09,1102.9,308.62Z"/><path class="cls-8" d="M1102.14,310.15c-3.86,0-7.06-1.1-7.56-2.52-.07-.2.31-.39.79-.39h.88a.89.89,0,0,1,.79.3c.4.87,2.54,1.54,5.1,1.54s4.7-.67,5.11-1.54c.07-.17.39-.29.78-.29h.89c.47,0,.86.18.79.39C1109.21,309.06,1106,310.16,1102.14,310.15Z"/><path class="cls-9" d="M1093.29,337.31c0,4.51-3.87,9.53-8.17,8.17s-8.17-3.66-8.17-8.17,4-6.57,8.17-8.17C1090,327.27,1093.29,332.8,1093.29,337.31Z"/><path class="cls-9" d="M1132,337.31c0,4.51-4.66,7.23-8.17,8.17-4.35,1.16-8.16-3.66-8.16-8.17s3.81-7,8.16-8.17C1127.37,328.2,1132,332.8,1132,337.31Z"/><path class="cls-10" d="M1093.16,335.94a8.15,8.15,0,0,0-3.66-5.52,3.5,3.5,0,0,0,3.66,5.52Z"/><circle class="cls-10" cx="1080.68" cy="339.41" r="1.4"/><path class="cls-10" d="M1131.91,335.94a8.16,8.16,0,0,0-3.67-5.52,3.5,3.5,0,0,0,3.67,5.52Z"/><circle class="cls-10" cx="1118.96" cy="341.28" r="1.4"/><rect class="cls-11" x="1081.62" y="327.27" width="16.34" height="1.4" rx="0.7" transform="translate(309.99 -500.95) rotate(30)"/><rect class="cls-11" x="1112.89" y="328.2" width="16.34" height="1.4" rx="0.7" transform="translate(-29.48 531.93) rotate(-26.36)"/><path class="cls-11" d="M1107.88,352c10.83-.19,19.72,4.67,19.83,10.83h-.64c-.11-5.9-8.71-10.55-19.18-10.36s-18.9,5.14-18.79,11h-.65C1088.34,357.38,1097.06,352.21,1107.88,352Z"/><path class="cls-11" d="M1107.89,352.25c11.71-.21,18.1,4.44,21.43,10.56h0c0,.66-.7,1.21-1.59,1.22h-.64c-.89,0-5.33-.82-1.63-1.16h0c-.1-5.24-8-9.37-17.55-9.2s-17.3,4.58-17.2,9.82h0c5.38.18-.7,1.2-1.59,1.22h-.65a1.45,1.45,0,0,1-1.63-1.16h0C1090,357.33,1096.18,352.46,1107.89,352.25Z"/><ellipse class="cls-21" cx="729.93" cy="86.54" rx="156.2" ry="56.83"/><ellipse class="cls-21" cx="919.6" cy="79.86" rx="156.2" ry="56.83"/><ellipse class="cls-21" cx="763.4" cy="136.02" rx="156.2" ry="56.83"/><ellipse class="cls-21" cx="607.2" cy="105.26" rx="156.2" ry="56.83"/><ellipse class="cls-21" cx="1075.8" cy="89.22" rx="156.2" ry="56.83"/><ellipse class="cls-21" cx="919.6" cy="136.02" rx="156.2" ry="56.83"/><path class="cls-22" d="M65.9,71.94A68.25,68.25,0,0,0,50,73.82a68,68,0,0,1,0,132.23A68,68,0,1,0,65.9,71.94Z"/><line class="cls-23" x1="592" y1="273.94" x2="591" y2="297.94"/><line class="cls-23" x1="674" y1="192.94" x2="673" y2="216.94"/><line class="cls-23" x1="571" y1="205.94" x2="570" y2="229.94"/><line class="cls-23" x1="613" y1="256" x2="612" y2="280"/><line class="cls-23" x1="571" y1="274" x2="570" y2="298"/><line class="cls-23" x1="507" y1="255" x2="506" y2="279"/><line class="cls-23" x1="538" y1="206" x2="537" y2="230"/><line class="cls-23" x1="480" y1="193" x2="479" y2="217"/><line class="cls-23" x1="623" y1="202" x2="622" y2="226"/><line class="cls-23" x1="652" y1="248" x2="651" y2="272"/><line class="cls-23" x1="718" y1="227" x2="717" y2="251"/><line class="cls-23" x1="756" y1="218" x2="755" y2="242"/><line class="cls-23" x1="768" y1="267" x2="767" y2="291"/><line class="cls-23" x1="869" y1="275" x2="868" y2="299"/><line class="cls-23" x1="913" y1="269" x2="912" y2="293"/><line class="cls-23" x1="951" y1="276" x2="950" y2="300"/><line class="cls-23" x1="978" y1="285" x2="977" y2="309"/><line class="cls-23" x1="984" y1="188" x2="983" y2="212"/><line class="cls-23" x1="965" y1="228" x2="964" y2="252"/><line class="cls-23" x1="898" y1="233" x2="897" y2="257"/><line class="cls-23" x1="825" y1="229" x2="824" y2="253"/><line class="cls-23" x1="792" y1="316" x2="791" y2="340"/><line class="cls-23" x1="879" y1="376" x2="878" y2="400"/><line class="cls-23" x1="937" y1="332" x2="936" y2="356"/><line class="cls-23" x1="1065" y1="246" x2="1064" y2="270"/><line class="cls-23" x1="1139" y1="215" x2="1138" y2="239"/><line class="cls-23" x1="1050" y1="196" x2="1049" y2="220"/><line class="cls-23" x1="1106" y1="202" x2="1105" y2="226"/><line class="cls-23" x1="1211" y1="180" x2="1210" y2="204"/><line class="cls-23" x1="1192" y1="241" x2="1191" y2="265"/><line class="cls-23" x1="1196" y1="311" x2="1195" y2="335"/><line class="cls-23" x1="1165" y1="316" x2="1164" y2="340"/><line class="cls-23" x1="1024" y1="420" x2="1023" y2="444"/><line class="cls-23" x1="794" y1="360" x2="793" y2="384"/><line class="cls-23" x1="847" y1="396" x2="846" y2="420"/><line class="cls-23" x1="575" y1="409" x2="574" y2="433"/><line class="cls-23" x1="599" y1="392" x2="598" y2="416"/><line class="cls-23" x1="583" y1="359" x2="582" y2="383"/><line class="cls-23" x1="604" y1="319" x2="603" y2="343"/><line class="cls-23" x1="550" y1="307" x2="549" y2="331"/><line class="cls-23" x1="460" y1="297" x2="459" y2="321"/><line class="cls-23" x1="920" y1="379" x2="919" y2="403"/><line class="cls-23" x1="996" y1="385" x2="995" y2="409"/><line class="cls-23" x1="1038" y1="303" x2="1037" y2="327"/><line class="cls-23" x1="1017" y1="328" x2="1016" y2="352"/><line class="cls-23" x1="854" y1="346" x2="853" y2="370"/><line class="cls-23" x1="879" y1="315" x2="878" y2="339"/><line class="cls-23" x1="916" y1="323" x2="915" y2="347"/><path class="cls-24" d="M459.5,525.28a26.85,26.85,0,1,1,26.84-26.84A26.87,26.87,0,0,1,459.5,525.28Zm0-45.55a18.71,18.71,0,1,0,18.71,18.71A18.73,18.73,0,0,0,459.5,479.73Z"/><rect class="cls-25" x="456.25" y="459.94" width="5.96" height="13.01" rx="2.98"/><rect class="cls-25" x="479.56" y="470.24" width="5.96" height="13.01" rx="2.98" transform="translate(503.38 -201.27) rotate(47.11)"/><rect class="cls-25" x="488.51" y="492.2" width="5.96" height="13.01" rx="2.98" transform="translate(990.2 7.21) rotate(90)"/><rect class="cls-25" x="480.65" y="511.99" width="5.96" height="13.01" rx="2.98" transform="translate(1192.24 543.16) rotate(135)"/><rect class="cls-25" x="457.87" y="523.92" width="5.96" height="13.01" rx="2.98"/><rect class="cls-25" x="434.56" y="514.7" width="5.96" height="13.01" rx="2.98" transform="translate(404.02 1200.9) rotate(-137.16)"/><rect class="cls-25" x="424.52" y="493.83" width="5.96" height="13.01" rx="2.98" transform="translate(-72.83 927.84) rotate(-90)"/><rect class="cls-25" x="432.39" y="471.32" width="5.96" height="13.01" rx="2.98" transform="translate(-210.36 447.81) rotate(-45)"/><rect class="cls-12" x="1023.17" y="570.94" width="345.3" height="98" rx="49"/><path class="cls-10" d="M1065.07,625.06a9.61,9.61,0,0,1-1.55,5.52,11.54,11.54,0,0,1-4.23,3.69,22,22,0,0,1-6.26,2.07,42.74,42.74,0,0,1-7.72.65v7.48h-13.75V613.12h13.75a42.71,42.71,0,0,1,7.72.66,22,22,0,0,1,6.26,2.06,11.54,11.54,0,0,1,4.23,3.69A9.62,9.62,0,0,1,1065.07,625.06Zm-6.27,0a6.59,6.59,0,0,0-1-3.67,7.63,7.63,0,0,0-2.81-2.54,14.9,14.9,0,0,0-4.29-1.48,27.62,27.62,0,0,0-5.39-.49H1038v23.83h1.68v-7.48h5.62a27.62,27.62,0,0,0,5.39-.49,14.9,14.9,0,0,0,4.29-1.48,7.54,7.54,0,0,0,2.81-2.54A6.56,6.56,0,0,0,1058.8,625.06Zm-1.8,0a5.74,5.74,0,0,1-1,3.38,6.83,6.83,0,0,1-2.58,2.16,13,13,0,0,1-3.72,1.15,26.11,26.11,0,0,1-4.42.36h-5.62V618h5.62a26.13,26.13,0,0,1,4.42.35,13.31,13.31,0,0,1,3.72,1.15,6.83,6.83,0,0,1,2.58,2.16A5.75,5.75,0,0,1,1057,625.06Zm-11.69,3.47h.58a6.53,6.53,0,0,0,3.91-.91,3.36,3.36,0,0,0,0-5.13,6.53,6.53,0,0,0-3.91-.91h-.58Z"/><path class="cls-10" d="M1068.29,613.12h14.34v23.12h11.88v8.23h-26.22Zm22.6,27.59v-1.13h-14.46v-22.7h-1.68v23.83Z"/><path class="cls-10" d="M1109.55,613.12h10.33l16.33,31.35h-13.56l-1.42-2.82h-13l-1.42,2.82h-13.56Zm-6.72,27.59,1.23-2.35h21.31l1.22,2.35h1.81l-12.46-23.83h-2.45L1101,640.71Zm11.88-22.7,10.07,19.22h-20.14Zm2.91,16.73-2.91-5.5-2.9,5.5Z"/><path class="cls-10" d="M1138.92,631l-13.36-17.86h15.3l5,6.62,4.91-6.62H1166L1152.68,631v13.49h-13.76Zm7.75,9.73V629.47l9.43-12.59h-2L1145.83,628l-8.33-11.14h-1.93l9.36,12.59v11.24Z"/><path class="cls-10" d="M1192.7,613.12H1203l16.34,31.35h-13.56l-1.42-2.82h-13l-1.42,2.82h-13.56ZM1186,640.71l1.23-2.35h21.3l1.23,2.35h1.81l-12.47-23.83h-2.45l-12.46,23.83Zm11.88-22.7,10.07,19.22H1187.8Zm2.9,16.73-2.9-5.5-2.91,5.5Z"/><path class="cls-10" d="M1247.77,623.79a8.87,8.87,0,0,0-2.9-1.15,15,15,0,0,0-3.42-.4,11.28,11.28,0,0,0-3.43.49,8.61,8.61,0,0,0-2.67,1.36,6.35,6.35,0,0,0-1.78,2.09,5.61,5.61,0,0,0-.65,2.64,5.19,5.19,0,0,0,.71,2.63,6.76,6.76,0,0,0,1.94,2.09,9.9,9.9,0,0,0,2.87,1.36,12.17,12.17,0,0,0,3.52.5,11.4,11.4,0,0,0,4-.68,9.89,9.89,0,0,0,3.1-1.86h-3.88v-6.58h16.59v10.43a18.71,18.71,0,0,1-3.55,3.5,23.2,23.2,0,0,1-4.61,2.71,26.77,26.77,0,0,1-5.52,1.73,30.87,30.87,0,0,1-14.92-.65,24.84,24.84,0,0,1-7.2-3.48,17.23,17.23,0,0,1-4.84-5.22,12.53,12.53,0,0,1-1.77-6.48,13,13,0,0,1,1.67-6.4,17,17,0,0,1,4.62-5.24,23.17,23.17,0,0,1,7-3.52,28.4,28.4,0,0,1,8.69-1.29,33.54,33.54,0,0,1,6.26.51,31,31,0,0,1,4.46,1.18,18.23,18.23,0,0,1,3.55,1.64Zm.65-6.07a15.44,15.44,0,0,0-1.87-.47c-.61-.12-1.32-.23-2.13-.32a22.57,22.57,0,0,0-2.71-.15,22,22,0,0,0-6.4.9,17.39,17.39,0,0,0-5.16,2.46,11.87,11.87,0,0,0-3.46,3.79,9.67,9.67,0,0,0-1.25,4.89,9.5,9.5,0,0,0,1.29,4.88,11.84,11.84,0,0,0,3.55,3.79,18.26,18.26,0,0,0,5.26,2.47,22.59,22.59,0,0,0,6.42.89,20.51,20.51,0,0,0,8.07-1.53,16.19,16.19,0,0,0,5.88-4.06V629.1h-6.84v1.13h5.16v4.7a14,14,0,0,1-5.2,3.43,19.09,19.09,0,0,1-7.07,1.27,20.65,20.65,0,0,1-5.78-.78,15.74,15.74,0,0,1-4.71-2.21,10.82,10.82,0,0,1-3.19-3.43,8.54,8.54,0,0,1-1.17-4.39,8.82,8.82,0,0,1,1.13-4.4,11,11,0,0,1,3.1-3.43,15.11,15.11,0,0,1,4.62-2.21,20.24,20.24,0,0,1,5.75-.77,15.31,15.31,0,0,1,2.19.14c.69.09,1.29.19,1.81.28s1.16.25,1.68.38Z"/><path class="cls-10" d="M1278.12,613.12h10.33l16.33,31.35h-13.56l-1.42-2.82h-13l-1.42,2.82h-13.56Zm-6.72,27.59,1.23-2.35h21.3l1.23,2.35H1297l-12.46-23.83h-2.45l-12.47,23.83Zm11.88-22.7,10.07,19.22h-20.14Zm2.91,16.73-2.91-5.5-2.9,5.5Z"/><path class="cls-10" d="M1305.75,613.12h14.59v31.35h-14.59Zm8.13,27.59V616.88h-1.67v23.83Z"/><path class="cls-10" d="M1324.86,613.12h11.3L1348,625.2V613.12h13.49v31.35h-11.36l-11.82-12v12h-13.49Zm7.68,27.59V619l21.31,21.72h1.68V616.88h-1.68v21.71l-21.31-21.71h-1.68v23.83Z"/></svg>