<svg id="Layer_1" data-name="Layer 1" xmlns="http://www.w3.org/2000/svg" viewBox="0 0 1599 901.12"><defs><style>.cls-1{fill:#58afff;}.cls-2{fill:#9b6b1e;}.cls-3{fill:#876217;}.cls-4{fill:#2e9330;}.cls-5{fill:none;stroke:#111110;stroke-miterlimit:10;stroke-width:0.25px;}.cls-6{fill:#20a041;}.cls-7{fill:#ba7e1e;}.cls-8{fill:#050505;}.cls-9{fill:#020202;}.cls-10{fill:#fff;}.cls-11{fill:#0a0a09;}.cls-12{fill:#318e24;}.cls-13{fill:#366d16;}.cls-14{fill:#82581c;}.cls-15{fill:#2c7218;}.cls-16{fill:#d6f20a;}.cls-17{fill:#0f0f0f;}.cls-18{fill:#0c0c0c;}</style></defs><title>Level Complete</title><rect class="cls-1" x="-1" y="0.06" width="1600" height="901.12"/><rect class="cls-2" x="912.18" y="564.28" width="83" height="7" rx="3.5" transform="translate(2051.18 733.28) rotate(157.81)"/><path class="cls-2" d="M986.11,551.74l2.3-74.2a4.38,4.38,0,0,1,4.51-4.24h0a4.39,4.39,0,0,1,4.25,4.51l-2.3,74.2c-1.94-5.3-2.11,4.32-4.52,4.25h0A4.39,4.39,0,0,1,986.11,551.74Z"/><path class="cls-2" d="M989.94,480.66h0a1,1,0,0,1-1.41.07l-13.37-12a1,1,0,0,1-.07-1.42h0c.36-.41.47,1.81,1.41-.07l13.37,12.05C990.28,479.62,985.31,476.41,989.94,480.66Z"/><path class="cls-2" d="M990.08,478h0c-2.53-8.55-1.1,0-1.34-.46l-7.94-16.15a1,1,0,0,1,.46-1.34h0c.49-.24.6.2,1.33.45l7.95,16.16A1,1,0,0,1,990.08,478Z"/><path class="cls-2" d="M990.45,476.21h0a1,1,0,0,1-1-1l.56-18a1,1,0,0,1,1-1h0c.85,2.41,1,.48,1,1l-.56,18A1,1,0,0,1,990.45,476.21Z"/><path class="cls-2" d="M991,475.86h0c-.41-.36-.65-.27-.07-1.41l12-13.37c-.19,1.92,1-.44,1.42-.07h0a1,1,0,0,1,.07,1.41l-12.05,13.37A1,1,0,0,1,991,475.86Z"/><path class="cls-2" d="M1009,471.29h0a1,1,0,0,1-.63,1.27l-17.05,5.76c-.52.18,13.24-8.26-1.27-.63h0a1,1,0,0,1,.63-1.26l17.05-5.76C1008.47,472.2,1008.8,470.77,1009,471.29Z"/><path class="cls-3" d="M661.94,550.94l64.49,40.21a3.52,3.52,0,0,1,1.11,4.83h0a3.51,3.51,0,0,1-4.82,1.11l-64.49-40.21c4.18-.39-2.13-3.19-1.12-4.82h0A3.51,3.51,0,0,1,661.94,550.94Z"/><path class="cls-3" d="M656.53,552.79l2.58-76a3.52,3.52,0,0,1,3.62-3.38h0a3.53,3.53,0,0,1,3.38,3.62l-2.58,76c3-.4-1.7,3.44-3.62,3.37h0C660.41,556.42,658.55,552.36,656.53,552.79Z"/><path class="cls-3" d="M661.61,480.88h0a1,1,0,0,1-1.41.07l-13.34-12.09a1,1,0,0,1-.07-1.41h0c.37-.41,1.58,1.51,1.41-.07l13.34,12.09A1,1,0,0,1,661.61,480.88Z"/><path class="cls-3" d="M661.75,478.26h0a1,1,0,0,1-1.33-.46l-7.9-16.18c1.12-.48,0-1.1.46-1.34h0c.5-.24.63,1.86,1.34.46l7.89,16.18C656.37,469.23,662.25,478,661.75,478.26Z"/><path class="cls-3" d="M662.13,476.43h0a1,1,0,0,1-1-1l.61-18a1,1,0,0,1,1-1h0c.55,0,1,1,1,1l-.61,18C662.37,469.44,662.68,476.45,662.13,476.43Z"/><path class="cls-3" d="M662.68,476.09h0a1,1,0,0,1-.07-1.42l12.09-13.33c-2-.56,1-.44,1.41-.07h0a1,1,0,0,1,.07,1.41L664.09,476A1,1,0,0,1,662.68,476.09Z"/><path class="cls-3" d="M680.67,471.57h0a1,1,0,0,1-.63,1.27L663,478.54a1,1,0,0,1-1.26-.63h0a1,1,0,0,1,.63-1.26l17.07-5.71C680.29,472.05,680.5,471.05,680.67,471.57Z"/><rect class="cls-4" x="803.48" y="489.96" width="9" height="2.48" rx="1.24" transform="translate(-136.6 447.77) rotate(-28.66)"/><path class="cls-4" d="M841.45,473.2c-.22,3.32-4.38,8.67-11.76,15s-17,5.45-19,1.81,2.5-12.18,11.76-15S841.73,469.07,841.45,473.2Z"/><line class="cls-5" x1="810.5" y1="489.55" x2="841.01" y2="473.44"/><polyline class="cls-5" points="827.09 489.38 815.3 487.16 817.8 477.09"/><polyline class="cls-5" points="832.28 485.62 821.44 483.8 823 474.87"/><polyline class="cls-5" points="836.19 482.35 827.58 480.44 830.09 472.76"/><polyline class="cls-5" points="839.22 479.55 832.68 477.86 834.77 471.69"/><path class="cls-6" d="M910.9,534.47c-16.66-21.71-44.75-30.85-71.33-24.35a65.87,65.87,0,0,1-34.42-1c-25.19-7.76-52.81-1.17-70.48,18.38-15.14,16.75-24.95,41.47-15.38,63C736,628,744.65,668.35,772.78,684.85c11.51,6.75,26.09,6.1,38.69,1.73a14.24,14.24,0,0,1,5.13-.78,14.07,14.07,0,0,1,4.84,1c11.78,4.77,26.22,9.07,36.84,2.09,38.63-25.41,44.78-59.22,61-93.69C929,574.35,924.37,552,910.9,534.47Z"/><path class="cls-7" d="M819.33,519.86h0a3.5,3.5,0,0,1-4.86-.91l-36.26-52.74c4.22,3.31-.68-3.77.91-4.87h0c1.58-1.09,6.48,3.28,4.86.91L820.24,515C821.91,514.89,820.92,518.77,819.33,519.86Z"/><path class="cls-8" d="M817.6,523.08c-8.27-.28-15-2.87-16-6-.14-.45.71-.81,1.73-.78l1.88.07c.85,0,1.52.32,1.67.69.8,1.89,5.32,3.47,10.81,3.66s10.11-1.08,11-2.91a1.9,1.9,0,0,1,1.71-.58l1.88.06c1,0,1.84.46,1.67.9C832.8,521.24,825.87,523.36,817.6,523.08Z"/><path class="cls-9" d="M796.67,580.57c-.33,9.65-9,20.11-18.09,16.89-9.39-3.32-17.22-8.42-16.89-18.08s8.94-13.77,18.08-16.9C790.4,558.84,797,570.91,796.67,580.57Z"/><path class="cls-9" d="M879.62,583.39c-.33,9.65-10.52,15.15-18.09,16.89-9.41,2.17-17.22-8.42-16.89-18.08s8.67-14.73,18.08-16.9C870.29,563.56,880,573.73,879.62,583.39Z"/><path class="cls-10" d="M796.5,577.64a17.5,17.5,0,0,0-7.44-12.1,7.5,7.5,0,0,0,7.44,12.1Z"/><circle class="cls-10" cx="769.53" cy="584.15" r="3"/><path class="cls-10" d="M879.46,580.46a17.51,17.51,0,0,0-7.45-12.1,7.5,7.5,0,0,0,7.45,12.1Z"/><circle class="cls-10" cx="851.35" cy="590.93" r="3"/><path class="cls-11" d="M822,643.46c-23.17-.78-41.66-12.16-41.21-25.36l1.38,0c-.43,12.64,17.45,23.54,39.87,24.31s41-8.9,41.43-21.54l1.38,0C864.44,634.15,845.22,644.25,822,643.46Z"/><path class="cls-11" d="M822.06,643c-25.07-.85-38.24-11.49-44.68-25h0c0-1.41,1.63-2.49,3.54-2.43l1.37.05c1.91.06,6.15,1.74,3.36,2.66h0c-.38,11.23,16,20.94,36.52,21.64s37.51-7.88,37.89-19.11h0c-4.1-1.16,1.63-2.49,3.54-2.43l1.37,0c1.91.06,3.41,1.26,3.36,2.66h0C861,634.08,847.14,643.81,822.06,643Z"/><rect class="cls-12" x="284.37" y="304.8" width="1059.09" height="164.87" rx="49"/><path class="cls-13" d="M1193.2,424l-834,17.73c-41.16,0-74.84-24.55-74.84-66.84h0C284.37,338.12,344,334,385.18,334l834-25.92c59.58,0,74.85,30.08,74.85,66.84h0C1294,411.64,1234.36,424,1193.2,424Z"/><path class="cls-10" d="M368.2,348.66h27.7v44.69h23v15.9H368.2ZM411.88,402V399.8h-28V355.92h-3.24V402Z"/><path class="cls-10" d="M423.23,348.66h49v15.89H449.81v6.73H471.9v15.08H449.81v7h23.33v15.9H423.23ZM463.91,402V399.8H439V379.91h23.71v-2.18H439V358.1h25v-2.18h-28.2V402Z"/><path class="cls-10" d="M502.84,348.66,517,375l14.22-26.34h29.08L527.8,409.25H506.21l-32.44-60.59ZM518.32,402,543,355.92h-3.5L517,397.8l-22.47-41.88H491L515.7,402Z"/><path class="cls-10" d="M562.12,348.66h49v15.89H588.7v6.73h22.09v15.08H588.7v7H612v15.9H562.12ZM602.8,402V399.8h-25V379.91h23.71v-2.18H577.84V358.1h25v-2.18H574.6V402Z"/><path class="cls-10" d="M619.52,348.66h27.7v44.69h23v15.9H619.52ZM663.2,402V399.8h-28V355.92H632V402Z"/><path class="cls-10" d="M697.64,379a25.14,25.14,0,0,1,3.49-13.13,32.55,32.55,0,0,1,9.49-10,45.62,45.62,0,0,1,14-6.4,63.13,63.13,0,0,1,17-2.23,72.59,72.59,0,0,1,12.67,1,79.23,79.23,0,0,1,9.55,2.27,51.74,51.74,0,0,1,8,3.18l-13.1,16.81a48.27,48.27,0,0,0-4.37-2.09c-1.41-.48-3.1-.95-5-1.41a29.92,29.92,0,0,0-6.68-.68,23.91,23.91,0,0,0-7.11,1,20.22,20.22,0,0,0-5.68,2.72,13.4,13.4,0,0,0-3.81,4.05,9.57,9.57,0,0,0-1.37,4.95A9.19,9.19,0,0,0,726,384a13.57,13.57,0,0,0,3.93,4,20.58,20.58,0,0,0,5.86,2.73,26.06,26.06,0,0,0,7.37,1,31.49,31.49,0,0,0,12.35-2.37,19.87,19.87,0,0,0,4.37-2.36L773,403.8a41.69,41.69,0,0,1-8,3.54,84.39,84.39,0,0,1-9.6,2.36,67.74,67.74,0,0,1-12.86,1.09,66.36,66.36,0,0,1-18-2.31,46.78,46.78,0,0,1-14.22-6.5,30.89,30.89,0,0,1-9.36-10A25.44,25.44,0,0,1,697.64,379Zm15.72,0a17,17,0,0,1,2.06-8.18,20.48,20.48,0,0,1,5.8-6.63,29.1,29.1,0,0,1,9.11-4.45,41,41,0,0,1,12-1.64,48,48,0,0,1,5.81.32,36.7,36.7,0,0,1,4.3.77,20.33,20.33,0,0,1,3.62,1.1l1.75-2.19c-1.33-.42-2.75-.81-4.25-1.18s-3-.57-4.86-.81a47.76,47.76,0,0,0-6.37-.37,44.7,44.7,0,0,0-12.17,1.64,34.52,34.52,0,0,0-10.23,4.68,24.76,24.76,0,0,0-7.11,7.36,17.75,17.75,0,0,0-2.68,9.58,18.35,18.35,0,0,0,2.56,9.63,23.19,23.19,0,0,0,7,7.31,34.94,34.94,0,0,0,10.49,4.68,48.1,48.1,0,0,0,12.73,1.63,45.76,45.76,0,0,0,6.74-.45,49.9,49.9,0,0,0,5.11-1,29.91,29.91,0,0,0,4.24-1.45l-1.74-2.18a18.61,18.61,0,0,1-3.75,1.36,36.47,36.47,0,0,1-4.49,1,39.25,39.25,0,0,1-6.11.41,43.27,43.27,0,0,1-12.36-1.63,29.83,29.83,0,0,1-9.29-4.45,20.07,20.07,0,0,1-5.87-6.64A16.94,16.94,0,0,1,713.36,379Z"/><path class="cls-10" d="M774.26,379a23.92,23.92,0,0,1,3.43-12.36,33.87,33.87,0,0,1,9.36-10.13A47.85,47.85,0,0,1,801,349.7a58.88,58.88,0,0,1,33.95,0,47.85,47.85,0,0,1,13.91,6.81,33.87,33.87,0,0,1,9.36,10.13,24,24,0,0,1,0,24.71,33.63,33.63,0,0,1-9.36,10.13,47.61,47.61,0,0,1-13.91,6.82,59.11,59.11,0,0,1-33.95,0,47.61,47.61,0,0,1-13.91-6.82,33.63,33.63,0,0,1-9.36-10.13A23.86,23.86,0,0,1,774.26,379ZM786,379a17.52,17.52,0,0,0,2.49,9,24.77,24.77,0,0,0,6.87,7.4,34.72,34.72,0,0,0,10.17,5,43.48,43.48,0,0,0,24.83,0,34.72,34.72,0,0,0,10.17-5,24.74,24.74,0,0,0,6.86-7.4,17.59,17.59,0,0,0,0-18.08,24.62,24.62,0,0,0-6.86-7.4,34.72,34.72,0,0,0-10.17-5,43.25,43.25,0,0,0-24.83,0,34.72,34.72,0,0,0-10.17,5,24.66,24.66,0,0,0-6.87,7.4A17.52,17.52,0,0,0,786,379Zm31.94,20.89a36.85,36.85,0,0,1-11.16-1.63,31.26,31.26,0,0,1-9.11-4.5,22.51,22.51,0,0,1-6.18-6.63,15.81,15.81,0,0,1,0-16.26,22.39,22.39,0,0,1,6.18-6.63,31.26,31.26,0,0,1,9.11-4.5,38.83,38.83,0,0,1,22.33,0,31.39,31.39,0,0,1,9.11,4.5,22.39,22.39,0,0,1,6.18,6.63,15.87,15.87,0,0,1,0,16.26,22.51,22.51,0,0,1-6.18,6.63,31.39,31.39,0,0,1-9.11,4.5A36.87,36.87,0,0,1,817.93,399.89ZM800.46,379a9.49,9.49,0,0,0,1.38,4.95,13.49,13.49,0,0,0,3.74,4,19.16,19.16,0,0,0,5.55,2.73,23.62,23.62,0,0,0,13.6,0,19.1,19.1,0,0,0,5.56-2.73,13.49,13.49,0,0,0,3.74-4,9.63,9.63,0,0,0,0-9.9,13.52,13.52,0,0,0-3.74-4.05,19.34,19.34,0,0,0-5.56-2.72,23.62,23.62,0,0,0-13.6,0,19.4,19.4,0,0,0-5.55,2.72,13.52,13.52,0,0,0-3.74,4.05A9.49,9.49,0,0,0,800.46,379Z"/><path class="cls-10" d="M868.47,348.66h22l21.71,23.25,21.59-23.25h22v60.59H929.12v-21.8l-17,18.17-17.1-18.17v21.8H868.47ZM884.2,402V360.29l27.95,29.61L940,360.29V402h3.24V355.92H940l-27.83,29.89L884.2,355.92H881V402Z"/><path class="cls-10" d="M1029.2,371.73a18.61,18.61,0,0,1-3,10.68,22.26,22.26,0,0,1-8.18,7.13,42.28,42.28,0,0,1-12.1,4A82.41,82.41,0,0,1,991,394.81v14.44H964.44V348.66H991a82.44,82.44,0,0,1,14.91,1.27,42.28,42.28,0,0,1,12.1,4,22.08,22.08,0,0,1,8.18,7.13A18.57,18.57,0,0,1,1029.2,371.73Zm-12.1,0a12.75,12.75,0,0,0-1.94-7.08,14.64,14.64,0,0,0-5.43-4.91,28.93,28.93,0,0,0-8.29-2.86,53.28,53.28,0,0,0-10.42-1H976.91V402h3.25V387.54H991a53.28,53.28,0,0,0,10.42-1,28.93,28.93,0,0,0,8.29-2.86,14.62,14.62,0,0,0,5.43-4.9A12.79,12.79,0,0,0,1017.1,371.73Zm-3.5,0a11,11,0,0,1-1.87,6.54,13.13,13.13,0,0,1-5,4.18,25.86,25.86,0,0,1-7.18,2.23,51.94,51.94,0,0,1-8.54.68H980.16V358.1H991a50.85,50.85,0,0,1,8.54.69,25.53,25.53,0,0,1,7.18,2.22,13.13,13.13,0,0,1,5,4.18A11,11,0,0,1,1013.6,371.73ZM991,378.45h1.12q5.24,0,7.55-1.77a6.46,6.46,0,0,0,0-9.9q-2.31-1.77-7.55-1.77H991Z"/><path class="cls-10" d="M1035.44,348.66h27.7v44.69h23v15.9h-50.66ZM1079.12,402V399.8h-28V355.92h-3.24V402Z"/><path class="cls-10" d="M1090.47,348.66h49v15.89h-22.46v6.73h22.09v15.08h-22.09v7h23.33v15.9h-49.91ZM1131.15,402V399.8h-25V379.91h23.71v-2.18h-23.71V358.1h25v-2.18H1103V402Z"/><path class="cls-10" d="M1158.85,364.55H1143.5V348.66h58.16v15.89h-15.35v44.7h-27.46ZM1174.2,402V358.1h17.85v-2.18h-38.94v2.18H1171V402Z"/><path class="cls-10" d="M1206,348.66h49v15.89H1232.6v6.73h22.09v15.08H1232.6v7h23.34v15.9H1206ZM1246.7,402V399.8h-25V379.91h23.71v-2.18h-23.71V358.1h25v-2.18h-28.2V402Z"/><path class="cls-14" d="M1244.67,252.5l-30.42,37.3a2.75,2.75,0,0,1-3.36.6h0a1.83,1.83,0,0,1-.57-2.83l30.42-37.29"/><path class="cls-14" d="M1244.35,324.51a2.71,2.71,0,0,1-3.32-.4l-30.92-34.45c2.74.65-.57-2.12.48-2.77h0a2.72,2.72,0,0,1,3.33.4l30.91,34.45a1.78,1.78,0,0,1-.48,2.77"/><path class="cls-14" d="M1278.1,248.33l31.67,36.56a1.83,1.83,0,0,1-.47,2.85h0a2.78,2.78,0,0,1-3.39-.53l-31.67-36.56"/><path class="cls-14" d="M1284.25,324.31l22-38.91c.59,2.32,2-1.41,3.16-.95h0a1.86,1.86,0,0,1,1.13,2.64l-22,38.91"/><path class="cls-2" d="M1372.6,176.21l-47.94,17.91a2.09,2.09,0,0,1-2.53-.8l-.38-.71a1.5,1.5,0,0,1,1-2.1l47.94-17.91a2.09,2.09,0,0,1,2.53.8l.38.7A1.5,1.5,0,0,1,1372.6,176.21Z"/><path class="cls-2" d="M1369.29,173.66l-.15-42a2.76,2.76,0,0,1,3-2.49h0a2.77,2.77,0,0,1,3,2.47l.15,42c-1.44-3-1.33,2.48-3,2.48h0A2.76,2.76,0,0,1,1369.29,173.66Z"/><path class="cls-2" d="M1370.25,133.37h0a.77.77,0,0,1-1,.07l-9.36-6.56a.51.51,0,0,1-.08-.8h0c.24-.24.36,1,1-.07l9.35,6.56C1370.46,132.77,1367,131.06,1370.25,133.37Z"/><path class="cls-2" d="M1370.29,131.88h0c-1.92-4.78-.75.05-.92-.23l-5.77-9a.53.53,0,0,1,.28-.77h0c.33-.15.42.1.92.23l5.76,9A.52.52,0,0,1,1370.29,131.88Z"/><path class="cls-2" d="M1370.49,130.85h0a.64.64,0,0,1-.68-.57l0-10.19a.62.62,0,0,1,.67-.57h0c.64,1.35.68.26.68.57l0,10.19A.63.63,0,0,1,1370.49,130.85Z"/><path class="cls-2" d="M1370.86,130.64h0c-.29-.2-.45-.15-.08-.8l7.87-7.8c-.09,1.09.67-.27.95-.07h0a.51.51,0,0,1,.08.8l-7.86,7.8A.78.78,0,0,1,1370.86,130.64Z"/><path class="cls-2" d="M1383,127.71h0a.55.55,0,0,1-.4.73L1371.12,132c-.35.11,8.8-4.92-.88-.33h0a.55.55,0,0,1,.4-.73l11.44-3.58C1382.63,128.23,1382.83,127.41,1383,127.71Z"/><path class="cls-3" d="M1145.19,210.59,1189.1,188a2.67,2.67,0,0,1,3.27.65h0a1.81,1.81,0,0,1-.77,2.73L1147.69,214c1-2.22-2.59.28-3.27-.65h0A1.8,1.8,0,0,1,1145.19,210.59Z"/><path class="cls-3" d="M1149.37,212.35l-1,43a2.23,2.23,0,0,1-2.43,1.94h0a2.2,2.2,0,0,1-2.33-2l1-43c-2,.25,1.12-2,2.43-1.94h0C1146.71,210.32,1148,212.61,1149.37,212.35Z"/><path class="cls-3" d="M1146.61,253.09h0a.78.78,0,0,1,1-.05l9.17,6.74a.5.5,0,0,1,.06.8h0c-.25.23-1.09-.85-1,.05l-9.17-6.74A.51.51,0,0,1,1146.61,253.09Z"/><path class="cls-3" d="M1146.54,254.58h0a.75.75,0,0,1,.91.25l5.52,9.09c-.76.28,0,.62-.3.76h0c-.34.14-.45-1-.92-.25l-5.51-9.09C1150.28,259.64,1146.21,254.72,1146.54,254.58Z"/><path class="cls-3" d="M1146.3,255.61h0a.63.63,0,0,1,.67.58l-.25,10.19a.62.62,0,0,1-.69.55h0c-.37,0-.66-.58-.66-.58l.24-10.18C1146.21,259.57,1145.93,255.61,1146.3,255.61Z"/><path class="cls-4" d="M1249.49,142.43l-4.1,2a.76.76,0,0,1-.93-.2l-.16-.23a.52.52,0,0,1,.24-.78l4.09-2a.76.76,0,0,1,.93.2l.16.24A.51.51,0,0,1,1249.49,142.43Z"/><path class="cls-4" d="M1269.31,132c-.08,1.88-2.78,5-7.64,8.7s-11.39,3.41-12.82,1.39,1.42-6.94,7.64-8.7S1269.4,129.67,1269.31,132Z"/><line class="cls-5" x1="1248.68" y1="141.85" x2="1269.01" y2="132.15"/><polyline class="cls-5" points="1259.93 141.43 1251.88 140.41 1253.35 134.66"/><polyline class="cls-5" points="1263.37 139.21 1255.97 138.39 1256.82 133.3"/><polyline class="cls-5" points="1265.95 137.28 1260.06 136.37 1261.59 131.98"/><polyline class="cls-5" points="1267.94 135.64 1263.46 134.81 1264.74 131.28"/><path class="cls-15" d="M1317.85,165.33c-11.8-12-31.08-16.59-49-12.4a53.22,53.22,0,0,1-23.38.08c-17.27-3.9-35.87.36-47.41,11.76-9.89,9.77-16,23.94-9,35.92,12.23,20.94,19,43.59,38.49,52.39,8,3.59,17.84,2.94,26.3.23a11.39,11.39,0,0,1,6.77-.05c8.1,2.47,18,4.63,25,.48,25.63-15.12,29-34.37,39.21-54.18C1331.09,187.55,1327.4,175,1317.85,165.33Z"/><path class="cls-7" d="M1255.37,158.83h0a2.7,2.7,0,0,1-3.32-.42l-25.82-29.14c2.94,1.79-.55-2.12.5-2.77h0c1-.65,4.48,1.73,3.32.41l25.82,29.15C1257,156,1256.42,158.18,1255.37,158.83Z"/><path class="cls-8" d="M1254.27,160.69c-5.62,0-10.27-1.34-11-3.06-.11-.25.46-.47,1.15-.47h1.29c.57,0,1,.15,1.14.36.59,1,3.69,1.86,7.42,1.86s6.84-.81,7.42-1.86a1.44,1.44,0,0,1,1.15-.36h1.28c.7,0,1.26.22,1.16.47C1264.55,159.35,1259.89,160.69,1254.27,160.69Z"/><path class="cls-9" d="M1241.39,193.61c0,5.47-5.62,11.56-11.88,9.91-6.45-1.7-11.89-4.44-11.89-9.91s5.75-8,11.89-9.9C1236.64,181.44,1241.39,188.14,1241.39,193.61Z"/><path class="cls-9" d="M1297.75,193.61c0,5.47-6.79,8.78-11.88,9.91-6.34,1.41-11.88-4.44-11.88-9.91s5.54-8.49,11.88-9.9C1291,182.57,1297.75,188.14,1297.75,193.61Z"/><path class="cls-10" d="M1241.21,192a10,10,0,0,0-5.33-6.7,3.68,3.68,0,0,0-.13,5.05A5.65,5.65,0,0,0,1241.21,192Z"/><ellipse class="cls-10" cx="1223.06" cy="196.16" rx="2.04" ry="1.7"/><path class="cls-10" d="M1297.57,192a10,10,0,0,0-5.33-6.7,3.68,3.68,0,0,0-.13,5.05A5.65,5.65,0,0,0,1297.57,192Z"/><ellipse class="cls-10" cx="1278.74" cy="198.42" rx="2.04" ry="1.7"/><path class="cls-11" d="M1260.06,228.71c-15.74,0-28.55-6.08-28.55-13.56h.94c0,7.16,12.38,13,27.61,13s27.62-5.82,27.62-13h.94C1288.62,222.63,1275.81,228.71,1260.06,228.71Z"/><path class="cls-11" d="M1260.06,228.42c-17,0-26.21-5.77-30.89-13.27h0c0-.8,1-1.44,2.34-1.44h.94c1.29,0,4.21.86,2.34,1.44h0c0,6.36,11.34,11.54,25.27,11.54s25.28-5.18,25.28-11.54h0c-2.81-.58,1.05-1.44,2.34-1.44h.94c1.29,0,2.34.64,2.34,1.44h0C1286.28,222.65,1277.1,228.42,1260.06,228.42Z"/><path class="cls-3" d="M1145,255.43h0a.56.56,0,0,1,.44.71l-3.75,9.7a.7.7,0,0,1-.85.36h0c-.36-.09-.44-.71-.44-.71l3.74-9.7C1143.51,259.2,1144.61,255.33,1145,255.43Z"/><path class="cls-3" d="M1144.61,254.26h0a.5.5,0,0,1,.06.8l-8,7.7a.78.78,0,0,1-1,.05h0c-.28-.2-.07-.8-.07-.8l8-7.69C1144,254.17,1144.33,254.06,1144.61,254.26Z"/><path class="cls-14" d="M353.11,243.45l-24.69,36.31a2,2,0,0,1-2.73.58h0a2,2,0,0,1-.46-2.75l24.69-36.31"/><path class="cls-14" d="M352.85,313.55a1.93,1.93,0,0,1-2.7-.39l-25.09-33.53c2.22.63-.46-2.07.39-2.7h0a1.93,1.93,0,0,1,2.7.39l25.09,33.53a1.93,1.93,0,0,1-.39,2.7"/><path class="cls-14" d="M380.24,239.39,405.94,275a2,2,0,0,1-.38,2.77h0a2,2,0,0,1-2.75-.51l-25.7-35.59"/><path class="cls-14" d="M385.23,313.35l17.88-37.87c.48,2.26,1.6-1.38,2.56-.92h0a1.92,1.92,0,0,1,.92,2.56L388.72,315"/><rect class="cls-2" x="413.82" y="174.21" width="45.74" height="3.86" rx="1.77" transform="translate(907.22 158.3) rotate(155.86)"/><path class="cls-2" d="M454.25,166.7l-.13-40.91a2.42,2.42,0,0,1,2.41-2.42h0a2.42,2.42,0,0,1,2.42,2.41l.13,40.91c-1.17-2.89-1.08,2.42-2.41,2.42h0A2.42,2.42,0,0,1,454.25,166.7Z"/><path class="cls-2" d="M455,127.48h0a.56.56,0,0,1-.78.07l-7.59-6.39a.56.56,0,0,1-.07-.78h0c.2-.23.3,1,.78-.06L455,126.7C455.19,126.9,452.4,125.23,455,127.48Z"/><path class="cls-2" d="M455.05,126h0c-1.55-4.66-.6,0-.74-.22l-4.68-8.75a.56.56,0,0,1,.23-.75h0c.27-.14.33.1.74.23l4.68,8.75A.55.55,0,0,1,455.05,126Z"/><path class="cls-2" d="M455.22,125h0a.55.55,0,0,1-.55-.55l0-9.92a.55.55,0,0,1,.55-.55h0c.52,1.31.55.25.55.55l0,9.92A.55.55,0,0,1,455.22,125Z"/><path class="cls-2" d="M455.52,124.82h0c-.23-.2-.37-.14-.07-.78l6.39-7.59c-.07,1.06.54-.26.77-.07h0a.55.55,0,0,1,.07.78l-6.38,7.59A.56.56,0,0,1,455.52,124.82Z"/><path class="cls-2" d="M465.34,122h0a.56.56,0,0,1-.32.71l-9.29,3.5c-.28.1,7.14-4.8-.71-.33h0a.55.55,0,0,1,.32-.71l9.29-3.49C465.07,122.47,465.23,121.68,465.34,122Z"/><path class="cls-3" d="M272.37,202.65l35.64-22a1.94,1.94,0,0,1,2.66.62h0a2,2,0,0,1-.63,2.66l-35.64,22c.83-2.16-2.1.27-2.65-.63h0A1.93,1.93,0,0,1,272.37,202.65Z"/><path class="cls-3" d="M275.77,204.36l-.83,41.88a1.94,1.94,0,0,1-2,1.89h0a1.94,1.94,0,0,1-1.89-2l.83-41.88c-1.65.25.91-1.91,2-1.89h0C273.61,202.39,274.66,204.61,275.77,204.36Z"/><path class="cls-3" d="M273.53,244h0a.56.56,0,0,1,.78,0l7.44,6.55a.55.55,0,0,1,.05.78h0c-.2.23-.89-.82-.78.05l-7.44-6.56A.55.55,0,0,1,273.53,244Z"/><path class="cls-3" d="M273.47,245.47h0a.55.55,0,0,1,.74.24l4.47,8.86c-.61.27,0,.6-.24.74h0c-.27.14-.36-1-.74-.24l-4.47-8.86C276.51,250.4,273.2,245.61,273.47,245.47Z"/><path class="cls-3" d="M273.28,246.48h0a.56.56,0,0,1,.54.56l-.2,9.92a.56.56,0,0,1-.56.54h0c-.31,0-.54-.56-.54-.56l.2-9.92C273.2,250.34,273,246.47,273.28,246.48Z"/><rect class="cls-4" x="352.53" y="136.01" width="4.96" height="1.37" rx="0.63" transform="translate(-20.13 199.83) rotate(-30.61)"/><path class="cls-4" d="M373.1,126.15c-.06,1.83-2.25,4.86-6.19,8.47s-9.24,3.32-10.41,1.36,1.15-6.76,6.2-8.47S373.18,123.87,373.1,126.15Z"/><line class="cls-5" x1="356.36" y1="135.74" x2="372.87" y2="126.29"/><polyline class="cls-5" points="365.5 135.33 358.96 134.33 360.15 128.74"/><polyline class="cls-5" points="368.29 133.16 362.28 132.36 362.97 127.41"/><polyline class="cls-5" points="370.38 131.29 365.6 130.4 366.84 126.12"/><polyline class="cls-5" points="372 129.69 368.36 128.88 369.4 125.44"/><path class="cls-15" d="M412.5,158.6a38,38,0,0,0-39.74-12.08,36.38,36.38,0,0,1-19,.08c-14-3.8-29.1.35-38.47,11.45-8,9.5-13,23.3-7.3,35,9.92,20.39,15.43,42.44,31.24,51,6.46,3.5,14.48,2.87,21.34.23a7.72,7.72,0,0,1,5.49-.05c6.58,2.41,14.61,4.51,20.33.46,20.8-14.72,23.56-33.45,31.82-52.74C423.24,180.22,420.25,168,412.5,158.6Z"/><path class="cls-7" d="M361.8,152.26h0a1.94,1.94,0,0,1-2.7-.4l-21-28.37c2.39,1.74-.44-2.07.41-2.7h0c.85-.63,3.63,1.68,2.7.4l20.95,28.37C363.12,149.48,362.65,151.63,361.8,152.26Z"/><path class="cls-8" d="M360.9,154.07c-4.56,0-8.34-1.3-8.93-3-.08-.24.38-.46.94-.46h1c.46,0,.84.15.93.35.47,1,3,1.82,6,1.82s5.55-.79,6-1.81c.09-.2.46-.35.93-.35h1c.56,0,1,.21.93.46C369.24,152.77,365.46,154.07,360.9,154.07Z"/><path class="cls-9" d="M350.45,186.12c0,5.33-4.57,11.25-9.65,9.65-5.23-1.66-9.64-4.32-9.64-9.65s4.67-7.74,9.64-9.64C346.59,174.28,350.45,180.8,350.45,186.12Z"/><path class="cls-9" d="M396.19,186.12c0,5.33-5.51,8.55-9.65,9.65-5.14,1.37-9.64-4.32-9.64-9.65s4.5-8.27,9.64-9.64C390.68,175.38,396.19,180.8,396.19,186.12Z"/><path class="cls-10" d="M350.3,184.51A9.62,9.62,0,0,0,346,178a4.13,4.13,0,0,0,4.33,6.52Z"/><circle class="cls-10" cx="335.57" cy="188.6" r="1.65"/><path class="cls-10" d="M396,184.51a9.62,9.62,0,0,0-4.33-6.52,4.13,4.13,0,0,0,4.33,6.52Z"/><circle class="cls-10" cx="380.76" cy="190.81" r="1.65"/><path class="cls-11" d="M365.6,220.29c-12.78,0-23.17-5.92-23.17-13.2h.76c0,7,10.05,12.64,22.41,12.64S388,214.06,388,207.09h.76C388.78,214.37,378.38,220.29,365.6,220.29Z"/><path class="cls-11" d="M365.6,220c-13.82,0-21.27-5.62-25.07-12.92h0c0-.77.85-1.4,1.9-1.4h.76c1.05,0,3.42.84,1.9,1.4h0c0,6.2,9.2,11.23,20.51,11.23s20.52-5,20.52-11.23h0c-2.28-.56.85-1.4,1.9-1.4h.76c1.05,0,1.9.63,1.9,1.4h0C386.88,214.39,379.43,220,365.6,220Z"/><path class="cls-3" d="M272.19,246.3h0a.55.55,0,0,1,.36.69l-3,9.44a.55.55,0,0,1-.69.36h0c-.29-.09-.36-.69-.36-.69l3-9.45C271,250,271.9,246.21,272.19,246.3Z"/><path class="cls-3" d="M271.9,245.17h0a.54.54,0,0,1,.06.77l-6.51,7.49a.55.55,0,0,1-.78.06h0c-.22-.2-.05-.78-.05-.78l6.5-7.49C271.41,245.08,271.67,245,271.9,245.17Z"/><polygon class="cls-16" points="1599 144.5 1599 136.12 1588.77 80.84 1599 104.04 1599 83.57 1597.19 77.7 1599 80.78 1599 1 1427.48 1 1488.73 7.64 1411.8 17.26 1489.33 16.6 1414.04 35.09 1490.96 25.44 1418.32 52.54 1493.61 34.02 1424.61 69.38 1497.24 42.25 1432.81 85.37 1501.79 49.99 1442.81 100.3 1507.22 57.15 1454.47 113.97 1513.44 63.64 1467.64 126.2 1520.37 69.36 1482.15 136.81 1527.92 74.23 1497.78 145.67 1535.98 78.2 1514.34 152.65 1544.45 81.2 1531.6 157.66 1553.21 83.2 1549.32 160.64 1562.14 84.17 1567.27 161.53 1571.13 84.1 1585.2 160.34 1580.04 82.98 1599 144.5"/><path class="cls-14" d="M801.67,233.5l-30.42,37.3a2.75,2.75,0,0,1-3.36.6h0a1.83,1.83,0,0,1-.57-2.83l30.42-37.29"/><path class="cls-14" d="M801.35,305.51a2.71,2.71,0,0,1-3.32-.4l-30.92-34.45c2.74.65-.57-2.12.48-2.77h0a2.72,2.72,0,0,1,3.33.4l30.91,34.45a1.78,1.78,0,0,1-.48,2.77"/><path class="cls-14" d="M835.1,229.33l31.67,36.56a1.83,1.83,0,0,1-.47,2.85h0a2.78,2.78,0,0,1-3.39-.53l-31.67-36.56"/><path class="cls-14" d="M841.25,305.31l22-38.91c.59,2.32,2-1.41,3.16-.95h0a1.86,1.86,0,0,1,1.13,2.64l-22,38.91"/><path class="cls-2" d="M929.6,157.21l-47.94,17.91a2.09,2.09,0,0,1-2.53-.8l-.38-.71a1.5,1.5,0,0,1,1-2.1l47.94-17.91a2.09,2.09,0,0,1,2.53.8l.38.7A1.5,1.5,0,0,1,929.6,157.21Z"/><path class="cls-2" d="M926.29,154.66l-.15-42a2.76,2.76,0,0,1,3-2.49h0a2.77,2.77,0,0,1,3,2.47l.15,42c-1.44-3-1.33,2.48-3,2.48h0A2.76,2.76,0,0,1,926.29,154.66Z"/><path class="cls-2" d="M927.25,114.37h0a.77.77,0,0,1-1,.07l-9.36-6.56a.51.51,0,0,1-.08-.8h0c.24-.24.36,1,1-.07l9.35,6.56C927.46,113.77,924,112.06,927.25,114.37Z"/><path class="cls-2" d="M927.29,112.88h0c-1.92-4.78-.75.05-.92-.23l-5.77-9a.53.53,0,0,1,.28-.77h0c.33-.15.42.1.92.23l5.76,9A.52.52,0,0,1,927.29,112.88Z"/><path class="cls-2" d="M927.49,111.85h0a.64.64,0,0,1-.68-.57l0-10.19a.62.62,0,0,1,.67-.57h0c.64,1.35.68.26.68.57l0,10.19A.63.63,0,0,1,927.49,111.85Z"/><path class="cls-2" d="M927.86,111.64h0c-.29-.2-.45-.15-.08-.8l7.87-7.8c-.09,1.09.67-.27,1-.07h0a.51.51,0,0,1,.08.8l-7.86,7.8A.78.78,0,0,1,927.86,111.64Z"/><path class="cls-2" d="M940,108.71h0a.55.55,0,0,1-.4.73L928.12,113c-.35.11,8.8-4.92-.88-.33h0a.55.55,0,0,1,.4-.73l11.44-3.58C939.63,109.23,939.83,108.41,940,108.71Z"/><path class="cls-3" d="M702.19,191.59,746.1,169a2.67,2.67,0,0,1,3.27.65h0a1.81,1.81,0,0,1-.77,2.73L704.69,195c1-2.22-2.59.28-3.27-.65h0A1.8,1.8,0,0,1,702.19,191.59Z"/><path class="cls-3" d="M706.37,193.35l-1,43a2.23,2.23,0,0,1-2.43,1.94h0a2.2,2.2,0,0,1-2.33-2l1-43c-2,.25,1.12-2,2.43-1.94h0C703.71,191.32,705,193.61,706.37,193.35Z"/><path class="cls-3" d="M703.61,234.09h0a.78.78,0,0,1,1-.05l9.17,6.74a.5.5,0,0,1,.06.8h0c-.25.23-1.09-.85-1,0l-9.17-6.74A.51.51,0,0,1,703.61,234.09Z"/><path class="cls-3" d="M703.54,235.58h0a.75.75,0,0,1,.91.25l5.52,9.09c-.76.28,0,.62-.3.76h0c-.34.14-.45-1-.92-.25l-5.51-9.09C707.28,240.64,703.21,235.72,703.54,235.58Z"/><path class="cls-3" d="M703.3,236.61h0a.63.63,0,0,1,.67.58l-.25,10.19a.62.62,0,0,1-.69.55h0c-.37,0-.66-.58-.66-.58l.24-10.18C703.21,240.57,702.93,236.61,703.3,236.61Z"/><path class="cls-4" d="M806.49,123.43l-4.1,2a.76.76,0,0,1-.93-.2l-.16-.23a.52.52,0,0,1,.24-.78l4.09-2a.76.76,0,0,1,.93.2l.16.24A.51.51,0,0,1,806.49,123.43Z"/><path class="cls-4" d="M826.31,113c-.08,1.88-2.78,5-7.64,8.7s-11.39,3.41-12.82,1.39,1.42-6.94,7.64-8.7S826.4,110.67,826.31,113Z"/><line class="cls-5" x1="805.68" y1="122.85" x2="826.01" y2="113.15"/><polyline class="cls-5" points="816.93 122.43 808.88 121.41 810.35 115.66"/><polyline class="cls-5" points="820.37 120.21 812.97 119.39 813.82 114.3"/><polyline class="cls-5" points="822.95 118.28 817.06 117.37 818.59 112.98"/><polyline class="cls-5" points="824.94 116.64 820.46 115.81 821.74 112.28"/><path class="cls-15" d="M874.85,146.33c-11.8-12-31.08-16.59-49-12.4a53.22,53.22,0,0,1-23.38.08c-17.27-3.9-35.87.36-47.41,11.76-9.89,9.77-16,23.94-9,35.92,12.23,20.94,19,43.59,38.49,52.39,8,3.59,17.84,2.94,26.3.23a11.39,11.39,0,0,1,6.77-.05c8.1,2.47,18,4.63,25,.48,25.63-15.12,29-34.37,39.21-54.18C888.09,168.55,884.4,156,874.85,146.33Z"/><path class="cls-7" d="M812.37,139.83h0a2.7,2.7,0,0,1-3.32-.42l-25.82-29.14c2.94,1.79-.55-2.12.5-2.77h0c1-.65,4.48,1.73,3.32.41l25.82,29.15C814,137,813.42,139.18,812.37,139.83Z"/><path class="cls-8" d="M811.27,141.69c-5.62,0-10.27-1.34-11-3.06-.11-.25.46-.47,1.15-.47h1.29c.57,0,1,.15,1.14.36.59,1,3.69,1.86,7.42,1.86s6.84-.81,7.42-1.86a1.44,1.44,0,0,1,1.15-.36h1.28c.7,0,1.26.22,1.16.47C821.55,140.35,816.89,141.69,811.27,141.69Z"/><path class="cls-9" d="M798.39,174.61c0,5.47-5.62,11.56-11.88,9.91-6.45-1.7-11.89-4.44-11.89-9.91s5.75-8,11.89-9.9C793.64,162.44,798.39,169.14,798.39,174.61Z"/><path class="cls-9" d="M854.75,174.61c0,5.47-6.79,8.78-11.88,9.91-6.34,1.41-11.88-4.44-11.88-9.91s5.54-8.49,11.88-9.9C848,163.57,854.75,169.14,854.75,174.61Z"/><path class="cls-10" d="M798.21,173a10,10,0,0,0-5.33-6.7,3.68,3.68,0,0,0-.13,5.05A5.65,5.65,0,0,0,798.21,173Z"/><ellipse class="cls-10" cx="780.06" cy="177.16" rx="2.04" ry="1.7"/><path class="cls-10" d="M854.57,173a10,10,0,0,0-5.33-6.7,3.68,3.68,0,0,0-.13,5.05A5.65,5.65,0,0,0,854.57,173Z"/><ellipse class="cls-10" cx="835.74" cy="179.42" rx="2.04" ry="1.7"/><path class="cls-11" d="M817.06,209.71c-15.74,0-28.55-6.08-28.55-13.56h.94c0,7.16,12.38,13,27.61,13s27.62-5.82,27.62-13h.94C845.62,203.63,832.81,209.71,817.06,209.71Z"/><path class="cls-11" d="M817.06,209.42c-17,0-26.21-5.77-30.89-13.27h0c0-.8,1.05-1.44,2.34-1.44h.94c1.29,0,4.21.86,2.34,1.44h0c0,6.36,11.34,11.54,25.27,11.54s25.28-5.18,25.28-11.54h0c-2.81-.58,1-1.44,2.34-1.44h.94c1.29,0,2.34.64,2.34,1.44h0C843.28,203.65,834.1,209.42,817.06,209.42Z"/><path class="cls-3" d="M702,236.43h0a.56.56,0,0,1,.44.71l-3.75,9.7a.7.7,0,0,1-.85.36h0c-.36-.09-.44-.71-.44-.71l3.74-9.7C700.51,240.2,701.61,236.33,702,236.43Z"/><path class="cls-3" d="M701.61,235.26h0a.5.5,0,0,1,.06.8l-8,7.7a.78.78,0,0,1-1,.05h0c-.28-.2-.07-.8-.07-.8l8-7.69C701,235.17,701.33,235.06,701.61,235.26Z"/><path class="cls-14" d="M548,265.81l-22.43,27.5a2,2,0,0,1-2.48.44h0a1.35,1.35,0,0,1-.42-2.09l22.43-27.49"/><path class="cls-14" d="M547.77,318.9a2,2,0,0,1-2.45-.29l-22.79-25.4c2,.48-.42-1.57.35-2h0a2,2,0,0,1,2.45.3l22.8,25.4a1.31,1.31,0,0,1-.36,2"/><path class="cls-14" d="M572.65,262.73l23.36,27a1.35,1.35,0,0,1-.35,2.1h0a2.05,2.05,0,0,1-2.5-.39l-23.35-27"/><path class="cls-14" d="M577.19,318.75l16.24-28.68c.44,1.71,1.46-1.05,2.33-.7h0a1.37,1.37,0,0,1,.84,1.94L580.36,320"/><path class="cls-2" d="M642.33,209.56,607,222.77a1.55,1.55,0,0,1-1.86-.6l-.28-.52a1.1,1.1,0,0,1,.71-1.55l35.35-13.21a1.55,1.55,0,0,1,1.86.6l.28.52A1.1,1.1,0,0,1,642.33,209.56Z"/><path class="cls-2" d="M639.89,207.68l-.11-31a2,2,0,0,1,2.19-1.83h0a2.05,2.05,0,0,1,2.2,1.82l.11,31c-1.06-2.19-1,1.83-2.19,1.83h0A2,2,0,0,1,639.89,207.68Z"/><path class="cls-2" d="M640.6,178h0a.56.56,0,0,1-.7.05l-6.9-4.83a.37.37,0,0,1-.06-.59h0c.18-.18.27.75.7,0l6.9,4.83C640.75,177.53,638.21,176.27,640.6,178Z"/><path class="cls-2" d="M640.63,176.88h0c-1.42-3.53-.55,0-.68-.18l-4.25-6.62a.39.39,0,0,1,.2-.57h0c.25-.1.31.08.68.18l4.25,6.62A.39.39,0,0,1,640.63,176.88Z"/><path class="cls-2" d="M640.78,176.11h0a.46.46,0,0,1-.5-.42l0-7.51a.46.46,0,0,1,.5-.42h0c.47,1,.5.19.5.42l0,7.51A.47.47,0,0,1,640.78,176.11Z"/><path class="cls-2" d="M641.05,176h0c-.21-.15-.33-.11-.06-.59l5.8-5.75c-.07.8.49-.2.7-.05h0a.37.37,0,0,1,.07.59l-5.81,5.75A.58.58,0,0,1,641.05,176Z"/><path class="cls-2" d="M650,173.8h0a.4.4,0,0,1-.29.53L641.24,177c-.26.08,6.49-3.63-.64-.25h0a.39.39,0,0,1,.29-.53l8.43-2.65C649.73,174.18,649.87,173.58,650,173.8Z"/><path class="cls-3" d="M474.66,234.9,507,218.24a2,2,0,0,1,2.41.48h0a1.34,1.34,0,0,1-.57,2L476.5,237.39c.75-1.63-1.91.21-2.41-.48h0A1.33,1.33,0,0,1,474.66,234.9Z"/><path class="cls-3" d="M477.74,236.2,477,267.92a1.65,1.65,0,0,1-1.79,1.43h0a1.63,1.63,0,0,1-1.72-1.49l.76-31.72c-1.51.19.82-1.44,1.79-1.43h0C475.78,234.71,476.74,236.39,477.74,236.2Z"/><path class="cls-3" d="M475.71,266.24h0a.56.56,0,0,1,.7,0l6.77,5a.38.38,0,0,1,0,.59h0c-.18.17-.8-.62-.71,0l-6.76-5A.38.38,0,0,1,475.71,266.24Z"/><path class="cls-3" d="M475.65,267.34h0a.57.57,0,0,1,.68.18l4.06,6.71c-.55.21,0,.46-.22.56h0c-.24.1-.32-.77-.67-.18l-4.07-6.71C478.41,271.07,475.41,267.44,475.65,267.34Z"/><path class="cls-3" d="M475.48,268.1h0a.47.47,0,0,1,.49.43l-.18,7.51a.47.47,0,0,1-.51.41h0c-.28,0-.49-.43-.49-.43l.18-7.51C475.41,271,475.2,268.1,475.48,268.1Z"/><path class="cls-4" d="M551.56,184.65l-3,1.49a.55.55,0,0,1-.68-.15l-.13-.17a.38.38,0,0,1,.18-.57l3-1.49a.56.56,0,0,1,.69.15l.12.17A.38.38,0,0,1,551.56,184.65Z"/><path class="cls-4" d="M566.17,177c0,1.38-2,3.67-5.63,6.41s-8.39,2.51-9.45,1,1-5.12,5.63-6.42S566.24,175.24,566.17,177Z"/><line class="cls-5" x1="550.96" y1="184.23" x2="565.96" y2="177.07"/><polyline class="cls-5" points="559.26 183.92 553.32 183.16 554.41 178.93"/><polyline class="cls-5" points="561.8 182.28 556.34 181.67 556.97 177.92"/><polyline class="cls-5" points="563.7 180.86 559.36 180.18 560.48 176.94"/><polyline class="cls-5" points="565.16 179.65 561.86 179.03 562.8 176.43"/><path class="cls-15" d="M602,201.54c-8.7-8.82-22.91-12.23-36.1-9.15a38.32,38.32,0,0,1-8.75,1,39,39,0,0,1-8.49-.92c-12.74-2.88-26.44.26-35,8.66-7.29,7.2-11.78,17.66-6.62,26.49,9,15.44,14,32.14,28.37,38.62,5.87,2.65,13.16,2.18,19.39.17a8.62,8.62,0,0,1,2.56-.39,8.23,8.23,0,0,1,2.44.36c6,1.82,13.27,3.41,18.46.35,18.9-11.15,21.4-25.34,28.91-40C611.72,217.92,609,208.67,602,201.54Z"/><path class="cls-7" d="M555.9,196.74h0a2,2,0,0,1-2.45-.3l-19-21.49c2.17,1.32-.41-1.57.37-2h0c.77-.47,3.3,1.28,2.45.31l19,21.49C557.11,194.63,556.67,196.26,555.9,196.74Z"/><path class="cls-8" d="M555.09,198.11c-4.14,0-7.58-1-8.11-2.25-.08-.19.33-.35.84-.35h.95a1.09,1.09,0,0,1,.85.26c.43.78,2.72,1.38,5.47,1.38s5-.6,5.47-1.37c.08-.16.42-.27.85-.27h.94c.51,0,.93.16.85.35C562.66,197.13,559.23,198.11,555.09,198.11Z"/><path class="cls-9" d="M545.59,222.39c0,4-4.15,8.52-8.76,7.3s-8.76-3.27-8.76-7.3,4.24-5.87,8.76-7.31C542.09,213.41,545.59,218.35,545.59,222.39Z"/><path class="cls-9" d="M587.15,222.39c0,4-5,6.47-8.77,7.3-4.67,1-8.76-3.27-8.76-7.3s4.09-6.27,8.76-7.31C582.14,214.25,587.15,218.35,587.15,222.39Z"/><path class="cls-10" d="M545.46,221.17a7.4,7.4,0,0,0-3.93-4.94,2.71,2.71,0,0,0-.1,3.72A4.15,4.15,0,0,0,545.46,221.17Z"/><ellipse class="cls-10" cx="532.07" cy="224.27" rx="1.5" ry="1.25"/><path class="cls-10" d="M587,221.17a7.37,7.37,0,0,0-3.93-4.94A2.73,2.73,0,0,0,583,220,4.16,4.16,0,0,0,587,221.17Z"/><ellipse class="cls-10" cx="573.13" cy="225.94" rx="1.5" ry="1.25"/><path class="cls-11" d="M559.36,248.27c-11.61,0-21.06-4.49-21.06-10H539c0,5.28,9.14,9.57,20.37,9.57s20.36-4.29,20.36-9.57h.69C580.41,243.78,571,248.27,559.36,248.27Z"/><path class="cls-11" d="M559.36,248.05c-12.56,0-19.33-4.25-22.78-9.78h0c0-.59.77-1.06,1.72-1.06H539c1,0,3.11.63,1.73,1.06h0c0,4.69,8.36,8.51,18.64,8.51S578,243,578,238.27h0c-2.07-.43.77-1.06,1.72-1.06h.69c1,0,1.73.47,1.73,1.06h0C578.69,243.8,571.92,248.05,559.36,248.05Z"/><path class="cls-3" d="M474.49,268h0a.41.41,0,0,1,.33.52l-2.76,7.15a.53.53,0,0,1-.63.27h0c-.26-.07-.32-.52-.32-.52l2.75-7.16C473.42,270.75,474.23,267.89,474.49,268Z"/><path class="cls-3" d="M474.23,267.11h0a.37.37,0,0,1,0,.59l-5.91,5.67a.58.58,0,0,1-.71,0h0c-.2-.15-.05-.59-.05-.59l5.91-5.67C473.78,267,474,267,474.23,267.11Z"/><path class="cls-14" d="M994.8,266.52l-17.08,25.11a1.37,1.37,0,0,1-1.89.4h0a1.36,1.36,0,0,1-.31-1.9L992.59,265"/><path class="cls-14" d="M994.62,315a1.34,1.34,0,0,1-1.87-.27L975.4,291.54c1.53.44-.32-1.43.27-1.87h0a1.33,1.33,0,0,1,1.86.27l17.35,23.19a1.35,1.35,0,0,1-.26,1.87"/><path class="cls-14" d="M1013.55,263.71l17.78,24.62a1.37,1.37,0,0,1-.26,1.91h0a1.37,1.37,0,0,1-1.9-.35l-17.78-24.61"/><path class="cls-14" d="M1017,314.86l12.36-26.19c.33,1.56,1.11-.95,1.77-.64h0a1.34,1.34,0,0,1,.64,1.78L1019.42,316"/><rect class="cls-2" x="1036.78" y="218.64" width="31.63" height="2.67" rx="1.33" transform="translate(2103.1 -9.75) rotate(155.86)"/><path class="cls-2" d="M1064.73,213.44l-.08-28.29a1.68,1.68,0,0,1,1.67-1.67h0a1.68,1.68,0,0,1,1.67,1.66l.09,28.29c-.81-2-.75,1.68-1.67,1.68h0A1.69,1.69,0,0,1,1064.73,213.44Z"/><path class="cls-2" d="M1065.28,186.32h0a.39.39,0,0,1-.54.05l-5.25-4.42a.38.38,0,0,1,0-.53h0c.14-.16.21.68.54,0l5.25,4.42C1065.39,185.92,1063.46,184.76,1065.28,186.32Z"/><path class="cls-2" d="M1065.29,185.32h0c-1.07-3.22-.41,0-.51-.16l-3.24-6a.38.38,0,0,1,.16-.51h0c.18-.1.23.07.52.16l3.23,6.05A.37.37,0,0,1,1065.29,185.32Z"/><path class="cls-2" d="M1065.41,184.62h0a.38.38,0,0,1-.38-.38l0-6.86a.38.38,0,0,1,.38-.38h0c.35.91.38.17.38.38l0,6.86A.38.38,0,0,1,1065.41,184.62Z"/><path class="cls-2" d="M1065.62,184.48h0c-.17-.13-.26-.1,0-.54l4.42-5.24c0,.73.37-.19.53,0h0a.39.39,0,0,1,0,.54l-4.42,5.25A.37.37,0,0,1,1065.62,184.48Z"/><path class="cls-2" d="M1072.4,182.51h0a.37.37,0,0,1-.22.49l-6.42,2.41c-.19.08,4.94-3.31-.49-.22h0a.39.39,0,0,1,.22-.49l6.42-2.41C1072.22,182.86,1072.33,182.31,1072.4,182.51Z"/><path class="cls-3" d="M939,238.3l24.65-15.21a1.33,1.33,0,0,1,1.83.43h0a1.34,1.34,0,0,1-.43,1.84l-24.65,15.21c.58-1.49-1.45.19-1.83-.43h0A1.34,1.34,0,0,1,939,238.3Z"/><path class="cls-3" d="M941.31,239.49l-.58,29a1.32,1.32,0,0,1-1.36,1.3h0a1.32,1.32,0,0,1-1.3-1.36l.57-28.95c-1.14.16.63-1.33,1.36-1.31h0C939.81,238.12,940.55,239.66,941.31,239.49Z"/><path class="cls-3" d="M939.76,266.92h0a.38.38,0,0,1,.54,0l5.15,4.54a.39.39,0,0,1,0,.54h0c-.14.15-.61-.57-.54,0l-5.14-4.53A.38.38,0,0,1,939.76,266.92Z"/><path class="cls-3" d="M939.72,267.92h0a.37.37,0,0,1,.51.17l3.1,6.12c-.43.19,0,.42-.17.51h0c-.19.1-.25-.7-.51-.17l-3.1-6.12C941.82,271.33,939.53,268,939.72,267.92Z"/><path class="cls-3" d="M939.59,268.61h0a.38.38,0,0,1,.37.39l-.14,6.86a.37.37,0,0,1-.38.37h0c-.21,0-.38-.38-.38-.38l.14-6.86C939.53,271.28,939.38,268.61,939.59,268.61Z"/><rect class="cls-4" x="994.39" y="192.22" width="3.43" height="0.95" rx="0.47" transform="translate(40.7 534.09) rotate(-30.61)"/><path class="cls-4" d="M1008.62,185.4c0,1.27-1.56,3.36-4.28,5.86s-6.39,2.3-7.2.94.8-4.68,4.29-5.86S1008.67,183.83,1008.62,185.4Z"/><line class="cls-5" x1="997.04" y1="192.03" x2="1008.46" y2="185.5"/><polyline class="cls-5" points="1003.36 191.75 998.84 191.06 999.66 187.19"/><polyline class="cls-5" points="1005.29 190.25 1001.14 189.7 1001.62 186.28"/><polyline class="cls-5" points="1006.74 188.96 1003.43 188.34 1004.29 185.38"/><polyline class="cls-5" points="1007.86 187.85 1005.34 187.29 1006.06 184.91"/><path class="cls-15" d="M1035.87,207.84a26.29,26.29,0,0,0-27.49-8.35,24.69,24.69,0,0,1-6.66.9,25,25,0,0,1-6.46-.84,25.82,25.82,0,0,0-26.61,7.91c-5.55,6.58-9,16.12-5,24.18,6.86,14.1,10.67,29.34,21.6,35.27,4.47,2.42,10,2,14.76.15a5.41,5.41,0,0,1,3.8,0c4.54,1.67,10.1,3.12,14.05.32,14.39-10.18,16.29-23.13,22-36.47C1043.29,222.79,1041.22,214.35,1035.87,207.84Z"/><path class="cls-7" d="M1000.8,203.46h0a1.33,1.33,0,0,1-1.86-.28l-14.49-19.62c1.64,1.2-.31-1.43.28-1.86h0c.59-.44,2.51,1.16,1.86.28l14.49,19.61C1001.72,201.53,1001.39,203,1000.8,203.46Z"/><path class="cls-8" d="M1000.18,204.71c-3.15,0-5.76-.9-6.17-2.06-.06-.17.26-.32.65-.32h.72a.73.73,0,0,1,.64.25c.33.71,2.07,1.25,4.16,1.25s3.84-.54,4.17-1.25c.06-.14.32-.24.64-.24h.72c.39,0,.71.14.65.31C1006,203.81,1003.34,204.71,1000.18,204.71Z"/><path class="cls-9" d="M993,226.88c0,3.68-3.15,7.77-6.67,6.67s-6.66-3-6.66-6.67,3.22-5.36,6.66-6.67C990.29,218.68,993,223.19,993,226.88Z"/><path class="cls-9" d="M1024.59,226.88c0,3.68-3.82,5.9-6.67,6.67-3.56.94-6.67-3-6.67-6.67s3.11-5.72,6.67-6.67C1020.77,219.45,1024.59,223.19,1024.59,226.88Z"/><path class="cls-10" d="M992.85,225.76a6.68,6.68,0,0,0-3-4.51,2.86,2.86,0,0,0,3,4.51Z"/><circle class="cls-10" cx="982.66" cy="228.59" r="1.14"/><path class="cls-10" d="M1024.48,225.76a6.65,6.65,0,0,0-3-4.51,2.86,2.86,0,0,0,3,4.51Z"/><circle class="cls-10" cx="1013.91" cy="230.12" r="1.14"/><path class="cls-11" d="M1003.43,250.5c-8.83,0-16-4.09-16-9.12h.52c0,4.82,7,8.74,15.5,8.74s15.51-3.92,15.51-8.74h.52C1019.46,246.41,1012.27,250.5,1003.43,250.5Z"/><path class="cls-11" d="M1003.43,250.31c-9.56,0-14.71-3.88-17.34-8.93h0c0-.54.59-1,1.32-1h.52c.73,0,2.37.58,1.32,1h0c0,4.28,6.36,7.77,14.18,7.77s14.19-3.49,14.19-7.77h0c-1.57-.39.59-1,1.32-1h.52c.73,0,1.31.43,1.31,1h0C1018.15,246.43,1013,250.31,1003.43,250.31Z"/><path class="cls-3" d="M938.84,268.49h0a.37.37,0,0,1,.24.48L937,275.5a.39.39,0,0,1-.48.25h0c-.2-.07-.24-.48-.24-.48l2.1-6.53C938,271,938.64,268.43,938.84,268.49Z"/><path class="cls-3" d="M938.64,267.71h0a.38.38,0,0,1,0,.53l-4.49,5.18a.38.38,0,0,1-.54,0h0c-.16-.14,0-.54,0-.54l4.5-5.18C938.29,267.64,938.48,267.57,938.64,267.71Z"/><path class="cls-17" d="M320.5,370.34a26.84,26.84,0,1,1,26.84-26.84A26.87,26.87,0,0,1,320.5,370.34Zm0-45.55a18.71,18.71,0,1,0,18.71,18.71A18.73,18.73,0,0,0,320.5,324.79Z"/><rect class="cls-18" x="317.25" y="305" width="5.96" height="13.01" rx="2.98"/><rect class="cls-18" x="340.56" y="315.3" width="5.96" height="13.01" rx="2.98" transform="translate(345.48 -148.91) rotate(47.11)"/><rect class="cls-18" x="349.51" y="337.26" width="5.96" height="13.01" rx="2.98" transform="translate(696.26 -8.72) rotate(90)"/><rect class="cls-18" x="341.65" y="357.06" width="5.96" height="13.01" rx="2.98" transform="translate(845.4 376.95) rotate(135)"/><rect class="cls-18" x="318.87" y="368.99" width="5.96" height="13.01" rx="2.98"/><rect class="cls-18" x="295.56" y="359.77" width="5.96" height="13.01" rx="2.98" transform="translate(268.43 837.84) rotate(-137.16)"/><rect class="cls-18" x="285.52" y="338.89" width="5.96" height="13.01" rx="2.98" transform="translate(-56.89 633.9) rotate(-90)"/><rect class="cls-18" x="293.39" y="316.39" width="5.96" height="13.01" rx="2.98" transform="translate(-141.52 304.14) rotate(-45)"/><polygon class="cls-16" points="571.77 818.65 532.5 798.68 493.77 819.71 500.63 776.18 468.66 745.86 512.18 738.93 531.14 699.15 551.18 738.4 594.87 744.14 563.74 775.33 571.77 818.65"/><polygon class="cls-16" points="716.77 819.65 677.5 799.68 638.77 820.71 645.63 777.18 613.66 746.86 657.18 739.93 676.14 700.15 696.18 739.4 739.87 745.14 708.74 776.33 716.77 819.65"/><polygon class="cls-16" points="856.77 819.65 817.5 799.68 778.77 820.71 785.63 777.18 753.66 746.86 797.18 739.93 816.14 700.15 836.18 739.4 879.87 745.14 848.74 776.33 856.77 819.65"/><polygon class="cls-16" points="990.77 818.65 951.5 798.68 912.77 819.71 919.63 776.18 887.66 745.86 931.18 738.93 950.14 699.15 970.18 738.4 1013.87 744.14 982.74 775.33 990.77 818.65"/><polygon class="cls-16" points="1124.78 818.65 1085.5 798.68 1046.77 819.71 1053.63 776.18 1021.66 745.86 1065.18 738.93 1084.14 699.15 1104.18 738.4 1147.87 744.14 1116.74 775.33 1124.78 818.65"/><rect class="cls-12" x="1071.21" y="424" width="345.3" height="98" rx="49"/><path class="cls-10" d="M1113.11,478.12a9.61,9.61,0,0,1-1.55,5.52,11.54,11.54,0,0,1-4.23,3.69,21.93,21.93,0,0,1-6.26,2.07,42.63,42.63,0,0,1-7.72.66v7.47H1079.6V466.18h13.75a42.63,42.63,0,0,1,7.72.66,21.93,21.93,0,0,1,6.26,2.07,11.54,11.54,0,0,1,4.23,3.69A9.61,9.61,0,0,1,1113.11,478.12Zm-6.27,0a6.62,6.62,0,0,0-1-3.67,7.49,7.49,0,0,0-2.8-2.53,14.78,14.78,0,0,0-4.3-1.48,27.59,27.59,0,0,0-5.39-.5h-7.29v23.83h1.67V486.3h5.62a27.59,27.59,0,0,0,5.39-.5,14.78,14.78,0,0,0,4.3-1.48,7.49,7.49,0,0,0,2.8-2.53A6.62,6.62,0,0,0,1106.84,478.12Zm-1.8,0a5.7,5.7,0,0,1-1,3.38,7,7,0,0,1-2.58,2.17,13.65,13.65,0,0,1-3.72,1.15,27.12,27.12,0,0,1-4.42.35h-5.62v-14.1h5.62a27.12,27.12,0,0,1,4.42.35,13.65,13.65,0,0,1,3.72,1.15,7,7,0,0,1,2.58,2.17A5.72,5.72,0,0,1,1105,478.12Zm-11.69,3.48h.58a6.52,6.52,0,0,0,3.91-.92,3.35,3.35,0,0,0,0-5.12,6.52,6.52,0,0,0-3.91-.92h-.58Z"/><path class="cls-10" d="M1116.33,466.18h14.34v23.13h11.88v8.22h-26.22Zm22.6,27.59v-1.13h-14.46v-22.7h-1.68v23.83Z"/><path class="cls-10" d="M1157.59,466.18h10.33l16.33,31.35H1170.7l-1.43-2.82h-13l-1.42,2.82h-13.56Zm-6.72,27.59,1.23-2.35h21.31l1.22,2.35h1.81L1164,469.94h-2.45l-12.46,23.83Zm11.88-22.7,10.08,19.22h-20.15Zm2.91,16.73-2.91-5.5-2.9,5.5Z"/><path class="cls-10" d="M1187,484l-13.36-17.86h15.3l5,6.63,4.91-6.63h15.3L1200.72,484v13.49H1187Zm7.75,9.73V482.54l9.43-12.6h-2l-8.27,11.14-8.33-11.14h-1.93l9.36,12.6v11.23Z"/><path class="cls-10" d="M1240.74,466.18h10.33l16.34,31.35h-13.56l-1.42-2.82h-13l-1.42,2.82h-13.56ZM1234,493.77l1.23-2.35h21.3l1.23,2.35h1.81l-12.46-23.83h-2.46l-12.46,23.83Zm11.88-22.7L1256,490.29h-20.14Zm2.9,16.73-2.9-5.5-2.91,5.5Z"/><path class="cls-10" d="M1295.81,476.85a9.1,9.1,0,0,0-2.9-1.15,15,15,0,0,0-3.42-.4,11.17,11.17,0,0,0-3.42.49,8.57,8.57,0,0,0-2.68,1.37,6.25,6.25,0,0,0-1.78,2.09,5.53,5.53,0,0,0-.64,2.63,5.07,5.07,0,0,0,.71,2.63,6.5,6.5,0,0,0,1.93,2.09,9.85,9.85,0,0,0,2.88,1.37,12.06,12.06,0,0,0,3.51.49,11.4,11.4,0,0,0,4-.68,9.7,9.7,0,0,0,3.1-1.86h-3.88v-6.58h16.6v10.44a19.38,19.38,0,0,1-3.56,3.5,22.42,22.42,0,0,1-4.61,2.7,27.4,27.4,0,0,1-5.52,1.74,30.23,30.23,0,0,1-6.14.61,29.68,29.68,0,0,1-8.78-1.27,24.4,24.4,0,0,1-7.19-3.48,17.23,17.23,0,0,1-4.85-5.21,12.59,12.59,0,0,1-1.77-6.49,12.88,12.88,0,0,1,1.68-6.39,16.85,16.85,0,0,1,4.61-5.24,23,23,0,0,1,7-3.53,28.4,28.4,0,0,1,8.69-1.29,32.57,32.57,0,0,1,6.26.52,29.51,29.51,0,0,1,4.46,1.17,17.65,17.65,0,0,1,3.55,1.65Zm.65-6.06a12.44,12.44,0,0,0-1.87-.47q-.91-.19-2.13-.33a24.85,24.85,0,0,0-2.71-.14,22.3,22.3,0,0,0-6.4.89,17.4,17.4,0,0,0-5.16,2.47,11.8,11.8,0,0,0-3.45,3.78,9.68,9.68,0,0,0-1.26,4.89,9.51,9.51,0,0,0,1.29,4.89,11.91,11.91,0,0,0,3.55,3.78,18.26,18.26,0,0,0,5.26,2.47,22.24,22.24,0,0,0,6.42.89,20.51,20.51,0,0,0,8.07-1.53,16.07,16.07,0,0,0,5.88-4.06v-6.16h-6.84v1.13h5.16V488a13.9,13.9,0,0,1-5.2,3.43,18.89,18.89,0,0,1-7.07,1.27,20.53,20.53,0,0,1-5.77-.78,15.67,15.67,0,0,1-4.72-2.2,10.93,10.93,0,0,1-3.19-3.43,8.56,8.56,0,0,1-1.16-4.4,8.68,8.68,0,0,1,1.13-4.39,10.75,10.75,0,0,1,3.09-3.44,14.87,14.87,0,0,1,4.62-2.2,20.24,20.24,0,0,1,5.75-.78,16.92,16.92,0,0,1,2.19.14l1.81.28c.6.13,1.16.25,1.68.38Z"/><path class="cls-10" d="M1326.16,466.18h10.33l16.33,31.35h-13.56l-1.42-2.82h-13l-1.42,2.82h-13.56Zm-6.72,27.59,1.23-2.35H1342l1.22,2.35H1345l-12.46-23.83h-2.45l-12.46,23.83Zm11.88-22.7,10.07,19.22h-20.14Zm2.91,16.73-2.91-5.5-2.9,5.5Z"/><path class="cls-10" d="M1353.79,466.18h14.59v31.35h-14.59Zm8.14,27.59V469.94h-1.68v23.83Z"/><path class="cls-10" d="M1372.9,466.18h11.3l11.88,12.08V466.18h13.49v31.35h-11.36l-11.82-12v12H1372.9Zm7.68,27.59V472.06l21.31,21.71h1.68V469.94h-1.68v21.72l-21.31-21.72h-1.68v23.83Z"/></svg>