<svg id="Layer_1" data-name="Layer 1" xmlns="http://www.w3.org/2000/svg" viewBox="0 0 134 69.34"><defs><style>.cls-1{fill:#4a75ba;}.cls-2{fill:#161513;}.cls-3{fill:#af519d;}</style></defs><title>Liv</title><rect class="cls-1" y="2.17" width="134" height="52" rx="12"/><rect class="cls-2" x="67" y="2.17" width="67" height="52" rx="12"/><path class="cls-3" d="M30.7,46.17C46.59,34,50.79,21.8,43.61,12.84a4.59,4.59,0,0,0-6.39-.8l-4.91,4a4.14,4.14,0,0,1-1.28.85c-1.47.62-2.48.76-3.91-.56-.25-.23-.43-.51-.68-.74l-2-1.83a4.58,4.58,0,0,0-7.31,1.65c-2.91,7.34,3.84,21.39,13.61,30.73"/></svg>
