<svg id="Layer_1" data-name="Layer 1" xmlns="http://www.w3.org/2000/svg" viewBox="0 0 134 69.34"><defs><style>.cls-1{fill:#4a75ba;}.cls-2{fill:#2e9330;}.cls-3{fill:none;stroke:#111110;stroke-miterlimit:10;stroke-width:0.25px;}.cls-4{fill:#bc1d1d;}.cls-5{fill:#ba7e1e;}.cls-6{fill:#050505;}.cls-7{fill:#161513;}</style></defs><title>Minus point</title><rect class="cls-1" y="4.17" width="134" height="52" rx="12"/><rect class="cls-2" x="31.52" y="16.65" width="1.25" height="0.35" rx="0.17" transform="translate(-3.96 13.28) rotate(-22.02)"/><path class="cls-2" d="M37.07,14.87c-.08.45-.74,1.13-1.87,1.88s-2.43.48-2.65-.05.55-1.65,1.87-1.89S37.18,14.3,37.07,14.87Z"/><line class="cls-3" x1="32.53" y1="16.63" x2="37.01" y2="14.9"/><polyline class="cls-3" points="34.83 16.88 33.23 16.38 33.74 15.03"/><polyline class="cls-3" points="35.6 16.44 34.13 16.01 34.49 14.8"/><polyline class="cls-3" points="36.2 16.05 35.04 15.65 35.51 14.63"/><polyline class="cls-3" points="36.66 15.71 35.78 15.37 36.17 14.55"/><path class="cls-4" d="M45.7,24.47A9.6,9.6,0,0,0,36.22,20a9.19,9.19,0,0,1-4.75-.7,9.44,9.44,0,0,0-10,1.41c-2.37,2.07-4.12,5.34-3.14,8.47C20,34.6,20.53,40.32,24.16,43.05a6.53,6.53,0,0,0,5.32.87,2,2,0,0,1,.73,0,2.08,2.08,0,0,1,.65.22c1.55.85,3.48,1.68,5.06.89,5.76-2.9,7.16-7.48,9.95-12A8,8,0,0,0,45.7,24.47Z"/><path class="cls-5" d="M33.26,21h0a.5.5,0,0,1-.66-.2l-4.17-7.89c.53.53,0-.53.21-.66h0c.23-.12.84.56.66.21l4.16,7.88C33.7,20.32,33.5,20.84,33.26,21Z"/><path class="cls-6" d="M33,21.39c-1.14-.18-2-.64-2.12-1.08,0-.07.11-.1.25-.08l.26,0c.12,0,.2.06.22.12.08.27.68.56,1.44.68s1.41,0,1.57-.23a.28.28,0,0,1,.25-.05l.26,0c.14,0,.24.09.21.15C35.1,21.38,34.11,21.56,33,21.39Z"/><rect class="cls-7" x="67" y="4.17" width="67" height="52" rx="12"/></svg>