<svg id="Layer_1" data-name="Layer 1" xmlns="http://www.w3.org/2000/svg" viewBox="0 0 134 69.34"><defs><style>.cls-1{fill:#4a75ba;}.cls-2{fill:#2e9330;}.cls-3{fill:none;stroke:#111110;stroke-miterlimit:10;stroke-width:0.25px;}.cls-4{fill:#2c7218;}.cls-5{fill:#ba7e1e;}.cls-6{fill:#050505;}.cls-7{fill:#161513;}</style></defs><title>point</title><rect class="cls-1" y="2.17" width="134" height="52" rx="12"/><rect class="cls-2" x="32.52" y="15.65" width="1.25" height="0.35" rx="0.17" transform="matrix(0.93, -0.37, 0.37, 0.93, -3.51, 13.58)"/><path class="cls-2" d="M38.07,13.87c-.08.45-.74,1.13-1.87,1.88s-2.43.48-2.65-.05.55-1.65,1.87-1.89S38.18,13.3,38.07,13.87Z"/><line class="cls-3" x1="33.53" y1="15.63" x2="38.01" y2="13.9"/><polyline class="cls-3" points="35.83 15.88 34.23 15.38 34.74 14.03"/><polyline class="cls-3" points="36.6 15.44 35.13 15.01 35.49 13.8"/><polyline class="cls-3" points="37.2 15.05 36.04 14.65 36.51 13.63"/><polyline class="cls-3" points="37.66 14.71 36.78 14.37 37.17 13.55"/><path class="cls-4" d="M46.7,23.47A9.6,9.6,0,0,0,37.22,19a9.19,9.19,0,0,1-4.75-.7,9.44,9.44,0,0,0-10,1.41c-2.37,2.07-4.12,5.34-3.14,8.47C21,33.6,21.53,39.32,25.16,42.05a6.53,6.53,0,0,0,5.32.87,2,2,0,0,1,.73,0,2.08,2.08,0,0,1,.65.22c1.55.85,3.48,1.68,5.06.89,5.76-2.9,7.16-7.48,9.95-12A8,8,0,0,0,46.7,23.47Z"/><path class="cls-5" d="M34.26,20h0a.5.5,0,0,1-.66-.2l-4.17-7.89c.53.53,0-.53.21-.66h0c.23-.12.84.56.66.21l4.16,7.88C34.7,19.32,34.5,19.84,34.26,20Z"/><path class="cls-6" d="M34,20.39c-1.14-.18-2-.64-2.12-1.08,0-.07.11-.1.25-.08l.26,0c.12,0,.2.06.22.12.08.27.68.56,1.44.68s1.41,0,1.57-.23a.28.28,0,0,1,.25-.05l.26,0c.14,0,.24.09.21.15C36.1,20.38,35.11,20.56,34,20.39Z"/><rect class="cls-7" x="67" y="2.17" width="67" height="52" rx="12"/></svg>
