<svg id="Layer_1" data-name="Layer 1" xmlns="http://www.w3.org/2000/svg" viewBox="0 0 104.65 68.56"><defs><style>.cls-1{fill:#9b6b1e;}.cls-2{fill:#876217;}.cls-3{fill:#2e9330;}.cls-4{fill:none;stroke:#111110;stroke-miterlimit:10;stroke-width:0.25px;}.cls-5{fill:#e21313;}.cls-6{fill:#ba7e1e;}.cls-7{fill:#050505;}.cls-8{fill:#020202;}.cls-9{fill:#fff;}.cls-10{fill:#0a0a09;}</style></defs><title>Red apple 2</title><path class="cls-1" d="M100.05,28.54,80,37.37a1,1,0,0,1-1.33-.5h0a1,1,0,0,1,.51-1.31l20-8.84a1,1,0,0,1,1.34.5h0A1,1,0,0,1,100.05,28.54Z"/><path class="cls-1" d="M98.82,27.18l-.06-21.1A1.26,1.26,0,0,1,100,4.83h0a1.26,1.26,0,0,1,1.27,1.24l.06,21.1c-.61-1.48-.56,1.25-1.26,1.25h0A1.27,1.27,0,0,1,98.82,27.18Z"/><path class="cls-1" d="M99.23,7h0a.29.29,0,0,1-.4,0l-4-3.3a.29.29,0,0,1,0-.4h0c.11-.12.16.51.41,0l4,3.29C99.32,6.65,97.86,5.79,99.23,7Z"/><path class="cls-1" d="M99.25,6.21h0c-.82-2.41-.32,0-.39-.12L96.41,1.58a.28.28,0,0,1,.11-.39h0c.14-.07.18.05.39.12l2.46,4.51A.3.3,0,0,1,99.25,6.21Z"/><path class="cls-1" d="M99.34,5.68h0a.28.28,0,0,1-.29-.28L99,.29A.29.29,0,0,1,99.32,0h0c.27.68.29.13.29.28V5.4A.28.28,0,0,1,99.34,5.68Z"/><path class="cls-1" d="M99.49,5.58h0c-.12-.1-.19-.07,0-.4l3.34-3.92c0,.55.29-.13.41,0h0a.28.28,0,0,1,0,.4L99.9,5.54A.3.3,0,0,1,99.49,5.58Z"/><path class="cls-1" d="M104.64,4.11h0a.28.28,0,0,1-.17.36L99.6,6.27c-.15.06,3.74-2.47-.37-.16h0a.28.28,0,0,1,.17-.37l4.86-1.8C104.5,4.37,104.58,4,104.64,4.11Z"/><path class="cls-2" d="M5.26,30.08l19,10.8a1,1,0,0,1,.37,1.36h0a1,1,0,0,1-1.38.36l-19-10.8c1.2-.15-.65-.88-.37-1.35h0A1,1,0,0,1,5.26,30.08Z"/><path class="cls-2" d="M3.72,30.66V9.06a1,1,0,0,1,1-1h0a1,1,0,0,1,1,1v21.6c.86-.14-.46,1-1,1h0C4.87,31.65,4.29,30.52,3.72,30.66Z"/><path class="cls-2" d="M4.48,10.18h0a.3.3,0,0,1-.41,0L.1,6.91a.28.28,0,0,1,0-.4h0c.1-.12.47.42.41,0l4,3.3A.29.29,0,0,1,4.48,10.18Z"/><path class="cls-2" d="M4.49,9.44h0a.3.3,0,0,1-.39-.12L1.67,4.8c.31-.15,0-.31.11-.38h0c.15-.08.2.52.4.11L4.61,9.05C2.85,6.93,4.63,9.36,4.49,9.44Z"/><path class="cls-2" d="M4.58,8.92h0a.29.29,0,0,1-.29-.29V3.52a.29.29,0,0,1,.29-.29h0c.16,0,.29.29.29.29V8.63C4.58,6.93,4.74,8.92,4.58,8.92Z"/><path class="cls-2" d="M4.74,8.81h0a.29.29,0,0,1,0-.4l3.36-3.9c-.59-.14.29-.14.41,0h0a.28.28,0,0,1,0,.4L5.15,8.78A.3.3,0,0,1,4.74,8.81Z"/><path class="cls-2" d="M9.89,7.36h0a.28.28,0,0,1-.17.36L4.85,9.51a.29.29,0,0,1-.37-.17h0A.27.27,0,0,1,4.65,9L9.52,7.19C9.78,7.5,9.83,7.21,9.89,7.36Z"/><path class="cls-3" d="M47.81,11.54l-1.61.94a.38.38,0,0,1-.5-.12h0a.36.36,0,0,1,.13-.49l1.62-.94a.37.37,0,0,1,.49.12h0A.36.36,0,0,1,47.81,11.54Z"/><path class="cls-3" d="M56.27,6.07c.85-.45-1.15,2.7-3.21,4.56s-4.84,1.72-5.45.7.6-3.48,3.24-4.36S54.51,7,56.27,6.07Z"/><line class="cls-4" x1="47.53" y1="11.21" x2="56.18" y2="6.34"/><polyline class="cls-4" points="52.32 11 48.89 10.48 49.52 7.6"/><polyline class="cls-4" points="53.78 9.88 50.63 9.47 50.99 6.92"/><polyline class="cls-4" points="54.54 8.92 52.37 8.46 52.81 6.64"/><polyline class="cls-4" points="55.12 8.06 53.82 7.67 54.25 6.64"/><path class="cls-5" d="M77,23a20.11,20.11,0,0,0-20.83-6.23,18.68,18.68,0,0,1-5,.67,18.82,18.82,0,0,1-4.89-.63A19.75,19.75,0,0,0,26,22.72c-4.21,4.9-6.79,12-3.82,18,5.2,10.51,8.08,21.88,16.36,26.3,3.39,1.8,7.59,1.48,11.19.12a4,4,0,0,1,1.47-.27,4.18,4.18,0,0,1,1.41.24c3.44,1.24,7.65,2.33,10.65.24C74.18,59.79,75.62,50.13,80,40.18,82.58,34.15,81,27.86,77,23Z"/><path class="cls-6" d="M50.38,19.73h0A1,1,0,0,1,49,19.52L38,4.89c1.24.9-.24-1.06.21-1.39h0c3.06,3.43,1.9.87,1.41.21l11,14.63C51.07,18.3,50.83,19.41,50.38,19.73Z"/><path class="cls-7" d="M49.91,20.66c-2.39,0-4.37-.66-4.68-1.53,0-.13.2-.24.49-.24h.55c.24,0,.44.08.48.18.25.53,1.57.94,3.16.94s2.91-.41,3.16-.94a.56.56,0,0,1,.48-.18h.55c.3,0,.54.12.49.24C54.28,20,52.3,20.66,49.91,20.66Z"/><path class="cls-8" d="M44.43,37.2c0,2.74-2.39,5.8-5,5s-5.05-2.23-5.05-5,2.44-4,5.05-5C42.41,31.09,44.43,34.45,44.43,37.2Z"/><path class="cls-8" d="M68.4,37.2c0,2.74-2.89,4.4-5.05,5-2.7.71-5.06-2.23-5.06-5s2.36-4.27,5.06-5C65.51,31.65,68.4,34.45,68.4,37.2Z"/><path class="cls-9" d="M44.36,36.37A5,5,0,0,0,42.09,33,2.11,2.11,0,0,0,42,35.54,2.19,2.19,0,0,0,44.36,36.37Z"/><ellipse class="cls-9" cx="36.64" cy="38.47" rx="0.87" ry="0.85"/><path class="cls-9" d="M68.32,36.37A5,5,0,0,0,66.06,33,2.11,2.11,0,0,0,66,35.54,2.18,2.18,0,0,0,68.32,36.37Z"/><ellipse class="cls-9" cx="60.32" cy="39.61" rx="0.87" ry="0.85"/><path class="cls-10" d="M51.73,46.72c6.69-.12,12.2,2.84,12.26,6.59H63.6c-.07-3.6-5.39-6.43-11.87-6.31S40,50.14,40.11,53.73h-.4C39.64,50,45,46.83,51.73,46.72Z"/><path class="cls-10" d="M51.73,46.86c7.24-.13,11.2,2.7,13.26,6.43h0c0,.4-.43.73-1,.74h-.4c-.55,0-3.29-.5-1-.71h0c-.06-3.19-4.93-5.7-10.85-5.6s-10.7,2.79-10.65,6h0c3.33.11-.43.73-1,.74h-.4c-.55,0-1-.31-1-.71h0C40.64,50,44.49,47,51.73,46.86Z"/><path class="cls-10" d="M46.05,34.15l-8-4.54a.43.43,0,0,1-.16-.59h0a.44.44,0,0,1,.59-.15l8,4.55a.42.42,0,0,1,.16.58h0A.43.43,0,0,1,46.05,34.15Z"/><path class="cls-10" d="M66,30.44l-8.28,4a.44.44,0,0,1-.58-.19h0a.42.42,0,0,1,.19-.57l8.28-4a.43.43,0,0,1,.58.19h0A.42.42,0,0,1,66,30.44Z"/></svg>