<svg id="Layer_1" data-name="Layer 1" xmlns="http://www.w3.org/2000/svg" xmlns:xlink="http://www.w3.org/1999/xlink" viewBox="0 0 1599 901.12"><defs><style>.cls-1{fill:#58afff;}.cls-2{fill:#9b6b1e;}.cls-3{fill:#876217;}.cls-4{fill:#2e9330;}.cls-21,.cls-5{fill:none;stroke-miterlimit:10;}.cls-5{stroke:#111110;stroke-width:0.25px;}.cls-6{fill:#20a041;}.cls-7{fill:#ba7e1e;}.cls-8{fill:#050505;}.cls-9{fill:#020202;}.cls-10{fill:#fff;}.cls-11{fill:#0a0a09;}.cls-12{fill:url(#linear-gradient);}.cls-13{fill:#e21313;}.cls-14{fill:#991313;}.cls-15{fill:#318e24;}.cls-16{fill:#366d16;}.cls-17{fill:#d6f20a;}.cls-18{fill:#0f0f0f;}.cls-19{fill:#0c0c0c;}.cls-20{fill:#a1a8b2;}.cls-21{stroke:#14120f;stroke-width:14px;}.cls-22{fill:#930f0f;}.cls-23{fill:#efefef;}</style><linearGradient id="linear-gradient" x1="431.14" y1="46.09" x2="410.83" y2="856.14" gradientUnits="userSpaceOnUse"><stop offset="0.01" stop-color="#00241f"/><stop offset="0.21" stop-color="#30649f"/></linearGradient></defs><title>Settings</title><rect class="cls-1" x="-1" y="0.06" width="1600" height="901.12"/><rect class="cls-2" x="1019.66" y="697.43" width="50.71" height="4.28" rx="2.14" transform="translate(2279.76 938.07) rotate(157.13)"/><path class="cls-2" d="M1064.71,689.54l.87-45.35a2.69,2.69,0,0,1,2.73-2.62h0a2.68,2.68,0,0,1,2.62,2.73l-.87,45.34c-1.22-3.22-1.25,2.66-2.73,2.63h0A2.69,2.69,0,0,1,1064.71,689.54Z"/><path class="cls-2" d="M1066.54,646.09h0a.6.6,0,0,1-.86,0l-8.26-7.26a.61.61,0,0,1-.05-.86h0c.22-.26.3,1.1.86-.06l8.26,7.27C1066.74,645.45,1063.68,643.53,1066.54,646.09Z"/><path class="cls-2" d="M1066.61,644.48h0c-1.61-5.2-.67,0-.83-.27l-5-9.81a.6.6,0,0,1,.27-.82h0c.3-.15.37.12.82.27l5,9.81A.6.6,0,0,1,1066.61,644.48Z"/><path class="cls-2" d="M1066.82,643.37h0a.61.61,0,0,1-.6-.62l.21-11a.61.61,0,0,1,.62-.6h0c.54,1.46.61.29.6.62l-.21,11A.63.63,0,0,1,1066.82,643.37Z"/><path class="cls-2" d="M1067.15,643.15h0c-.25-.22-.4-.17-.05-.86l7.26-8.26c-.1,1.18.61-.28.86,0h0a.61.61,0,0,1,.06.86l-7.27,8.25A.61.61,0,0,1,1067.15,643.15Z"/><path class="cls-2" d="M1078.1,640.23h0a.61.61,0,0,1-.37.78l-10.38,3.64c-.31.11,8-5.14-.78-.38h0a.61.61,0,0,1,.38-.77l10.37-3.65C1077.8,640.79,1078,639.91,1078.1,640.23Z"/><path class="cls-3" d="M866.67,691.38l39.68,24.11a2.13,2.13,0,0,1,.72,2.93h0a2.14,2.14,0,0,1-2.94.72L864.45,695c2.54-.27-1.33-1.93-.72-2.94h0A2.15,2.15,0,0,1,866.67,691.38Z"/><path class="cls-3" d="M863.38,692.55l1-46.42a2.13,2.13,0,0,1,2.18-2.09h0a2.14,2.14,0,0,1,2.09,2.19l-1,46.42c1.84-.27-1,2.11-2.18,2.09h0C865.77,694.74,864.61,692.27,863.38,692.55Z"/><path class="cls-3" d="M866,648.59h0a.61.61,0,0,1-.86,0l-8.23-7.29a.61.61,0,0,1-.06-.86h0c.23-.26,1,.91.87-.06l8.23,7.29A.62.62,0,0,1,866,648.59Z"/><path class="cls-3" d="M866,647h0a.61.61,0,0,1-.82-.27l-4.94-9.83c.68-.3,0-.67.27-.82h0c.3-.15.4,1.13.82.28l4.94,9.82C862.68,641.51,866.33,646.83,866,647Z"/><path class="cls-3" d="M866.25,645.87h0a.61.61,0,0,1-.6-.63l.24-11a.61.61,0,0,1,.63-.6h0c.33,0,.6.62.6.62l-.25,11C866.34,641.59,866.58,645.87,866.25,645.87Z"/><path class="cls-3" d="M866.58,645.65h0a.61.61,0,0,1-.05-.86l7.29-8.24c-1.25-.32.61-.27.86,0h0a.6.6,0,0,1,.05.86l-7.29,8.24A.61.61,0,0,1,866.58,645.65Z"/><path class="cls-3" d="M877.54,642.76h0a.62.62,0,0,1-.37.78l-10.39,3.61a.61.61,0,0,1-.78-.38h0a.61.61,0,0,1,.38-.78l10.38-3.61C877.31,643.06,877.43,642.44,877.54,642.76Z"/><rect class="cls-4" x="952.71" y="653.08" width="5.5" height="1.52" rx="0.76" transform="translate(-197.82 552.03) rotate(-29.34)"/><path class="cls-4" d="M975.77,642.6c-.11,2-2.61,5.33-7.07,9.23s-10.33,3.45-11.57,1.25,1.44-7.46,7.08-9.23S975.91,640.07,975.77,642.6Z"/><line class="cls-5" x1="956.98" y1="652.81" x2="975.51" y2="642.75"/><polyline class="cls-5" points="967.12 652.58 959.9 651.31 961.36 645.15"/><polyline class="cls-5" points="970.26 650.25 963.62 649.22 964.51 643.75"/><polyline class="cls-5" points="972.63 648.23 967.35 647.12 968.83 642.41"/><polyline class="cls-5" points="974.46 646.5 970.45 645.51 971.68 641.72"/><path class="cls-6" d="M1018.64,679.53a42.1,42.1,0,0,0-43.75-14.36,40.42,40.42,0,0,1-21-.38c-15.44-4.56-32.26-.33-42.92,11.74C901.8,686.87,896,702,902,715.1c10.49,22.85,16,47.41,33.36,57.29,7.07,4,16,3.54,23.65.78a8.38,8.38,0,0,1,3.12-.51,8.68,8.68,0,0,1,3,.59c7.23,2.83,16.08,5.36,22.51,1,23.42-15.8,26.94-36.5,36.57-57.68C1030,703.76,1027,690.16,1018.64,679.53Z"/><path class="cls-7" d="M962.6,671.26h0a2.14,2.14,0,0,1-3-.52l-22.53-32c2.6,2-.44-2.31.52-3h0c1-.68,4,2,3,.51l22.52,32C964.14,668.21,963.56,670.58,962.6,671.26Z"/><path class="cls-8" d="M961.56,673.24c-5-.11-9.21-1.64-9.82-3.52-.09-.27.42-.5,1-.48l1.15,0c.52,0,.93.19,1,.41.5,1.15,3.28,2.09,6.63,2.16s6.17-.73,6.73-1.86c.1-.22.52-.37,1-.36l1.16,0c.62,0,1.12.27,1,.54C970.84,672,966.62,673.35,961.56,673.24Z"/><path class="cls-9" d="M949.19,708.51c-.13,5.9-5.34,12.36-10.93,10.45-5.76-2-10.58-5-10.45-10.92s5.36-8.48,10.93-10.45C945.2,695.28,949.32,702.61,949.19,708.51Z"/><path class="cls-9" d="M999.88,709.64c-.13,5.9-6.32,9.33-10.92,10.45-5.74,1.39-10.59-5-10.45-10.93s5.18-9,10.92-10.45C994,697.59,1000,703.73,999.88,709.64Z"/><path class="cls-10" d="M949.07,706.72a10.71,10.71,0,0,0-4.64-7.33,4.58,4.58,0,0,0,4.64,7.33Z"/><circle class="cls-10" cx="932.63" cy="710.89" r="1.83"/><path class="cls-10" d="M999.76,707.85a10.68,10.68,0,0,0-4.63-7.34,4.58,4.58,0,0,0,4.63,7.34Z"/><circle class="cls-10" cx="982.67" cy="714.45" r="1.83"/><path class="cls-11" d="M965.14,746.75c-14.16-.31-25.54-7.13-25.36-15.2l.84,0c-.17,7.73,10.84,14.26,24.54,14.56s25-5.73,25.15-13.45h.84C991,740.76,979.31,747.07,965.14,746.75Z"/><path class="cls-11" d="M965.15,746.44c-15.32-.34-23.44-6.75-27.47-14.93h0c0-.86,1-1.54,2.14-1.51l.84,0c1.16,0,3.77,1,2.07,1.6h0c-.15,6.86,9.92,12.68,22.46,13s22.86-5.08,23-11.94h0c-2.52-.68,1-1.54,2.14-1.51l.84,0c1.16,0,2.09.74,2.07,1.6h0C988.87,740.74,980.47,746.78,965.15,746.44Z"/><rect class="cls-12" x="-1" width="844" height="901"/><rect class="cls-2" x="771.86" y="693.2" width="47.22" height="3.98" rx="1.99" transform="translate(1792.81 1043.54) rotate(158.1)"/><path class="cls-2" d="M814,686.16,815.48,644a2.5,2.5,0,0,1,2.59-2.4h0a2.5,2.5,0,0,1,2.4,2.58l-1.53,42.21c-1.08-3-1.21,2.45-2.58,2.4h0A2.5,2.5,0,0,1,814,686.16Z"/><path class="cls-2" d="M816.35,645.73h0a.57.57,0,0,1-.8,0L808,638.88a.57.57,0,0,1,0-.81h0c.21-.23.26,1,.8,0l7.57,6.9C816.54,645.14,813.73,643.3,816.35,645.73Z"/><path class="cls-2" d="M816.43,644.24h0c-1.41-4.87-.62,0-.76-.26l-4.47-9.22a.57.57,0,0,1,.27-.76h0c.28-.13.34.12.76.27l4.47,9.21A.57.57,0,0,1,816.43,644.24Z"/><path class="cls-2" d="M816.65,643.2h0a.57.57,0,0,1-.55-.59l.37-10.23a.58.58,0,0,1,.59-.55h0c.48,1.37.56.28.55.59l-.37,10.24A.57.57,0,0,1,816.65,643.2Z"/><path class="cls-2" d="M817,643h0c-.23-.22-.37-.16,0-.81l6.89-7.57c-.12,1.09.57-.25.8,0h0a.58.58,0,0,1,0,.81L817.77,643A.58.58,0,0,1,817,643Z"/><path class="cls-2" d="M827.21,640.46h0a.58.58,0,0,1-.36.72l-9.72,3.22c-.3.1,7.55-4.65-.72-.36h0a.57.57,0,0,1,.36-.72l9.72-3.22C826.91,641,827.11,640.16,827.21,640.46Z"/><path class="cls-3" d="M629.54,684.76l36.57,23.06a2,2,0,0,1,.62,2.75h0a2,2,0,0,1-2.74.62l-36.57-23.07c2.37-.21-1.21-1.82-.63-2.74h0A2,2,0,0,1,629.54,684.76Z"/><path class="cls-3" d="M626.46,685.79l1.69-43.2a2,2,0,0,1,2.07-1.91h0a2,2,0,0,1,1.91,2.06L630.44,686c1.72-.22-1,1.95-2.07,1.91h0C628.66,687.87,627.61,685.55,626.46,685.79Z"/><path class="cls-3" d="M629.56,644.9h0a.58.58,0,0,1-.81,0L621.2,638a.58.58,0,0,1,0-.81h0c.21-.23.89.87.8,0l7.55,6.91A.58.58,0,0,1,629.56,644.9Z"/><path class="cls-3" d="M629.65,643.41h0a.58.58,0,0,1-.76-.27l-4.44-9.23c.63-.27,0-.62.26-.76h0c.28-.13.35,1.06.76.27l4.44,9.23C626.61,638.26,629.93,643.27,629.65,643.41Z"/><path class="cls-3" d="M629.87,642.37h0a.57.57,0,0,1-.55-.59l.4-10.23a.57.57,0,0,1,.59-.55h0c.31,0,.55.59.55.59l-.4,10.23C630,638.39,630.18,642.38,629.87,642.37Z"/><path class="cls-3" d="M630.18,642.17h0a.56.56,0,0,1,0-.8l6.91-7.55c-1.15-.32.58-.25.81,0h0a.58.58,0,0,1,0,.81L631,642.14A.58.58,0,0,1,630.18,642.17Z"/><path class="cls-3" d="M640.43,639.66h0a.56.56,0,0,1-.36.71l-9.73,3.2a.57.57,0,0,1-.72-.36h0a.57.57,0,0,1,.37-.72l9.72-3.2C640.21,639.93,640.33,639.36,640.43,639.66Z"/><rect class="cls-4" x="710.24" y="650.49" width="5.12" height="1.41" rx="0.71" transform="translate(-223.82 416.92) rotate(-28.37)"/><path class="cls-4" d="M731.85,640.67c1.69-.84-2.47,5.3-6.69,8.87s-9.67,3.05-10.79,1,1.46-6.93,6.74-8.49S728.3,642.42,731.85,640.67Z"/><line class="cls-5" x1="714.24" y1="650.27" x2="731.64" y2="641.19"/><polyline class="cls-5" points="723.68 650.21 716.97 648.92 718.43 643.2"/><polyline class="cls-5" points="726.64 648.09 720.48 647.03 721.39 641.95"/><polyline class="cls-5" points="728.21 646.22 723.98 645.13 724.98 641.54"/><polyline class="cls-5" points="729.42 644.56 726.89 643.68 727.82 641.65"/><path class="cls-13" d="M771.22,676.11a39.2,39.2,0,0,0-40.5-14.06,37.41,37.41,0,0,1-19.59-.68c-14.3-4.49-30-.82-40.14,10.25-8.67,9.49-14.32,23.52-8.94,35.78,9.41,21.43,14.21,44.39,30.16,53.86,6.53,3.88,14.82,3.55,22,1.1a7.9,7.9,0,0,1,2.92-.43,8.26,8.26,0,0,1,2.75.6c6.68,2.75,14.89,5.24,21,1.3,22-14.34,25.64-33.56,34.95-53.12C781.43,698.85,778.84,686.14,771.22,676.11Z"/><path class="cls-7" d="M719.17,667.53h0a2,2,0,0,1-2.76-.53l-20.47-30.11c2.39,1.9-.38-2.15.53-2.76h0c5.75,7.09,3.67,1.88,2.76.52l20.47,30.12C720.66,664.71,720.08,666.92,719.17,667.53Z"/><path class="cls-8" d="M718.18,669.36c-4.7-.18-8.55-1.68-9.09-3.43-.08-.26.4-.46,1-.44l1.08,0a1.06,1.06,0,0,1,.94.39c.45,1.08,3,2,6.14,2.12s5.76-.59,6.29-1.63a1.08,1.08,0,0,1,1-.32l1.08,0c.58,0,1,.26.94.51C726.83,668.36,722.88,669.54,718.18,669.36Z"/><path class="cls-9" d="M706.1,702c-.21,5.5-5.16,11.42-10.34,9.56s-9.77-4.84-9.55-10.34,5.12-7.8,10.33-9.55C702.6,689.63,706.32,696.51,706.1,702Z"/><path class="cls-9" d="M753.29,703.85c-.22,5.49-6,8.59-10.34,9.56-5.37,1.21-9.78-4.84-9.56-10.34s5-8.35,10.34-9.56C748,692.54,753.5,698.36,753.29,703.85Z"/><path class="cls-10" d="M706,700.34a10,10,0,0,0-4.2-6.91,4.27,4.27,0,0,0,4.2,6.91Z"/><circle class="cls-10" cx="690.65" cy="703.96" r="1.71"/><path class="cls-10" d="M753.2,702.18a9.92,9.92,0,0,0-4.2-6.9,4.26,4.26,0,0,0,4.2,6.9Z"/><circle class="cls-10" cx="737.18" cy="708.06" r="1.71"/><path class="cls-11" d="M719.72,721.61c13.19.28,23.79,6.62,23.63,14.13h-.79c.16-7.2-10.1-13.27-22.85-13.54s-23.26,5.36-23.42,12.55l-.78,0C695.67,727.21,706.53,721.33,719.72,721.61Z"/><path class="cls-11" d="M719.71,721.9c14.27.3,21.84,6.26,25.6,13.88h0a1.76,1.76,0,0,1-2,1.41h-.79c-1.08,0-6.44-1.27-1.93-1.5h0c.14-6.39-9.25-11.79-20.92-12s-21.29,4.75-21.43,11.14h0c6.55.48-.9,1.43-2,1.41l-.78,0c-1.08,0-2-.69-1.93-1.49h0C697.63,727.23,705.44,721.6,719.71,721.9Z"/><rect class="cls-11" x="692.33" y="689.61" width="19.91" height="1.71" rx="0.85" transform="translate(476.64 -268.19) rotate(32.24)"/><rect class="cls-11" x="730.37" y="692.24" width="19.91" height="1.71" rx="0.85" transform="translate(-218.58 363) rotate(-24.12)"/><rect class="cls-14" x="463" y="162" width="732" height="478" rx="115.44"/><rect class="cls-15" x="502.36" y="173.11" width="660.82" height="164.87" rx="49"/><path class="cls-16" d="M1091.79,292.29,550.9,310c-26.7,0-48.54-24.56-48.54-66.84h0c0-36.76,38.68-40.92,65.38-40.92l540.89-25.92c38.64,0,48.55,30.08,48.55,66.84h0C1157.18,280,1118.49,292.29,1091.79,292.29Z"/><path class="cls-10" d="M592.5,258.75a63.68,63.68,0,0,0,6.34,1q2.76.45,6.28.73t7.1.27c4.22,0,6.34-1,6.34-3.09,0-.79-.64-1.59-1.93-2.41s-2.92-1.72-4.9-2.72-4.09-2.11-6.34-3.32a41.6,41.6,0,0,1-6.34-4.18,22.5,22.5,0,0,1-4.9-5.31,12.14,12.14,0,0,1-1.93-6.77,12.58,12.58,0,0,1,2.35-7.54,18.18,18.18,0,0,1,6.48-5.45,36.6,36.6,0,0,1,9.72-3.32,60.33,60.33,0,0,1,11.93-1.13c2.2,0,4.41.08,6.61.23l5.93.4,5.93.55v17l-2.48-.18-2.48-.19c-.92-.06-1.89-.09-2.9-.09-.55,0-1.24,0-2.07.05a18.74,18.74,0,0,0-2.34.23,6,6,0,0,0-1.93.63,1.42,1.42,0,0,0-.83,1.27c0,.49.62,1.09,1.86,1.82s2.76,1.58,4.55,2.54,3.77,2.09,5.93,3.37a35,35,0,0,1,5.93,4.36A24.68,24.68,0,0,1,649,253a13.12,13.12,0,0,1,1.86,6.9,15.24,15.24,0,0,1-1.93,7.5,17.13,17.13,0,0,1-6,6.08,33.79,33.79,0,0,1-10.41,4.09,65.91,65.91,0,0,1-15,1.5q-5.25,0-9.72-.32c-3-.21-5.64-.47-7.93-.77-2.67-.3-5.1-.67-7.31-1.09Zm11.58,10.9c1.29.18,2.67.34,4.14.46,1.28.12,2.64.22,4.07.31s2.87.14,4.34.14a46.24,46.24,0,0,0,7.51-.59,24.27,24.27,0,0,0,6.55-2,12.91,12.91,0,0,0,4.62-3.5A8,8,0,0,0,637,259.3a7.64,7.64,0,0,0-2-5,27.14,27.14,0,0,0-5.11-4.54c-2.06-1.46-4.27-2.85-6.61-4.18s-4.55-2.68-6.62-4a31.24,31.24,0,0,1-5.1-4.09,6,6,0,0,1-2-4.23,5.51,5.51,0,0,1,3.17-5q3.16-1.77,10.2-1.77c.74,0,1.49,0,2.28.05s1.53.07,2.27.13,1.47.09,2.21.09v-2.36q-1,0-2.07-.09c-.65-.06-1.36-.11-2.14-.14s-1.58,0-2.41,0a29.43,29.43,0,0,0-12.27,2.22q-4.83,2.23-4.83,6.95a7,7,0,0,0,2,4.77,28.11,28.11,0,0,0,5.1,4.36q3.1,2.15,6.62,4.14t6.62,4a27,27,0,0,1,5.1,4.22,6.72,6.72,0,0,1,2,4.55c0,2.9-1.5,5.11-4.48,6.63s-7.1,2.27-12.34,2.27a71.85,71.85,0,0,1-8.55-.46c-1.38-.12-2.71-.27-4-.45Z"/><path class="cls-10" d="M657,217h54.18v15.9H686.39v6.72H710.8v15.08H686.39v7h25.79v15.9H657ZM702,270.29v-2.18H674.4v-19.9h26.19V246H674.4V226.41H702v-2.18H670.81v46.06Z"/><path class="cls-10" d="M732.58,232.86h-17V217h64.25v15.9h-17v44.7H732.58Zm17,37.43V226.41h19.72v-2.18h-43v2.18H746v43.88Z"/><path class="cls-10" d="M796.83,232.86h-17V217h64.25v15.9h-17v44.7H796.83Zm17,37.43V226.41H833.5v-2.18h-43v2.18H810.2v43.88Z"/><path class="cls-10" d="M849,217h31.16v60.6H849Zm17.37,53.33V224.23h-3.59v46.06Z"/><path class="cls-10" d="M889.75,217h24.13l25.37,23.35V217h28.82v60.6H943.8L918.57,254.3v23.26H889.75Zm16.41,53.33v-42l45.5,42h3.59V224.23h-3.59v42l-45.5-42h-3.58v46.06Z"/><path class="cls-10" d="M1036.32,237.58a20.75,20.75,0,0,0-6.21-2.22,35.56,35.56,0,0,0-7.31-.77,26.12,26.12,0,0,0-7.3.95,19.4,19.4,0,0,0-5.73,2.63,12.9,12.9,0,0,0-3.79,4.05,9.89,9.89,0,0,0-1.38,5.08,9.24,9.24,0,0,0,1.52,5.09,13.33,13.33,0,0,0,4.14,4,21.7,21.7,0,0,0,6.13,2.64,28.48,28.48,0,0,0,7.52.95,26.63,26.63,0,0,0,8.55-1.31,21.05,21.05,0,0,0,6.61-3.59h-8.27V242.4h35.43v20.17a38.53,38.53,0,0,1-7.58,6.76,50.35,50.35,0,0,1-9.86,5.23,62.8,62.8,0,0,1-11.79,3.36,71.06,71.06,0,0,1-13.09,1.18,69.91,69.91,0,0,1-18.75-2.45,54.92,54.92,0,0,1-15.38-6.73,34.72,34.72,0,0,1-10.34-10.08,22.48,22.48,0,0,1-3.79-12.54A23.06,23.06,0,0,1,979.24,235a33.83,33.83,0,0,1,9.85-10.13A51.33,51.33,0,0,1,1004,218a66.22,66.22,0,0,1,18.55-2.5,77.51,77.51,0,0,1,13.37,1,70.35,70.35,0,0,1,9.52,2.27A40.31,40.31,0,0,1,1053,222Zm1.37-11.71a29.51,29.51,0,0,0-4-.91c-1.29-.24-2.81-.46-4.55-.64a56.89,56.89,0,0,0-5.79-.27,51.76,51.76,0,0,0-13.65,1.72,39.3,39.3,0,0,0-11,4.77,23.87,23.87,0,0,0-7.38,7.32,17.36,17.36,0,0,0-2.69,9.44,17,17,0,0,0,2.76,9.45,24.17,24.17,0,0,0,7.58,7.32,41.06,41.06,0,0,0,11.24,4.76,52.14,52.14,0,0,0,13.72,1.73,47.88,47.88,0,0,0,17.23-2.95,34.7,34.7,0,0,0,12.55-7.86v-11.9h-14.62V250h11v9.08a30.26,30.26,0,0,1-11.1,6.64,44.47,44.47,0,0,1-15.09,2.45,48.52,48.52,0,0,1-12.34-1.5,35.1,35.1,0,0,1-10.07-4.27,22.08,22.08,0,0,1-6.82-6.63,15.38,15.38,0,0,1-2.48-8.5,15.72,15.72,0,0,1,2.41-8.49,21.68,21.68,0,0,1,6.62-6.63,33.13,33.13,0,0,1,9.85-4.27,47.77,47.77,0,0,1,12.28-1.5,38.55,38.55,0,0,1,4.68.27c1.47.18,2.76.37,3.86.55,1.29.24,2.49.48,3.59.73Z"/><path class="cls-10" d="M1071.33,258.75a63.88,63.88,0,0,0,6.35,1c1.83.3,3.93.54,6.27.73s4.71.27,7.1.27q6.35,0,6.34-3.09c0-.79-.64-1.59-1.93-2.41s-2.92-1.72-4.89-2.72-4.09-2.11-6.34-3.32a41.7,41.7,0,0,1-6.35-4.18,22.66,22.66,0,0,1-4.89-5.31,12.06,12.06,0,0,1-1.93-6.77,12.64,12.64,0,0,1,2.34-7.54,18.26,18.26,0,0,1,6.48-5.45,36.6,36.6,0,0,1,9.72-3.32,60.41,60.41,0,0,1,11.93-1.13c2.21,0,4.41.08,6.62.23l5.93.4,5.93.55v17l-2.49-.18-2.48-.19c-.92-.06-1.88-.09-2.89-.09-.56,0-1.24,0-2.07.05a18.9,18.9,0,0,0-2.35.23,6.17,6.17,0,0,0-1.93.63,1.41,1.41,0,0,0-.82,1.27c0,.49.62,1.09,1.86,1.82s2.76,1.58,4.55,2.54,3.77,2.09,5.93,3.37a35.41,35.41,0,0,1,5.93,4.36,25,25,0,0,1,4.55,5.54,13.12,13.12,0,0,1,1.86,6.9,15.34,15.34,0,0,1-1.93,7.5,17.13,17.13,0,0,1-6,6.08,33.79,33.79,0,0,1-10.41,4.09,66,66,0,0,1-15,1.5q-5.24,0-9.72-.32t-7.93-.77c-2.66-.3-5.1-.67-7.31-1.09Zm11.59,10.9c1.28.18,2.66.34,4.13.46,1.29.12,2.64.22,4.07.31s2.87.14,4.34.14A46.36,46.36,0,0,0,1103,270a24.37,24.37,0,0,0,6.55-2,12.91,12.91,0,0,0,4.62-3.5,8.08,8.08,0,0,0,1.72-5.22,7.66,7.66,0,0,0-2-5,26.75,26.75,0,0,0-5.1-4.54q-3.11-2.19-6.62-4.18t-6.62-4a31.24,31.24,0,0,1-5.1-4.09,6.08,6.08,0,0,1-2-4.23,5.53,5.53,0,0,1,3.17-5q3.18-1.77,10.21-1.77c.73,0,1.49,0,2.27.05s1.54.07,2.28.13,1.47.09,2.2.09v-2.36q-1,0-2.07-.09c-.64-.06-1.35-.11-2.13-.14s-1.59,0-2.42,0a29.46,29.46,0,0,0-12.27,2.22c-3.22,1.49-4.82,3.81-4.82,6.95a7,7,0,0,0,2,4.77,28.11,28.11,0,0,0,5.1,4.36c2.07,1.43,4.27,2.81,6.62,4.14s4.55,2.68,6.61,4a27.42,27.42,0,0,1,5.11,4.22,6.7,6.7,0,0,1,2,4.55q0,4.35-4.48,6.63t-12.34,2.27a71.8,71.8,0,0,1-8.54-.46c-1.38-.12-2.72-.27-4-.45Z"/><polygon class="cls-17" points="1599 143.5 1599 135.12 1588.77 79.84 1599 103.04 1599 82.57 1597.19 76.7 1599 79.78 1599 0 1427.48 0 1488.73 6.64 1411.8 16.26 1489.33 15.6 1414.04 34.09 1490.96 24.44 1418.32 51.54 1493.61 33.02 1424.61 68.38 1497.24 41.25 1432.81 84.37 1501.79 48.99 1442.81 99.3 1507.22 56.15 1454.47 112.97 1513.44 62.64 1467.64 125.2 1520.37 68.36 1482.15 135.81 1527.92 73.23 1497.78 144.67 1535.98 77.2 1514.34 151.65 1544.45 80.2 1531.6 156.66 1553.21 82.2 1549.32 159.64 1562.14 83.17 1567.27 160.53 1571.13 83.1 1585.2 159.34 1580.04 81.98 1599 143.5"/><path class="cls-18" d="M550.5,280.34a26.84,26.84,0,1,1,26.84-26.84A26.87,26.87,0,0,1,550.5,280.34Zm0-45.55a18.71,18.71,0,1,0,18.71,18.71A18.73,18.73,0,0,0,550.5,234.79Z"/><rect class="cls-19" x="547.25" y="215" width="5.96" height="13.01" rx="2.98"/><rect class="cls-19" x="570.56" y="225.3" width="5.96" height="13.01" rx="2.98" transform="translate(353 -346.16) rotate(47.11)"/><rect class="cls-19" x="579.51" y="247.26" width="5.96" height="13.01" rx="2.98" transform="translate(836.26 -328.72) rotate(90)"/><rect class="cls-19" x="571.65" y="267.06" width="5.96" height="13.01" rx="2.98" transform="translate(1174.39 60.68) rotate(135)"/><rect class="cls-19" x="548.87" y="278.99" width="5.96" height="13.01" rx="2.98"/><rect class="cls-19" x="525.56" y="269.77" width="5.96" height="13.01" rx="2.98" transform="translate(728.29 838.22) rotate(-137.16)"/><rect class="cls-19" x="515.52" y="248.89" width="5.96" height="13.01" rx="2.98" transform="translate(263.11 773.9) rotate(-90)"/><rect class="cls-19" x="523.39" y="226.39" width="5.96" height="13.01" rx="2.98" transform="translate(-10.51 440.41) rotate(-45)"/><path class="cls-20" d="M99.9,27A67.72,67.72,0,0,0,84,28.89a68,68,0,0,1,0,132.22A68,68,0,1,0,99.9,27Z"/><path d="M561.92,368.7h9.51l9.39,13.82,9.35-13.82h9.5v36h-11.5v-13l-7.35,10.8-7.39-10.8v13H561.92Zm6.81,31.7V375.61l12.09,17.61,12-17.61V400.4h1.4V373h-1.4l-12,17.77L568.73,373h-1.41V400.4Z"/><path d="M618.19,405.64a20.31,20.31,0,0,1-6.15-.87,12.55,12.55,0,0,1-4.7-2.59,11.3,11.3,0,0,1-3-4.37,16.83,16.83,0,0,1-1.05-6.21V368.7h11.5v22.41a4.63,4.63,0,0,0,.78,2.89,3.93,3.93,0,0,0,5.24,0,4.63,4.63,0,0,0,.78-2.89V368.7h11.56v22.9a16.83,16.83,0,0,1-1,6.21,11.26,11.26,0,0,1-3,4.37,12.87,12.87,0,0,1-4.72,2.59A20.42,20.42,0,0,1,618.19,405.64Zm0-6.48q-8.1,0-8.1-7.94V373h-1.4v18.2c0,3,.82,5.34,2.45,6.94s4,2.4,7.05,2.4,5.42-.8,7.08-2.4,2.48-3.92,2.48-6.94V373h-1.46v18.2Q626.29,399.16,618.19,399.16Z"/><path d="M635.79,393.54a18.08,18.08,0,0,0,2.49.59,20,20,0,0,0,2.46.44,25.47,25.47,0,0,0,2.78.16c1.65,0,2.48-.61,2.48-1.84a2.06,2.06,0,0,0-.75-1.43,22.93,22.93,0,0,0-1.92-1.62c-.78-.59-1.6-1.25-2.49-2a18.16,18.16,0,0,1-2.48-2.48,13.08,13.08,0,0,1-1.92-3.16,10.16,10.16,0,0,1-.75-4,10.42,10.42,0,0,1,.91-4.48,9.21,9.21,0,0,1,2.54-3.24,11.48,11.48,0,0,1,3.81-2,15.74,15.74,0,0,1,4.67-.67,24.82,24.82,0,0,1,2.59.13l2.33.24,2.32.33v10.1c-.29,0-.62-.08-1-.11l-1-.11a10.33,10.33,0,0,0-1.13-.05l-.81,0a5.21,5.21,0,0,0-.92.14,1.88,1.88,0,0,0-.76.38.94.94,0,0,0-.32.75c0,.29.24.65.73,1.08s1.08.94,1.78,1.51,1.48,1.25,2.32,2a16.59,16.59,0,0,1,2.33,2.59,15.49,15.49,0,0,1,1.78,3.3,11.13,11.13,0,0,1,.73,4.1,13.05,13.05,0,0,1-.76,4.46,9.42,9.42,0,0,1-2.35,3.61,11.27,11.27,0,0,1-4.07,2.44,17.59,17.59,0,0,1-5.89.89,37.34,37.34,0,0,1-3.81-.19c-1.17-.13-2.2-.28-3.1-.46a26.69,26.69,0,0,1-2.87-.65Zm4.54,6.48c.5.11,1,.2,1.62.27l1.59.19c.56,0,1.13.08,1.71.08a12.58,12.58,0,0,0,2.94-.35,7.47,7.47,0,0,0,2.56-1.16,5.88,5.88,0,0,0,1.81-2.08,6.56,6.56,0,0,0,.68-3.11,6,6,0,0,0-.79-3,14,14,0,0,0-2-2.7,34,34,0,0,0-2.6-2.48c-.91-.79-1.78-1.59-2.59-2.4a14.76,14.76,0,0,1-2-2.43,4.59,4.59,0,0,1-.78-2.51,3.7,3.7,0,0,1,1.24-3,6.16,6.16,0,0,1,4-1.05l.89,0,.89.08a6.36,6.36,0,0,0,.87.06v-1.41a5.68,5.68,0,0,1-.81-.05c-.26,0-.54-.06-.84-.08s-.62,0-1,0a8.19,8.19,0,0,0-4.8,1.32,4.71,4.71,0,0,0-1.89,4.14,5.49,5.49,0,0,0,.78,2.83,14.09,14.09,0,0,0,2,2.59,35.68,35.68,0,0,0,2.59,2.46c.92.79,1.78,1.59,2.59,2.4a13.34,13.34,0,0,1,2,2.51,5.19,5.19,0,0,1,.78,2.7,4.68,4.68,0,0,1-1.75,3.95,7.74,7.74,0,0,1-4.83,1.35,19,19,0,0,1-3.35-.27c-.54-.08-1.07-.17-1.57-.27Z"/><path d="M661.07,368.7h12.2v36h-12.2Zm6.8,31.7V373h-1.4V400.4Z"/><path d="M676.24,386.74a19.4,19.4,0,0,1,1.51-7.81,18.13,18.13,0,0,1,4.11-6,17.72,17.72,0,0,1,6-3.81,20.47,20.47,0,0,1,7.35-1.32,22.73,22.73,0,0,1,5.48.59,26.71,26.71,0,0,1,4.13,1.35,20.27,20.27,0,0,1,3.46,1.89l-5.67,10a19.3,19.3,0,0,0-1.89-1.24,18.09,18.09,0,0,0-2.19-.84,9.52,9.52,0,0,0-2.89-.4,7.76,7.76,0,0,0-3.08.59,8,8,0,0,0-2.45,1.62,7.42,7.42,0,0,0-2.25,5.35,7,7,0,0,0,.63,2.94,7.43,7.43,0,0,0,1.7,2.4,7.84,7.84,0,0,0,2.53,1.62,8.35,8.35,0,0,0,3.19.6,10,10,0,0,0,3.08-.44,11,11,0,0,0,2.27-1,8.14,8.14,0,0,0,1.89-1.4l5.67,10a16.32,16.32,0,0,1-3.46,2.1,28.27,28.27,0,0,1-4.16,1.41,21.71,21.71,0,0,1-5.56.65,21.39,21.39,0,0,1-7.78-1.38,18.51,18.51,0,0,1-6.15-3.86,17.54,17.54,0,0,1-4-6A19.77,19.77,0,0,1,676.24,386.74Zm6.8,0a13,13,0,0,1,.9-4.86,11.45,11.45,0,0,1,6.45-6.59,13.25,13.25,0,0,1,5.18-1,15.73,15.73,0,0,1,2.51.18A11.88,11.88,0,0,1,700,375a7.11,7.11,0,0,1,1.56.65l.76-1.29c-.58-.26-1.19-.49-1.84-.71a19.5,19.5,0,0,0-2.1-.48,15.06,15.06,0,0,0-2.76-.22,14.61,14.61,0,0,0-5.26,1,13.43,13.43,0,0,0-4.43,2.79,13.61,13.61,0,0,0-4.24,10.07,14.13,14.13,0,0,0,1.11,5.72,12.81,12.81,0,0,0,3,4.35,13.7,13.7,0,0,0,4.53,2.78,15.55,15.55,0,0,0,5.51,1,14.44,14.44,0,0,0,2.92-.27,18.57,18.57,0,0,0,2.21-.59,10.85,10.85,0,0,0,1.84-.87l-.76-1.29a7.21,7.21,0,0,1-1.62.81,12.75,12.75,0,0,1-1.94.56,12.24,12.24,0,0,1-2.65.25,13.92,13.92,0,0,1-5.34-1,11.81,11.81,0,0,1-4-2.64,11.69,11.69,0,0,1-2.53-3.94A13.12,13.12,0,0,1,683,386.74Z"/><path d="M558.13,515.7a17.6,17.6,0,0,0,2.48.59,20,20,0,0,0,2.46.44,25.61,25.61,0,0,0,2.78.16c1.65,0,2.48-.61,2.48-1.84a2.06,2.06,0,0,0-.75-1.43,22.93,22.93,0,0,0-1.92-1.62c-.77-.59-1.6-1.25-2.48-2a18.22,18.22,0,0,1-2.49-2.48,13,13,0,0,1-1.91-3.16,10,10,0,0,1-.76-4,10.28,10.28,0,0,1,.92-4.48,9.07,9.07,0,0,1,2.53-3.24,11.48,11.48,0,0,1,3.81-2A15.79,15.79,0,0,1,570,490a24.82,24.82,0,0,1,2.59.13l2.33.24,2.32.33v10.1c-.29,0-.61-.08-1-.11l-1-.11a10.52,10.52,0,0,0-1.14-.05l-.81,0a5.36,5.36,0,0,0-.92.14,1.78,1.78,0,0,0-.75.38.92.92,0,0,0-.33.75c0,.29.25.65.73,1.08s1.08.94,1.78,1.51,1.48,1.25,2.33,2a16.53,16.53,0,0,1,2.32,2.59,15.49,15.49,0,0,1,1.78,3.3,10.93,10.93,0,0,1,.73,4.1,12.82,12.82,0,0,1-.76,4.46,9.3,9.3,0,0,1-2.35,3.61,11.27,11.27,0,0,1-4.07,2.44,17.59,17.59,0,0,1-5.89.89,37.34,37.34,0,0,1-3.81-.19c-1.17-.13-2.2-.28-3.1-.46a26,26,0,0,1-2.86-.65Zm4.53,6.48q.76.17,1.62.27l1.6.19c.55.05,1.12.08,1.7.08a12.51,12.51,0,0,0,2.94-.35,7.47,7.47,0,0,0,2.56-1.16,5.88,5.88,0,0,0,1.81-2.08,6.56,6.56,0,0,0,.68-3.11,6,6,0,0,0-.78-3,14.47,14.47,0,0,0-2-2.7,35.82,35.82,0,0,0-2.59-2.48c-.92-.79-1.79-1.59-2.6-2.4a14.67,14.67,0,0,1-2-2.43,4.53,4.53,0,0,1-.79-2.51,3.71,3.71,0,0,1,1.25-3,6.11,6.11,0,0,1,4-1l.89,0,.89.08a6.36,6.36,0,0,0,.87.06v-1.41a5.77,5.77,0,0,1-.81-.05c-.26,0-.53-.06-.84-.08s-.62,0-.94,0a8.2,8.2,0,0,0-4.81,1.32,4.71,4.71,0,0,0-1.89,4.14,5.49,5.49,0,0,0,.78,2.83,14.09,14.09,0,0,0,2,2.59,35.68,35.68,0,0,0,2.59,2.46c.92.79,1.78,1.59,2.59,2.4a13.34,13.34,0,0,1,2,2.51,5.21,5.21,0,0,1,.79,2.7,4.69,4.69,0,0,1-1.76,4,7.74,7.74,0,0,1-4.83,1.35,19.1,19.1,0,0,1-3.35-.27c-.54-.08-1.06-.17-1.57-.27Z"/><path d="M582.59,508.9a18.42,18.42,0,0,1,1.48-7.35,18.9,18.9,0,0,1,10.07-10.07,19,19,0,0,1,14.69,0,18.9,18.9,0,0,1,10.07,10.07,18.85,18.85,0,0,1,0,14.69,18.9,18.9,0,0,1-10.07,10.07,18.85,18.85,0,0,1-14.69,0,18.9,18.9,0,0,1-10.07-10.07A18.37,18.37,0,0,1,582.59,508.9Zm5.08,0a13.32,13.32,0,0,0,1.08,5.37,13.85,13.85,0,0,0,7.37,7.37,13.89,13.89,0,0,0,10.74,0,13.93,13.93,0,0,0,7.37-7.37,13.92,13.92,0,0,0,0-10.75,13.93,13.93,0,0,0-7.37-7.37,13.89,13.89,0,0,0-10.74,0,13.85,13.85,0,0,0-7.37,7.37A13.33,13.33,0,0,0,587.67,508.9Zm13.82,12.42a12,12,0,0,1-4.83-1,12.58,12.58,0,0,1-6.62-6.61,12.54,12.54,0,0,1,0-9.67,12.58,12.58,0,0,1,6.62-6.61,12.51,12.51,0,0,1,9.66,0,12.68,12.68,0,0,1,6.62,6.61,12.54,12.54,0,0,1,0,9.67,12.57,12.57,0,0,1-2.68,3.94,12.43,12.43,0,0,1-3.94,2.67A12,12,0,0,1,601.49,521.32Zm-7.56-12.42a7.46,7.46,0,0,0,.59,2.94,7.7,7.7,0,0,0,1.62,2.4,7.52,7.52,0,0,0,2.41,1.62,7.5,7.5,0,0,0,5.88,0,7.37,7.37,0,0,0,2.4-1.62,7.56,7.56,0,0,0,1.63-2.4,7.65,7.65,0,0,0,0-5.89,7.66,7.66,0,0,0-4-4,7.62,7.62,0,0,0-5.88,0,7.57,7.57,0,0,0-4,4A7.47,7.47,0,0,0,593.93,508.9Z"/><path d="M638.1,527.8a20.42,20.42,0,0,1-6.16-.87,12.58,12.58,0,0,1-4.69-2.59,11.3,11.3,0,0,1-3-4.37,16.83,16.83,0,0,1-1-6.21v-22.9h11.5v22.41a4.63,4.63,0,0,0,.78,2.89,3.93,3.93,0,0,0,5.24,0,4.63,4.63,0,0,0,.78-2.89V490.86h11.56v22.9a16.83,16.83,0,0,1-1,6.21,11.26,11.26,0,0,1-3,4.37,12.87,12.87,0,0,1-4.72,2.59A20.42,20.42,0,0,1,638.1,527.8Zm0-6.48q-8.1,0-8.1-7.94v-18.2h-1.4v18.2c0,3,.82,5.34,2.45,6.94s4,2.4,7.05,2.4,5.42-.8,7.07-2.4,2.49-3.92,2.49-6.94v-18.2H646.2v18.2Q646.2,521.31,638.1,521.32Z"/><path d="M656.68,490.86h9.45l9.93,13.88V490.86h11.29v36h-9.51L668,513.05v13.83H656.68Zm6.42,31.7V497.61l17.82,24.95h1.41V495.18h-1.41v24.95L663.1,495.18h-1.4v27.38Z"/><path d="M691.13,526.88v-36h10a33.16,33.16,0,0,1,9,1.13,18,18,0,0,1,6.7,3.41A14.68,14.68,0,0,1,721,501a22,22,0,0,1,0,15.6,14.64,14.64,0,0,1-4.16,5.65,18.53,18.53,0,0,1-6.7,3.43,32.35,32.35,0,0,1-9,1.16Zm5.4-4.32h4.59q7.88,0,11.9-3.59t4-10.13q0-6.52-4-10.1t-11.9-3.56h-4.59Zm1.4-1.3V496.48h3.19q6.86,0,10.66,3.1t3.81,9.26q0,6.17-3.81,9.29t-10.66,3.13Zm4.7-4.64a9.25,9.25,0,0,0,6.26-1.92q2.22-1.92,2.22-5.86T708.89,503a9.34,9.34,0,0,0-6.26-1.89Z"/><rect class="cls-15" x="873" y="354" width="165" height="69" rx="12"/><rect class="cls-14" x="875.38" y="355" width="79.62" height="67" rx="12"/><rect class="cls-15" x="868" y="479" width="165" height="69" rx="12"/><rect class="cls-14" x="870.38" y="480" width="79.62" height="67" rx="12"/><line class="cls-21" x1="843" x2="843" y2="163"/><line class="cls-21" x1="843" y1="640" x2="843" y2="901"/><circle class="cls-22" cx="1141" cy="191" r="36"/><rect class="cls-23" x="1135.54" y="155.45" width="10" height="72.01" rx="5" transform="translate(469.44 -750.41) rotate(45)"/><rect class="cls-23" x="1136.54" y="154.45" width="10" height="72.01" rx="5" transform="translate(123.2 740.34) rotate(-37.84)"/></svg>
