<svg id="Layer_1" data-name="Layer 1" xmlns="http://www.w3.org/2000/svg" viewBox="0 0 77 77"><defs><style>.cls-1{fill:#0f0f0f;}.cls-2{fill:#0c0c0c;}</style></defs><title>Settings icon</title><path class="cls-1" d="M38.5,65.34A26.84,26.84,0,1,1,65.34,38.5,26.87,26.87,0,0,1,38.5,65.34Zm0-45.55A18.71,18.71,0,1,0,57.21,38.5,18.73,18.73,0,0,0,38.5,19.79Z"/><rect class="cls-2" x="35.25" width="5.96" height="13.01" rx="2.98"/><rect class="cls-2" x="58.56" y="10.3" width="5.96" height="13.01" rx="2.98" transform="translate(31.97 -39.72) rotate(47.11)"/><rect class="cls-2" x="67.51" y="32.26" width="5.96" height="13.01" rx="2.98" transform="translate(109.26 -31.72) rotate(90)"/><rect class="cls-2" x="59.65" y="52.06" width="5.96" height="13.01" rx="2.98" transform="translate(148.33 55.69) rotate(135)"/><rect class="cls-2" x="36.87" y="63.99" width="5.96" height="13.01" rx="2.98"/><rect class="cls-2" x="13.56" y="54.77" width="5.96" height="13.01" rx="2.98" transform="translate(-12.99 117.45) rotate(-137.16)"/><rect class="cls-2" x="3.52" y="33.89" width="5.96" height="13.01" rx="2.98" transform="translate(-33.89 46.9) rotate(-90)"/><rect class="cls-2" x="11.39" y="11.39" width="5.96" height="13.01" rx="2.98" transform="translate(-8.44 15.4) rotate(-45)"/></svg>