<svg id="Layer_1" data-name="Layer 1" xmlns="http://www.w3.org/2000/svg" xmlns:xlink="http://www.w3.org/1999/xlink" viewBox="0 0 1600 900"><defs><style>.cls-1{fill:url(#linear-gradient);}.cls-2{fill:#7f6924;}.cls-3{fill-opacity:0.15;}.cls-4{fill:url(#linear-gradient-2);}.cls-5{fill:url(#linear-gradient-3);}.cls-6{fill:url(#linear-gradient-4);}.cls-7,.cls-9{opacity:0.15;}.cls-8{fill:url(#linear-gradient-5);}.cls-10{fill:url(#linear-gradient-6);}.cls-11{fill:#2a7c24;}.cls-12{fill:#662b2b;}.cls-13{fill:#0f0f0f;}.cls-14{fill:#0c0c0c;}.cls-15{fill:none;stroke:#14120f;stroke-miterlimit:10;}</style><linearGradient id="linear-gradient" x1="789.52" y1="14.56" x2="810.56" y2="888.76" gradientUnits="userSpaceOnUse"><stop offset="0" stop-color="#aaa100"/><stop offset="0.33" stop-color="#e8e9bb"/><stop offset="0.58" stop-color="#58afff"/></linearGradient><linearGradient id="linear-gradient-2" x1="453.26" y1="636.97" x2="453.26" y2="883.97" gradientUnits="userSpaceOnUse"><stop offset="0" stop-color="#434700"/><stop offset="0.37" stop-color="#89ab5e"/><stop offset="1" stop-color="#69685d"/></linearGradient><linearGradient id="linear-gradient-3" x1="1128.02" y1="646.1" x2="1128.02" y2="884.53" gradientUnits="userSpaceOnUse"><stop offset="0" stop-color="#3c979e"/><stop offset="0.37" stop-color="#89e9bb"/><stop offset="0.58" stop-color="#589c74"/></linearGradient><linearGradient id="linear-gradient-4" x1="1144.19" y1="597.92" x2="1352.24" y2="556.83" gradientUnits="userSpaceOnUse"><stop offset="0" stop-color="#3daa00"/><stop offset="0.31" stop-color="#2ad05e"/><stop offset="0.95" stop-color="#00c486"/></linearGradient><linearGradient id="linear-gradient-5" x1="495.44" y1="649.32" x2="604.47" y2="627.78" xlink:href="#linear-gradient-4"/><linearGradient id="linear-gradient-6" x1="78.16" y1="648.59" x2="243.26" y2="615.97" xlink:href="#linear-gradient-4"/></defs><title>Spil skærm</title><rect class="cls-1" width="1600" height="900"/><path class="cls-2" d="M789,0V870.92c0,16,3.57,29.08,7.93,29.08h21.14c4.36,0,7.93-13.09,7.93-29.08V0Z"/><path class="cls-2" d="M794.38,285.73c-4.76,3.78-6.85,9.14-4.65,11.91l10.68,13.41c2.2,2.77,7.9,1.94,12.65-1.85l263.83-210-18.68-23.47Z"/><path class="cls-2" d="M802.12,240.89c2.21,2.2,6.06,2,8.56-.55l12.1-12.14c2.49-2.51,2.73-6.36.51-8.56L700.55,97.36l-21.17,21.26Z"/><ellipse class="cls-3" cx="161.5" cy="747.96" rx="50.26" ry="12.38"/><path class="cls-4" d="M0,900H906.52c-69.18-156.77-378.23-275-749-275-54,0-106.67,2.51-157.5,7.28Z"/><path class="cls-5" d="M1600,640.62c-152.27-18.22-350.53,4.25-556.25,71.46C893.44,761.19,760.48,827.21,656,900h944Z"/><ellipse class="cls-3" cx="1249.22" cy="723.15" rx="63.33" ry="15.6"/><path class="cls-6" d="M1262.1,632.42l14.66,67.78c4.41,13.92,6.22,31.21-8.37,31.21h-37.07a21.57,21.57,0,0,1-21.57-21.57l12.85-68.38c0-2.7-.14-5.29-.25-7.68a106,106,0,1,1,39.75-1.36Z"/><path class="cls-7" d="M1306.12,798c2.47,2,4.63,3.91,6.67,5.68-64,5.81-78.24,38.29-29.72,77.5A225.19,225.19,0,0,0,1310.75,900H1599a115.7,115.7,0,0,0-19-18.87c-46.22-37.36-134.34-68.61-210.29-76.49l-41.51-50.14c-6.56-10.3-19.85-23.09-40.29-23.09H1236c-16.69,0-21.37,7.14-10.47,16Z"/><ellipse class="cls-3" cx="549.69" cy="726.89" rx="32.97" ry="9.45"/><path class="cls-8" d="M556.39,672,564,713c2.3,8.43,3.24,18.9-4.36,18.9H540.37c-6.2,0-11.23-5.85-11.23-13.06l6.69-41.4c0-1.63-.08-3.2-.13-4.64-26.45-4.75-46.7-31.33-46.7-63.42,0-35.44,24.71-64.17,55.19-64.17s55.19,28.73,55.19,64.17C599.38,640,581,665.53,556.39,672Z"/><g class="cls-9"><path d="M619.75,761.46l-23.64-20.24c-3.73-4.16-11.3-9.32-23-9.32H543.6c-9.5,0-12.17,2.88-6,6.44l45.9,20.42c1.41.8,2.64,1.58,3.8,2.29-36.43,2.34-44.56,15.46-16.93,31.29C600.94,809.83,663.54,824,710.24,824s59.81-14.17,29.29-31.66C713.2,777.26,663,764.64,619.75,761.46Z"/></g><path class="cls-10" d="M171.72,676l11.64,53.79c3.5,11,4.93,24.76-6.65,24.76H147.3a17.12,17.12,0,0,1-17.12-17.11l10.2-54.27c0-2.14-.11-4.19-.2-6.09A84.14,84.14,0,1,1,171.72,676Z"/><path class="cls-7" d="M250.19,799l-31-30.43c-4.9-6.25-14.84-14-30.12-14H150.26c-12.47,0-16,4.34-7.82,9.69l60.23,30.7c1.85,1.22,3.46,2.38,5,3.45-47.81,3.52-58.48,23.24-22.22,47C225.5,871.69,307.65,893,368.94,893s78.5-21.31,38.44-47.6C372.83,822.72,307,803.75,250.19,799Z"/><path class="cls-11" d="M285.2,0C276.06,11.54,271,24.21,271,37.5c0,53.85,82.83,97.5,185,97.5S641,91.35,641,37.5c0-13.29-5.06-26-14.2-37.5Z"/><path class="cls-11" d="M569.25,0c-6,9.52-9.25,19.69-9.25,30.26C560,83.69,642.83,127,745,127S930,83.69,930,30.26c0-10.57-3.25-20.74-9.25-30.26Z"/><path class="cls-11" d="M1196.1,0H881.9C864.22,15.05,854,32.81,854,51.85c0,54.2,82.83,98.15,185,98.15s185-43.95,185-98.15C1224,32.81,1213.78,15.05,1196.1,0Z"/><path class="cls-11" d="M1409.79-1H1154.21C1119,16.75,1097,41.77,1097,69.5c0,53.85,82.83,97.5,185,97.5s185-43.65,185-97.5C1467,41.77,1445,16.75,1409.79-1Z"/><path class="cls-11" d="M1599,0H1320.35C1306.73,13.58,1299,29.07,1299,45.5c0,53.85,82.83,97.5,185,97.5,43.47,0,83.42-7.9,115-21.13Z"/><path class="cls-11" d="M326.57,0H3.43S0,0,3.41,0C5,0-3-3,0,3.39V91.62s0,0,0,0C30.57,123.31,93,145,165,145c102.17,0,185-43.65,185-97.5,0-17.24-8.5-33.44-23.41-47.49Z"/><rect class="cls-12" y="890" width="1600" height="10"/><path class="cls-13" d="M51.5,73.41A26.85,26.85,0,1,1,78.34,46.56,26.88,26.88,0,0,1,51.5,73.41Zm0-45.55a18.71,18.71,0,1,0,18.71,18.7A18.72,18.72,0,0,0,51.5,27.86Z"/><rect class="cls-14" x="48.25" y="8.06" width="5.96" height="13.01" rx="2.98"/><rect class="cls-14" x="71.56" y="18.37" width="5.96" height="13.01" rx="2.98" transform="translate(42.03 -46.67) rotate(47.11)"/><rect class="cls-14" x="80.51" y="40.33" width="5.96" height="13.01" rx="2.98" transform="translate(130.33 -36.66) rotate(90)"/><rect class="cls-14" x="72.65" y="60.12" width="5.96" height="13.01" rx="2.98" transform="translate(176.22 60.26) rotate(135)"/><rect class="cls-14" x="49.87" y="72.05" width="5.96" height="13.01" rx="2.98"/><rect class="cls-14" x="26.56" y="62.83" width="5.96" height="13.01" rx="2.98" transform="translate(4.06 140.27) rotate(-137.16)"/><rect class="cls-14" x="16.52" y="41.95" width="5.96" height="13.01" rx="2.98" transform="translate(-28.95 67.97) rotate(-90)"/><rect class="cls-14" x="24.39" y="19.45" width="5.96" height="13.01" rx="2.98" transform="translate(-10.34 26.96) rotate(-45)"/><polyline class="cls-15" points="1052.94 846.96 1057.22 823.49 1061.5 846.96 1061.5 823.49 1067.21 843.6 1068.63 823.49 1072.2 841.09"/><polyline class="cls-15" points="503.5 838.5 509.5 810.5 515.5 838.5 515.5 810.5 523.5 834.5 525.5 810.5 530.5 831.5"/><polyline class="cls-15" points="330.96 712.7 332.85 703.89 334.74 712.7 334.74 703.89 337.25 711.44 337.88 703.89 339.46 710.49"/><polyline class="cls-15" points="1400.5 683 1403.61 668.5 1406.71 683 1406.71 668.5 1410.86 680.93 1411.89 668.5 1414.48 679.38"/><polyline class="cls-15" points="68.5 778.54 71.72 763.5 74.94 778.54 74.94 763.5 79.24 776.39 80.31 763.5 83 774.78"/><polyline class="cls-15" points="1523.94 821.96 1528.22 798.49 1532.5 821.96 1532.5 798.49 1538.21 818.6 1539.63 798.49 1543.2 816.09"/></svg>