<svg id="Layer_1" data-name="Layer 1" xmlns="http://www.w3.org/2000/svg" xmlns:xlink="http://www.w3.org/1999/xlink" viewBox="0 0 1600 900"><defs><style>.cls-1{fill:url(#linear-gradient);}.cls-2{fill:url(#linear-gradient-2);}.cls-3{fill:#28a528;}.cls-4{fill:#4e754f;}.cls-5{fill:#82581c;}.cls-6{fill:#9b6b1e;}.cls-7{fill:#876217;}.cls-8{fill:#2e9330;}.cls-24,.cls-28,.cls-31,.cls-9{fill:none;stroke-miterlimit:10;}.cls-9{stroke:#111110;stroke-width:0.25px;}.cls-10{fill:#2c7218;}.cls-11{fill:#ba7e1e;}.cls-12{fill:#050505;}.cls-13{fill:#020202;}.cls-14{fill:#fff;}.cls-15{fill:#0a0a09;}.cls-16{fill:#5b3e0c;}.cls-17{fill:#684513;}.cls-18{fill:#1c511c;}.cls-19{fill:#277227;}.cls-20{fill:#991313;}.cls-21{fill:#6b4b1d;}.cls-22{fill:#423116;}.cls-23{fill:#bc1d1d;}.cls-24,.cls-31{stroke:#14120f;}.cls-25{fill:#a1a8b2;}.cls-26{fill:#d6f20a;}.cls-27{fill:#76797c;}.cls-28{stroke:#0a0a09;stroke-width:2px;}.cls-29{fill:#318e24;}.cls-30{fill:#1f4c23;}.cls-31{stroke-width:14px;}.cls-32{fill:#f2f2f2;}</style><linearGradient id="linear-gradient" y1="450.56" x2="1600" y2="450.56" gradientUnits="userSpaceOnUse"><stop offset="0" stop-color="#00e9e9"/><stop offset="0.07" stop-color="#20d4f1"/><stop offset="0.14" stop-color="#38c4f7"/><stop offset="0.21" stop-color="#4ab8fc"/><stop offset="0.29" stop-color="#55b1fe"/><stop offset="0.38" stop-color="#58afff"/></linearGradient><linearGradient id="linear-gradient-2" x1="424.63" y1="46.21" x2="404.34" y2="855.01" gradientUnits="userSpaceOnUse"><stop offset="0.01" stop-color="#00241f"/><stop offset="0.21" stop-color="#30649f"/></linearGradient></defs><title>Start skærm</title><rect class="cls-1" width="1600" height="901.12"/><rect class="cls-2" x="1" width="827" height="900"/><path class="cls-3" d="M818.85,562C425.19,562,94.35,652.29,0,774.56V917.41l.5.67V900.5H1600V736.89C1472.62,634.2,1170.85,562,818.85,562Z"/><path class="cls-4" d="M828,562.52c-390.33-8-737.18,76.67-828,212.2V917.34l.5.66V900.45L828,901"/><path class="cls-5" d="M1328.18,482.34l-55.65,81.84a4.48,4.48,0,0,1-6.16,1.32h0a4.46,4.46,0,0,1-1-6.21L1321,477.45"/><path class="cls-5" d="M1327.59,640.36a4.35,4.35,0,0,1-6.08-.88L1265,563.88c5,1.43-1-4.65.88-6.08h0a4.35,4.35,0,0,1,6.08.87l56.56,75.6a4.36,4.36,0,0,1-.88,6.09"/><path class="cls-5" d="M1389.33,473.19l57.94,80.22a4.47,4.47,0,0,1-.86,6.24h0a4.47,4.47,0,0,1-6.19-1.14l-57.94-80.23"/><path class="cls-5" d="M1400.58,639.91l40.3-85.38c1.08,5.09,3.62-3.1,5.79-2.08h0a4.36,4.36,0,0,1,2.07,5.79l-40.29,85.38"/><rect class="cls-6" x="1465.03" y="326.26" width="103.11" height="8.7" rx="3.5" transform="translate(3035.75 12.09) rotate(155.86)"/><path class="cls-6" d="M1556.16,309.32l-.28-92.21a5.47,5.47,0,0,1,5.43-5.47h0a5.47,5.47,0,0,1,5.46,5.43l.28,92.22c-2.63-6.5-2.43,5.45-5.43,5.46h0A5.46,5.46,0,0,1,1556.16,309.32Z"/><path class="cls-6" d="M1557.92,220.91h0a1.24,1.24,0,0,1-1.75.15l-17.11-14.39a1.25,1.25,0,0,1-.15-1.75h0c.44-.53.66,2.22,1.75-.15l17.11,14.39C1558.29,219.6,1552,215.84,1557.92,220.91Z"/><path class="cls-6" d="M1558,217.65h0c-3.5-10.51-1.36.09-1.68-.51l-10.54-19.72a1.25,1.25,0,0,1,.51-1.68h0c.6-.33.76.22,1.68.51L1558.49,216A1.25,1.25,0,0,1,1558,217.65Z"/><path class="cls-6" d="M1558.36,215.37h0a1.25,1.25,0,0,1-1.24-1.24l-.07-22.36a1.25,1.25,0,0,1,1.24-1.25h0c1.16,2.95,1.24.56,1.24,1.24l.07,22.36A1.24,1.24,0,0,1,1558.36,215.37Z"/><path class="cls-6" d="M1559,214.91h0c-.52-.44-.82-.32-.15-1.75l14.4-17.11c-.17,2.39,1.22-.59,1.75-.15h0a1.25,1.25,0,0,1,.15,1.75l-14.4,17.11A1.25,1.25,0,0,1,1559,214.91Z"/><path class="cls-6" d="M1581.16,208.48h0a1.24,1.24,0,0,1-.72,1.6L1559.51,218c-.64.24,16.09-10.81-1.6-.73h0a1.24,1.24,0,0,1,.72-1.6l20.93-7.87C1580.57,209.62,1580.92,207.84,1581.16,208.48Z"/><path class="cls-7" d="M1146.18,390.36l80.33-49.6a4.37,4.37,0,0,1,6,1.41h0a4.37,4.37,0,0,1-1.42,6l-80.33,49.6c1.87-4.87-4.73.61-6-1.42h0A4.36,4.36,0,0,1,1146.18,390.36Z"/><path class="cls-7" d="M1153.84,394.22,1152,488.61a4.35,4.35,0,0,1-4.43,4.26h0a4.35,4.35,0,0,1-4.26-4.43l1.88-94.39c-3.74.54,2-4.31,4.44-4.26h0C1149,389.77,1151.34,394.79,1153.84,394.22Z"/><path class="cls-7" d="M1148.78,483.63h0a1.26,1.26,0,0,1,1.76-.11l16.77,14.78a1.26,1.26,0,0,1,.11,1.76h0c-.45.51-2-1.86-1.75.11l-16.78-14.79A1.25,1.25,0,0,1,1148.78,483.63Z"/><path class="cls-7" d="M1148.65,486.89h0a1.25,1.25,0,0,1,1.67.55l10.08,20c-1.38.61.07,1.36-.54,1.67h0c-.61.3-.81-2.3-1.67-.55l-10.09-20C1155.49,498,1148,487.2,1148.65,486.89Z"/><path class="cls-7" d="M1148.22,489.16h0a1.23,1.23,0,0,1,1.21,1.27l-.44,22.35a1.25,1.25,0,0,1-1.27,1.22h0c-.68,0-1.22-1.27-1.22-1.27l.45-22.35C1148,497.85,1147.53,489.15,1148.22,489.16Z"/><rect class="cls-8" x="1326.87" y="240.14" width="11.18" height="3.09" rx="1.24" transform="matrix(0.86, -0.51, 0.51, 0.86, 62.62, 712.19)"/><path class="cls-8" d="M1373.25,217.92c-.14,4.13-5.08,10.94-14,19.09s-20.83,7.48-23.45,3.05,2.59-15.23,14-19.09S1373.42,212.78,1373.25,217.92Z"/><line class="cls-9" x1="1335.51" y1="239.53" x2="1372.71" y2="218.24"/><polyline class="cls-9" points="1356.1 238.6 1341.36 236.35 1344.05 223.75"/><polyline class="cls-9" points="1362.39 233.73 1348.85 231.92 1350.41 220.76"/><polyline class="cls-9" points="1367.1 229.49 1356.33 227.49 1359.12 217.85"/><polyline class="cls-9" points="1370.75 225.9 1362.56 224.07 1364.89 216.32"/><path class="cls-10" d="M1462.05,291.05c-21.59-26.25-56.85-36.41-89.58-27.21a82,82,0,0,1-42.78.18c-31.6-8.57-65.61.77-86.73,25.79-18.09,21.44-29.23,52.54-16.44,78.83,22.36,46,34.78,95.65,70.4,115,14.57,7.89,32.65,6.47,48.11.51a17.48,17.48,0,0,1,12.39-.11c14.83,5.43,32.93,10.16,45.82,1,46.89-33.17,53.1-75.41,71.74-118.89C1486.27,339.8,1479.52,312.28,1462.05,291.05Z"/><path class="cls-11" d="M1347.76,276.78h0a4.35,4.35,0,0,1-6.08-.92l-47.24-64c5.37,3.93-1-4.66.91-6.08h0c1.93-1.42,8.19,3.79,6.08.91l47.24,64C1350.75,270.5,1349.68,275.35,1347.76,276.78Z"/><path class="cls-12" d="M1345.74,280.85c-10.28,0-18.79-2.93-20.13-6.71-.19-.55.84-1,2.11-1h2.35c1,0,1.89.34,2.09.79,1.07,2.31,6.75,4.08,13.58,4.08s12.51-1.77,13.58-4.08a2.38,2.38,0,0,1,2.1-.79h2.34c1.27,0,2.3.49,2.11,1C1364.54,277.93,1356,280.85,1345.74,280.85Z"/><path class="cls-13" d="M1322.18,353.11c0,12-10.3,25.35-21.74,21.74-11.81-3.73-21.74-9.74-21.74-21.74s10.52-17.47,21.74-21.74C1313.48,326.4,1322.18,341.1,1322.18,353.11Z"/><path class="cls-13" d="M1425.28,353.11c0,12-12.42,19.25-21.74,21.74-11.6,3.09-21.74-9.74-21.74-21.74s10.14-18.65,21.74-21.74C1412.86,328.88,1425.28,341.1,1425.28,353.11Z"/><path class="cls-14" d="M1321.85,349.48a21.72,21.72,0,0,0-9.76-14.7,9.31,9.31,0,0,0,9.76,14.7Z"/><circle class="cls-14" cx="1288.63" cy="358.7" r="3.73"/><path class="cls-14" d="M1425,349.48a21.72,21.72,0,0,0-9.76-14.7,9.31,9.31,0,0,0,9.76,14.7Z"/><circle class="cls-14" cx="1390.5" cy="363.67" r="3.73"/><path class="cls-15" d="M1356.34,430.13c-28.81,0-52.24-13.35-52.24-29.76h1.71c0,15.71,22.67,28.49,50.53,28.49s50.53-12.78,50.53-28.49h1.71C1408.58,416.78,1385.14,430.13,1356.34,430.13Z"/><path class="cls-15" d="M1356.34,429.49c-31.17,0-48-12.66-56.53-29.12h0c0-1.75,1.92-3.16,4.29-3.16h1.71c2.36,0,7.71,1.9,4.28,3.16h0c0,14,20.75,25.33,46.25,25.33s46.24-11.36,46.24-25.33h0c-5.13-1.26,1.92-3.16,4.29-3.16h1.71c2.36,0,4.28,1.41,4.28,3.16h0C1404.3,416.83,1387.51,429.49,1356.34,429.49Z"/><path class="cls-7" d="M1145.77,488.75h0a1.25,1.25,0,0,1,.8,1.57l-6.84,21.28a1.25,1.25,0,0,1-1.57.81h0c-.65-.21-.8-1.57-.8-1.57l6.85-21.28C1143.11,497,1145.12,488.55,1145.77,488.75Z"/><path class="cls-7" d="M1145.11,486.2h0a1.24,1.24,0,0,1,.13,1.75l-14.66,16.89a1.26,1.26,0,0,1-1.76.12h0c-.51-.45-.12-1.75-.12-1.75l14.66-16.89C1144,486,1144.6,485.75,1145.11,486.2Z"/><path class="cls-16" d="M236.41,551.31,293,626.91c7.38-1,1,4.65-.87,6.08h0c-1.92,1.43-5.42-9.6-6.09-.88l-56.56-75.59c11.27,3.51-1-4.66.88-6.09l2.93.91C235.17,549.9,235,549.39,236.41,551.31Z"/><path class="cls-16" d="M267.83,475l-55.65,81.83a4.47,4.47,0,0,1-6.16,1.32h0c-2-1.34-1.51-3.48-.1-5.55l54.72-82.49c.16,5.36,4.18-2.67,6.16-1.33h0A4.48,4.48,0,0,1,267.83,475Z"/><path class="cls-16" d="M329,465.82l57.94,80.23c-13.29,15.23,1.08,4.84-.86,6.24h0a4.47,4.47,0,0,1-6.19-1.15l-57.94-80.23c5.1,1.68-1.08-4.84.85-6.24h0A4.48,4.48,0,0,1,329,465.82Z"/><path class="cls-16" d="M388.39,550.88,348.1,636.26a4.36,4.36,0,0,1-5.79,2.07h0c-2.16-1-8.43-5-2.08-5.78l40.3-85.39c1.08,5.1,3.62-3.09,5.79-2.07h0C388.48,546.11,376.11,571.21,388.39,550.88Z"/><path class="cls-17" d="M450.8,414.62l-40.95-80.07a4.37,4.37,0,0,1,2.09-5.79h0a4.35,4.35,0,0,1,5.78,2.09l40.17,85.44a4.36,4.36,0,0,1-2.09,5.78h0C453.64,423.09,451.81,416.79,450.8,414.62Z"/><path class="cls-17" d="M461.83,419.64l.66,92.21a5.47,5.47,0,0,1-5.41,5.49h0c-3,0-3-11.46-3-14.45l-.42-76.81c-.53-6.42.32-3.41,1.47-4.61s-.93-7.23,1.21-7.24h0C459.34,414.21,456.86,427.11,461.83,419.64Z"/><path class="cls-17" d="M460.73,508.05h0a1.24,1.24,0,0,1,1.74-.15l17.17,14.32a1.24,1.24,0,0,1,.16,1.75h0c-.43.52-.67-2.22-1.75.16L460.88,509.8C460.36,509.37,466.67,513.11,460.73,508.05Z"/><path class="cls-17" d="M460.68,511.32h0c3.54,10.49,1.36-.1,1.68.5L473,531.5a1.25,1.25,0,0,1-.51,1.68h0c-.6.33-.76-.22-1.68-.5L460.18,513A1.24,1.24,0,0,1,460.68,511.32Z"/><path class="cls-17" d="M460.31,513.6h0a1.25,1.25,0,0,1,1.25,1.23l.16,22.36a1.25,1.25,0,0,1-1.23,1.25h0c-1.18-2.94-1.25-.55-1.26-1.23l-.15-22.36A1.24,1.24,0,0,1,460.31,513.6Z"/><path class="cls-17" d="M459.64,514.06h0c.53.44.83.31.16,1.75L445.47,533c.16-2.4-1.22.59-1.74.16h0a1.24,1.24,0,0,1-.16-1.75l14.32-17.17A1.24,1.24,0,0,1,459.64,514.06Z"/><path class="cls-17" d="M437.54,520.58h0a1.23,1.23,0,0,1,.72-1.6l20.89-8c.64-.24-16,10.88,1.61.72h0a1.24,1.24,0,0,1-.72,1.6l-20.9,8C438.13,519.43,437.78,521.22,437.54,520.58Z"/><path class="cls-16" d="M121.86,402.88l39.74-85.64a4.36,4.36,0,0,1,5.77-2.12h0a4.38,4.38,0,0,1,2.12,5.78l-39.74,85.64c-1.12-5.08-3.61,3.12-5.77,2.12h0A4.37,4.37,0,0,1,121.86,402.88Z"/><path class="cls-16" d="M130.63,405.25,133,499.64a4.35,4.35,0,0,1-4.24,4.45h0a4.35,4.35,0,0,1-4.45-4.23l-2.38-94.39c8.2,39,1.84-4.39,4.23-4.45h0C125.55,401,128.16,405.94,130.63,405.25Z"/><path class="cls-16" d="M130.86,494.8h0a1.25,1.25,0,0,1,1.75-.19l17.42,14a1.24,1.24,0,0,1,.19,1.75h0c-.42.53-2.07-1.76-1.74.19l-17.43-14A1.25,1.25,0,0,1,130.86,494.8Z"/><path class="cls-16" d="M130.87,498.07h0a1.25,1.25,0,0,1,1.7.47l11,19.48c-1.35.68.13,1.36-.47,1.69h0c-.59.34-.91-2.25-1.69-.47l-11-19.48C138.21,508.86,130.28,498.4,130.87,498.07Z"/><path class="cls-16" d="M130.54,500.35h0a1.25,1.25,0,0,1,1.28,1.21l.56,22.36a1.25,1.25,0,0,1-1.21,1.27h0c-.68,0-1.27-1.21-1.27-1.21l-.57-22.35C130.76,509.05,129.86,500.37,130.54,500.35Z"/><path class="cls-16" d="M129.89,500.83h0a1.25,1.25,0,0,1,.19,1.74l-14,17.43c2.57.54-1.21.62-1.74.19h0a1.25,1.25,0,0,1-.19-1.75l14-17.43A1.25,1.25,0,0,1,129.89,500.83Z"/><path class="cls-16" d="M107.9,507.75h0a1.26,1.26,0,0,1,.69-1.62l20.75-8.33a1.24,1.24,0,0,1,1.62.69h0a1.25,1.25,0,0,1-.69,1.61l-20.75,8.34C108.35,507.13,108.16,508.38,107.9,507.75Z"/><rect class="cls-18" x="262.79" y="226.56" width="11.18" height="3.09" rx="1.24" transform="translate(-78.75 168.45) rotate(-30.61)"/><path class="cls-19" d="M309.17,204.34c-.14,4.13-5.07,10.94-14,19.09s-20.83,7.48-23.45,3,2.59-15.23,14-19.08S309.34,199.2,309.17,204.34Z"/><line class="cls-9" x1="271.43" y1="225.95" x2="308.64" y2="204.66"/><polyline class="cls-9" points="292.02 225.03 277.29 222.77 279.98 210.17"/><polyline class="cls-9" points="298.31 220.15 284.77 218.34 286.33 207.19"/><polyline class="cls-9" points="303.03 215.92 292.25 213.92 295.05 204.28"/><polyline class="cls-9" points="306.67 212.32 298.48 210.49 300.81 202.74"/><path class="cls-20" d="M398,277.48c-21.6-26.25-56.86-36.42-89.59-27.22a82,82,0,0,1-42.78.18c-31.6-8.57-65.61.78-86.72,25.79-18.1,21.44-29.23,52.54-16.45,78.83,22.36,46,34.79,95.65,70.41,115,14.57,7.89,32.65,6.47,48.11.51a17.63,17.63,0,0,1,12.39-.11c14.82,5.43,32.93,10.17,45.81,1.05,46.89-33.18,53.1-75.42,71.74-118.9C422.19,326.22,415.45,298.71,398,277.48Z"/><path class="cls-21" d="M283.68,263.2h0a4.36,4.36,0,0,1-6.08-.92l-47.24-63.95c15.32,13.87-1-4.66.92-6.08h0c1.92-1.42,8.18,18.7,6.08.92l47.23,64C278,252,285.6,261.78,283.68,263.2Z"/><path class="cls-12" d="M281.67,267.27c-10.28,0-18.8-2.92-20.13-6.71-.2-.54.84-1,2.1-1H266a2.38,2.38,0,0,1,2.1.79c1.07,2.31,6.75,4.08,13.58,4.09s12.51-1.77,13.57-4.09a2.38,2.38,0,0,1,2.1-.79h2.35c1.27,0,2.3.49,2.1,1C300.46,264.35,291.94,267.27,281.67,267.27Z"/><path class="cls-13" d="M258.1,339.53c0,12-10.29,25.36-21.74,21.74-11.8-3.73-21.74-9.73-21.74-21.74s10.52-17.47,21.74-21.74C249.4,312.82,258.1,327.52,258.1,339.53Z"/><path class="cls-13" d="M361.21,339.53c0,12-12.43,19.25-21.74,21.74-11.6,3.09-21.74-9.73-21.74-21.74s10.14-18.65,21.74-21.74C348.78,315.31,361.21,327.52,361.21,339.53Z"/><path class="cls-14" d="M257.77,335.9A21.69,21.69,0,0,0,248,321.2a9.31,9.31,0,0,0,9.76,14.7Z"/><circle class="cls-14" cx="224.56" cy="345.12" r="3.73"/><path class="cls-14" d="M360.88,335.9a21.69,21.69,0,0,0-9.76-14.7,9.31,9.31,0,0,0,9.76,14.7Z"/><circle class="cls-14" cx="326.42" cy="350.09" r="3.73"/><rect class="cls-15" x="227.04" y="312.82" width="43.48" height="3.73" rx="1.5" transform="translate(190.67 -82.23) rotate(30)"/><rect class="cls-15" x="310.27" y="315.31" width="43.48" height="3.73" rx="1.5" transform="translate(-106.3 180.38) rotate(-26.36)"/><path class="cls-15" d="M296.94,378.66c28.8-.51,52.47,12.42,52.76,28.82l-1.71,0c-.28-15.7-23.17-28.08-51-27.58s-50.29,13.68-50,29.38l-1.72,0C244.94,392.94,268.14,379.18,296.94,378.66Z"/><path class="cls-15" d="M297,379.3c31.16-.56,48.18,11.8,57,28.11h0c0,1.75-1.86,3.2-4.22,3.24l-1.72,0c-2.36,0-14.16-2.2-4.33-3.09h0c-.25-14-21.2-24.95-46.69-24.5s-46,12.19-45.79,26.15h0c14.32.48-1.86,3.2-4.23,3.24l-1.71,0c-2.36,0-4.31-1.34-4.34-3.09h0C249.22,392.81,265.79,379.85,297,379.3Z"/><rect class="cls-20" x="717.5" y="285.87" width="220.5" height="167.13" rx="38.03"/><path class="cls-22" d="M873.28,378.13l-61.55,35.54a9.52,9.52,0,0,1-14.27-8.24V334.35a9.52,9.52,0,0,1,14.27-8.24l61.55,35.54A9.51,9.51,0,0,1,873.28,378.13Z"/><path class="cls-8" d="M483.54,616l.15.85a.18.18,0,0,1-.18.18h0a.21.21,0,0,1-.23-.14l-.15-.85a.18.18,0,0,1,.18-.18h0C483.42,615.85,483.53,615.91,483.54,616Z"/><path class="cls-8" d="M482.6,611.49c.5.18,1.08.94,1.62,2.14a1.69,1.69,0,0,1-.83,2.42,1.92,1.92,0,0,1-1.63-2.15C481.88,612.63,482,611.26,482.6,611.49Z"/><line class="cls-9" x1="483.3" y1="616.06" x2="482.61" y2="611.55"/><polyline class="cls-9" points="484.25 614.01 483.22 615.36 481.81 614.58"/><polyline class="cls-9" points="483.98 613.2 483.06 614.44 481.77 613.83"/><polyline class="cls-9" points="483.7 612.56 482.9 613.53 481.86 612.86"/><polyline class="cls-9" points="483.45 612.06 482.8 612.78 481.97 612.24"/><path class="cls-23" d="M496.15,605.82c-4.33,1-7.4,4.06-8,7.63a7,7,0,0,1-.76,2.24,8.28,8.28,0,0,1-1.42,1.94c-2.68,2.73-3.29,6.44-1.31,9.52a10.23,10.23,0,0,0,8.82,4.84c6.8-.3,13.53.53,17.74-2.15a5.67,5.67,0,0,0,2.54-4.68,1.64,1.64,0,0,1,.18-.67,1.78,1.78,0,0,1,.45-.54c1.43-1.23,2.94-2.8,2.49-4.43-1.65-5.94-6.52-8.28-10.89-11.88C503.38,605.46,499.66,605,496.15,605.82Z"/><path class="cls-11" d="M488.51,616.39h0a.47.47,0,0,1-.43.56l-10.28,2c.76-.36-.63-.09-.7-.34h0c-.08-.24.89-.64.43-.55l10.28-2C487.89,615.84,488.43,616.14,488.51,616.39Z"/><path class="cls-12" d="M488.9,616.75c-.53,1-1.33,1.72-1.86,1.69-.08,0-.08-.12,0-.24l.12-.23a.32.32,0,0,1,.21-.18c.34,0,.85-.49,1.2-1.15s.43-1.3.2-1.5c-.05,0,0-.13,0-.23l.12-.23c.07-.13.18-.21.24-.17C489.51,614.8,489.43,615.75,488.9,616.75Z"/><rect class="cls-8" x="1406.28" y="796.35" width="2.22" height="0.61" rx="0.31" transform="translate(1478.03 -819.02) rotate(62.99)"/><path class="cls-8" d="M1411.58,805c-.81-.08-2.1-1.14-3.6-3s-1.22-4.22-.31-4.68,3,.7,3.6,3S1412.59,805.12,1411.58,805Z"/><line class="cls-9" x1="1407.78" y1="797.28" x2="1411.52" y2="804.91"/><polyline class="cls-9" points="1407.7 801.37 1408.33 798.48 1410.79 799.17"/><polyline class="cls-9" points="1408.59 802.67 1409.11 800.02 1411.3 800.47"/><polyline class="cls-9" points="1409.37 803.66 1409.9 801.55 1411.77 802.23"/><polyline class="cls-9" points="1410.03 804.42 1410.5 802.83 1412 803.38"/><path class="cls-23" d="M1396,821.67a17,17,0,0,0,6.5-17.38,16.31,16.31,0,0,1,.49-8.46,16.67,16.67,0,0,0-4-17.48c-4-3.84-10-6.43-15.38-4.23-9.37,3.85-19.36,5.69-23.62,12.49-1.74,2.79-1.69,6.38-.7,9.51a3.39,3.39,0,0,1,.15,1.27,3.35,3.35,0,0,1-.28,1.18c-1.26,2.87-2.42,6.39-.78,9,6,9.69,14.25,11.45,22.62,15.67C1386.06,825.86,1391.59,824.86,1396,821.67Z"/><path class="cls-11" d="M1400.26,799.24h0a.86.86,0,0,1,.25-1.19l13.24-8.55c-.84,1,.93-.14,1.19.26h0c.26.4-.85,1.57-.26,1.19l-13.23,8.55C1401.46,799.91,1400.51,799.64,1400.26,799.24Z"/><path class="cls-12" d="M1399.47,798.79c.13-2,.82-3.68,1.58-3.89.11,0,.2.17.18.43l0,.46c0,.21-.09.37-.18.4-.47.19-.89,1.29-1,2.64s.2,2.5.64,2.74c.09,0,.14.21.13.42l0,.46c0,.26-.12.45-.23.41C1399.82,802.55,1399.35,800.83,1399.47,798.79Z"/><rect class="cls-8" x="1119.49" y="824.32" width="2.22" height="0.61" rx="0.31" transform="translate(2344.23 1486.8) rotate(172.07)"/><path class="cls-8" d="M1111.32,825.86c.34-.75,1.77-1.62,4-2.43s4.39.23,4.53,1.24-1.64,2.59-4,2.42S1110.9,826.78,1111.32,825.86Z"/><line class="cls-9" x1="1119.87" y1="824.79" x2="1111.44" y2="825.84"/><polyline class="cls-9" points="1116.04 823.38 1118.56 824.92 1117.11 827.02"/><polyline class="cls-9" points="1114.52 823.8 1116.85 825.16 1115.71 827.08"/><polyline class="cls-9" points="1113.33 824.21 1115.15 825.4 1113.9 826.95"/><polyline class="cls-9" points="1112.39 824.59 1113.75 825.55 1112.73 826.79"/><path class="cls-23" d="M1100.67,805.7a17,17,0,0,0,14.3,11.82,16.09,16.09,0,0,1,7.84,3.24,16.69,16.69,0,0,0,17.83,1.91c4.95-2.54,9.36-7.38,9-13.16-.58-10.11.95-20.15-4.09-26.4-2.06-2.56-5.47-3.68-8.76-3.77a3.37,3.37,0,0,1-1.24-.27,3.56,3.56,0,0,1-1-.66c-2.3-2.13-5.24-4.37-8.3-3.69-11.11,2.48-15.47,9.73-22.2,16.26C1100,794.93,1099.1,800.48,1100.67,805.7Z"/><path class="cls-11" d="M1120.48,817h0a.86.86,0,0,1,1,.63l3.75,15.31c-.68-1.13-.17.93-.63,1h0c-.46.11-1.21-1.32-1-.63l-3.75-15.31C1119.45,818,1120,817.16,1120.48,817Z"/><path class="cls-12" d="M1121.16,816.45c1.88.79,3.21,2,3.17,2.77,0,.11-.23.12-.47,0l-.43-.18c-.19-.08-.31-.21-.32-.31,0-.5-.92-1.26-2.17-1.78s-2.42-.64-2.79-.3a.47.47,0,0,1-.45,0l-.43-.18c-.23-.1-.38-.27-.3-.35C1117.5,815.55,1119.28,815.67,1121.16,816.45Z"/><path class="cls-8" d="M563.07,710.37l-.79-1.17a.26.26,0,0,1,.08-.37h0a.28.28,0,0,1,.38.08l.79,1.16a.26.26,0,0,1-.08.37h0A.28.28,0,0,1,563.07,710.37Z"/><path class="cls-8" d="M567.48,716.46c-.73,0-2-.78-3.51-2.24s-1.51-3.53-.75-4,2.73.32,3.52,2.25S568.4,716.45,567.48,716.46Z"/><line class="cls-9" x1="563.32" y1="710.14" x2="567.42" y2="716.37"/><polyline class="cls-9" points="563.66 713.68 563.93 711.13 566.19 711.48"/><polyline class="cls-9" points="564.58 714.73 564.78 712.38 566.78 712.55"/><polyline class="cls-9" points="565.38 715.5 565.64 713.63 567.37 714.03"/><polyline class="cls-9" points="566.05 716.1 566.3 714.67 567.7 715.01"/><path class="cls-23" d="M555.28,732.39a14.48,14.48,0,0,0,4-15.67,13.87,13.87,0,0,1-.71-3.72,13.65,13.65,0,0,1,.31-3.65,14.31,14.31,0,0,0-5.35-14.73c-4-2.93-9.58-4.58-14.14-2.16-8,4.25-16.68,6.81-19.79,13.12-1.28,2.57-.87,5.68.33,8.29a3,3,0,0,1,.13,2.13c-.84,2.61-1.52,5.77.21,7.91,6.31,7.8,13.86,8.51,21.75,11.35A13,13,0,0,0,555.28,732.39Z"/><path class="cls-11" d="M556.81,712.57h0a.73.73,0,0,1,.11-1.05l10.94-8.69c-.65,1,.82-.21,1.09.11h0c.27.32-.6,1.44-.11,1l-10.94,8.69C558,713,557.08,712.89,556.81,712.57Z"/><path class="cls-12" d="M556.07,712.26c-.09-1.77.35-3.26,1-3.53.1,0,.19.14.2.36l0,.4c0,.18,0,.33-.13.37-.4.2-.66,1.2-.6,2.38s.42,2.14.84,2.3a.4.4,0,0,1,.16.35l0,.41c0,.22-.07.4-.16.37C556.75,715.47,556.16,714,556.07,712.26Z"/><path class="cls-8" d="M798.91,704.78l1.09-.33a.21.21,0,0,1,.27.11h0a.18.18,0,0,1-.13.24l-1.08.33a.22.22,0,0,1-.28-.11h0A.18.18,0,0,1,798.91,704.78Z"/><path class="cls-8" d="M793.2,706.68c.13-.5,1-1.2,2.47-2s3.1-.4,3.34.19-.78,1.78-2.46,2S793,707.29,793.2,706.68Z"/><line class="cls-9" x1="799.04" y1="704.98" x2="793.28" y2="706.65"/><polyline class="cls-9" points="796.15 704.6 798.14 705.22 797.42 706.67"/><polyline class="cls-9" points="795.15 705.03 796.98 705.57 796.46 706.88"/><polyline class="cls-9" points="794.37 705.43 795.82 705.93 795.16 707.02"/><polyline class="cls-9" points="793.77 705.78 794.86 706.19 794.32 707.07"/><path class="cls-23" d="M782.87,695.77c2.28,3.67,6.9,5.73,11.7,5.4a13.39,13.39,0,0,1,6,1,13.46,13.46,0,0,0,12.76-1c3.11-2.15,5.51-5.63,4.46-9.09-1.85-6.06-2.21-12.34-6.63-15.51a9.31,9.31,0,0,0-6.67-1.2,3.16,3.16,0,0,1-.92,0,2.78,2.78,0,0,1-.81-.28c-1.91-1-4.3-2-6.34-1.21-7.43,2.87-9.46,7.81-13.24,12.59C780.84,689.32,781,692.8,782.87,695.77Z"/><path class="cls-11" d="M798.36,700.2h0a.68.68,0,0,1,.83.26l4.8,8.82c-.64-.6,0,.58-.29.71h0c-.31.12-1-.66-.82-.26l-4.81-8.82C797.78,700.89,798.06,700.33,798.36,700.2Z"/><path class="cls-12" d="M798.76,699.76c1.43.25,2.53.8,2.61,1.29,0,.07-.14.1-.32.07l-.33,0c-.14,0-.25-.09-.27-.15-.08-.3-.82-.65-1.77-.81a2.72,2.72,0,0,0-2,.16.4.4,0,0,1-.32.05l-.32-.06c-.18,0-.31-.11-.27-.17C796.06,699.67,797.33,699.52,798.76,699.76Z"/><path class="cls-8" d="M698.05,621.2l-.56-.79a.17.17,0,0,1,0-.25h0a.19.19,0,0,1,.26,0l.56.79a.17.17,0,0,1-.05.25h0A.19.19,0,0,1,698.05,621.2Z"/><path class="cls-8" d="M701.16,625.31a4.6,4.6,0,0,1-2.44-1.49c-1.06-1-1.09-2.39-.57-2.74s1.87.18,2.44,1.49S701.79,625.29,701.16,625.31Z"/><line class="cls-9" x1="698.21" y1="621.04" x2="701.12" y2="625.25"/><polyline class="cls-9" points="698.5 623.46 698.65 621.71 700.2 621.92"/><polyline class="cls-9" points="699.15 624.16 699.25 622.55 700.62 622.64"/><polyline class="cls-9" points="699.7 624.68 699.85 623.4 701.05 623.65"/><polyline class="cls-9" points="700.17 625.08 700.32 624.1 701.28 624.31"/><path class="cls-23" d="M693,636.4a10,10,0,0,0,2.54-10.8,9.22,9.22,0,0,1-.39-5,9.82,9.82,0,0,0-3.88-10c-2.76-1.95-6.64-3-9.72-1.28-5.39,3-11.33,4.9-13.36,9.27a6.68,6.68,0,0,0,.35,5.68,1.79,1.79,0,0,1,.19.73,2.24,2.24,0,0,1-.07.73c-.54,1.79-1,4,.26,5.41,4.44,5.25,9.62,5.63,15.06,7.47A8.93,8.93,0,0,0,693,636.4Z"/><path class="cls-11" d="M693.79,622.8h0a.51.51,0,0,1,.06-.73l7.36-6.1c-.43.66.56-.16.75,0h0c.19.22-.39,1-.06.73l-7.36,6.1C694.58,623.1,694,623,693.79,622.8Z"/><path class="cls-12" d="M693.28,622.59c-.09-1.21.19-2.24.64-2.43.07,0,.13.09.14.24l0,.28c0,.12,0,.23-.08.25-.27.15-.44.83-.38,1.64s.32,1.46.61,1.57c.06,0,.1.11.11.24l0,.27c0,.15,0,.28-.1.26C693.8,624.79,693.37,623.81,693.28,622.59Z"/><path class="cls-8" d="M1005,654.82l.8-.76a.16.16,0,0,1,.26.06h0a.32.32,0,0,1,0,.35l-.8.76a.17.17,0,0,1-.27-.06h0A.3.3,0,0,1,1005,654.82Z"/><path class="cls-8" d="M1000.82,659.06a6.8,6.8,0,0,1,1.5-3.29c1-1.44,2.44-1.5,2.81-.82s-.16,2.51-1.5,3.29S1000.85,659.89,1000.82,659.06Z"/><line class="cls-9" x1="1005.17" y1="655.03" x2="1000.88" y2="659"/><polyline class="cls-9" points="1002.68 655.47 1004.49 655.63 1004.3 657.71"/><polyline class="cls-9" points="1001.97 656.35 1003.63 656.45 1003.56 658.28"/><polyline class="cls-9" points="1001.45 657.1 1002.77 657.27 1002.53 658.87"/><polyline class="cls-9" points="1001.04 657.73 1002.05 657.91 1001.85 659.2"/><path class="cls-23" d="M989.3,648.42c2.89,4,7.27,5.12,11.14,3.18a7.69,7.69,0,0,1,5.18-.62c3.92,1,8-1,10.25-5.37,2-3.72,3-8.92,1.18-13-3.18-7.15-5.2-15-9.71-17.67-1.85-1.08-4-.6-5.84.57a1.64,1.64,0,0,1-.75.28,1.59,1.59,0,0,1-.75-.09c-1.85-.67-4.09-1.19-5.56.46-5.34,6-5.66,13-7.47,20.26A14.49,14.49,0,0,0,989.3,648.42Z"/><path class="cls-11" d="M1003.3,649.16h0a.45.45,0,0,1,.75.07l6.38,9.72c-.69-.57.17.74,0,1h0c-.21.25-1-.51-.74-.07l-6.38-9.72C1003,650.22,1003.08,649.42,1003.3,649.16Z"/><path class="cls-12" d="M1003.51,648.48c1.24-.15,2.3.21,2.5.81,0,.08-.09.18-.24.19l-.28,0c-.13,0-.24,0-.27-.1-.15-.36-.86-.57-1.68-.48s-1.5.46-1.61.85a.28.28,0,0,1-.24.16l-.29,0c-.15,0-.28-.05-.27-.14C1001.26,649.21,1002.26,648.62,1003.51,648.48Z"/><rect class="cls-8" x="252.83" y="677.21" width="1.41" height="0.39" rx="0.19" transform="translate(317.71 -43.04) rotate(25.61)"/><path class="cls-8" d="M258.87,680a4.81,4.81,0,0,1-3-.13c-1.47-.36-2.24-1.65-2-2.24s1.77-.79,3,.13S259.42,679.66,258.87,680Z"/><line class="cls-9" x1="253.97" y1="677.57" x2="258.8" y2="679.97"/><polyline class="cls-9" points="255.51 679.66 254.72 677.96 256.22 677.36"/><polyline class="cls-9" points="256.46 679.98 255.7 678.43 256.98 677.82"/><polyline class="cls-9" points="257.23 680.17 256.69 678.91 257.89 678.52"/><polyline class="cls-9" points="257.86 680.3 257.48 679.32 258.45 679.02"/><path class="cls-23" d="M257.44,694.4A10.76,10.76,0,0,0,254,683.14a10.51,10.51,0,0,1-1.83-2.07,9.83,9.83,0,0,1-1.18-2.39,10.59,10.59,0,0,0-8.77-7.27c-3.5-.39-7.53.62-9.39,3.8-3.24,5.55-7.56,10.32-7.09,15.4a7.33,7.33,0,0,0,3.31,5.06,2.42,2.42,0,0,1,.57.58,2.36,2.36,0,0,1,.31.71c.47,1.93,1.24,4.15,3.09,4.86,6.75,2.58,11.6.28,17.45-.81A9.06,9.06,0,0,0,257.44,694.4Z"/><path class="cls-11" d="M250.94,681.46h0a.54.54,0,0,1-.33-.7l3.38-9.41c0,.83.41-.43.7-.33h0c.28.1.17,1.12.33.7l-3.39,9.41C251.8,681.33,251.22,681.56,250.94,681.46Z"/><path class="cls-12" d="M250.37,681.53c-.72-1.07-1-2.17-.71-2.57.05-.06.17,0,.26.15l.16.24a.3.3,0,0,1,.07.28c-.17.27,0,1,.52,1.7s1.06,1.18,1.37,1.13c.07,0,.16.06.23.17l.17.24c.09.14.11.28,0,.3C252,683.29,251.09,682.61,250.37,681.53Z"/><rect class="cls-8" x="1252.91" y="662.4" width="1.62" height="0.45" rx="0.22" transform="translate(411.95 -478.56) rotate(25.73)"/><path class="cls-8" d="M1259.85,665.63c-.51.32-1.72.27-3.42-.15s-2.57-1.91-2.24-2.58,2-.91,3.41.15S1260.48,665.24,1259.85,665.63Z"/><line class="cls-9" x1="1254.23" y1="662.82" x2="1259.77" y2="665.59"/><polyline class="cls-9" points="1255.99 665.23 1255.08 663.27 1256.81 662.59"/><polyline class="cls-9" points="1257.08 665.59 1256.21 663.82 1257.68 663.11"/><polyline class="cls-9" points="1257.96 665.82 1257.34 664.36 1258.73 663.93"/><polyline class="cls-9" points="1258.69 665.97 1258.25 664.84 1259.37 664.5"/><path class="cls-23" d="M1258.17,682.18a12.39,12.39,0,0,0-3.91-13,11.51,11.51,0,0,1-2.09-2.38,11.23,11.23,0,0,1-1.36-2.76,12.17,12.17,0,0,0-10.06-8.37c-4-.46-8.66.7-10.8,4.34-3.74,6.38-8.73,11.86-8.2,17.69a8.41,8.41,0,0,0,3.8,5.83,2.59,2.59,0,0,1,.65.67,2.48,2.48,0,0,1,.35.82c.54,2.22,1.42,4.77,3.55,5.59,7.75,3,13.33.35,20.06-.89A10.38,10.38,0,0,0,1258.17,682.18Z"/><path class="cls-11" d="M1250.72,667.28h0a.63.63,0,0,1-.37-.8l3.91-10.82c0,1,.48-.49.8-.37h0c.33.11.2,1.29.38.8l-3.91,10.81C1251.72,667.14,1251.05,667.4,1250.72,667.28Z"/><path class="cls-12" d="M1250.07,667.37c-.82-1.24-1.15-2.5-.8-3,0-.06.19,0,.29.18l.19.28c.08.12.11.25.07.31-.19.32,0,1.14.6,2s1.21,1.36,1.58,1.3c.07,0,.18.07.26.19l.19.28c.1.16.12.32,0,.34C1251.93,669.39,1250.89,668.6,1250.07,667.37Z"/><rect class="cls-8" x="866.11" y="591.22" width="1.34" height="0.37" rx="0.18" transform="translate(398.75 1530.56) rotate(-97.82)"/><path class="cls-8" d="M866.05,585.8a4.58,4.58,0,0,1,1.46,2.43c.48,1.35-.14,2.65-.75,2.73s-1.57-1-1.46-2.43S865.49,585.54,866.05,585.8Z"/><line class="cls-9" x1="866.68" y1="590.97" x2="866.06" y2="585.88"/><polyline class="cls-9" points="867.53 588.65 866.6 590.18 865.34 589.29"/><polyline class="cls-9" points="867.29 587.73 866.46 589.14 865.3 588.46"/><polyline class="cls-9" points="867.04 587.02 866.32 588.11 865.38 587.36"/><polyline class="cls-9" points="866.81 586.45 866.23 587.27 865.48 586.65"/><path class="cls-23" d="M878.24,579.39a10.25,10.25,0,0,0-7.16,8.63,9.62,9.62,0,0,1-.68,2.53,9.84,9.84,0,0,1-1.28,2.2,10.07,10.07,0,0,0-1.18,10.77c1.53,3,4.44,5.66,7.94,5.47,6.11-.34,12.17.6,16-2.44a7,7,0,0,0,2.29-5.29,2,2,0,0,1,.17-.75,1.94,1.94,0,0,1,.4-.62c1.28-1.38,2.64-3.16,2.24-5-1.49-6.71-5.87-9.36-9.8-13.43A8.6,8.6,0,0,0,878.24,579.39Z"/><path class="cls-11" d="M871.36,591.35h0a.51.51,0,0,1-.38.62l-9.25,2.25c.68-.41-.56-.1-.63-.38h0c-.07-.28.8-.73.38-.63l9.25-2.25C870.81,590.72,871.29,591.07,871.36,591.35Z"/><path class="cls-12" d="M871.72,591.76c-.48,1.13-1.2,1.94-1.68,1.91-.07,0-.07-.14,0-.28l.11-.26a.28.28,0,0,1,.18-.2c.31,0,.76-.55,1.08-1.31s.39-1.46.18-1.68a.29.29,0,0,1,0-.27l.11-.26c.06-.14.16-.23.21-.19C872.27,589.55,872.2,590.62,871.72,591.76Z"/><rect class="cls-8" x="338.32" y="859.93" width="2.22" height="0.61" rx="0.31" transform="translate(232.23 1778.79) rotate(-151.81)"/><path class="cls-8" d="M331.21,855.77c.72-.41,2.38-.27,4.67.4s3.41,2.77,2.93,3.67-2.85,1.12-4.67-.41S330.32,856.26,331.21,855.77Z"/><line class="cls-9" x1="338.75" y1="859.94" x2="331.32" y2="855.82"/><polyline class="cls-9" points="336.48 856.55 337.61 859.28 335.2 860.12"/><polyline class="cls-9" points="335.01 855.98 336.09 858.46 334.04 859.35"/><polyline class="cls-9" points="333.81 855.62 334.57 857.65 332.65 858.17"/><polyline class="cls-9" points="332.82 855.37 333.35 856.95 331.8 857.35"/><path class="cls-23" d="M334.49,833.2a17,17,0,0,0,4.59,18,16.42,16.42,0,0,1,2.73,3.38,15.92,15.92,0,0,1,1.69,3.86,16.68,16.68,0,0,0,13.28,12.05c5.49.87,11.91-.44,15.05-5.3,5.49-8.51,12.64-15.72,12.26-23.74-.16-3.28-2.26-6.2-4.85-8.21a3.36,3.36,0,0,1-.85-1,3.25,3.25,0,0,1-.44-1.14c-.6-3.07-1.66-6.63-4.53-7.87-10.44-4.55-18.24-1.26-27.52,0C340.27,824.09,336.3,828.06,334.49,833.2Z"/><path class="cls-11" d="M343.81,854h0a.87.87,0,0,1,.47,1.13l-6,14.57c.11-1.31-.69.65-1.13.47h0c-.44-.18-.2-1.78-.47-1.12l6-14.58C342.44,854.18,343.37,853.86,343.81,854Z"/><path class="cls-12" d="M344.71,854c1.05,1.74,1.43,3.48.93,4.1-.08.09-.27,0-.4-.25l-.24-.4a.52.52,0,0,1-.08-.44c.28-.42,0-1.56-.7-2.72s-1.58-1.94-2.09-1.88c-.09,0-.24-.1-.35-.28l-.24-.39c-.13-.22-.15-.44,0-.47C342.28,851.08,343.65,852.22,344.71,854Z"/><path class="cls-8" d="M374.94,240.81l.38-1a.24.24,0,0,1,.29-.14h0a.22.22,0,0,1,.15.27l-.38,1a.23.23,0,0,1-.29.13h0A.22.22,0,0,1,374.94,240.81Z"/><path class="cls-8" d="M373.08,246.46c-.39-.44-.5-1.59-.29-3.22s1.61-2.64,2.34-2.41,1.19,1.8.28,3.21S373.56,247,373.08,246.46Z"/><line class="cls-9" x1="375.22" y1="240.85" x2="373.11" y2="246.38"/><polyline class="cls-9" points="372.99 242.79 374.87 241.7 375.79 243.25"/><polyline class="cls-9" points="372.76 243.85 374.46 242.83 375.37 244.12"/><polyline class="cls-9" points="372.64 244.71 374.05 243.96 374.67 245.2"/><polyline class="cls-9" points="372.58 245.41 373.68 244.87 374.17 245.87"/><path class="cls-10" d="M356,246.84a13.16,13.16,0,0,0,12.7-5.2,11.66,11.66,0,0,1,2.16-2.24,12.43,12.43,0,0,1,2.63-1.6c4.38-1.93,7.29-5.94,7.23-10.41-.05-3.83-1.82-8-5.81-9.61-7-2.75-13.2-6.77-19.07-5.58a8.52,8.52,0,0,0-5.45,4.25,2.63,2.63,0,0,1-1.38,1.11c-2.19.77-4.69,1.9-5.25,4-2,7.62,1.37,12.53,3.5,18.69C348.55,244,352,246.21,356,246.84Z"/><path class="cls-11" d="M370.22,238.1h0a.65.65,0,0,1,.77-.45L382.51,240c-1,.07.57.39.49.7h0c-.08.32-1.29.34-.77.45l-11.52-2.38C370.5,239,370.14,238.42,370.22,238.1Z"/><path class="cls-12" d="M370.05,237.5c1.16-.92,2.4-1.38,2.91-1.11.08,0,0,.19-.13.3l-.27.21a.36.36,0,0,1-.31.1c-.34-.14-1.15.19-1.92.8s-1.23,1.3-1.13,1.63c0,.07,0,.18-.16.27l-.26.21c-.14.11-.3.15-.34.08C368.23,239.48,368.9,238.42,370.05,237.5Z"/><path class="cls-8" d="M469.94,200.81l.38-1a.24.24,0,0,1,.29-.14h0a.22.22,0,0,1,.15.27l-.38,1a.23.23,0,0,1-.29.13h0A.22.22,0,0,1,469.94,200.81Z"/><path class="cls-8" d="M468.08,206.46c-.39-.44-.5-1.59-.29-3.22s1.61-2.64,2.34-2.41,1.19,1.8.28,3.21S468.56,207,468.08,206.46Z"/><line class="cls-9" x1="470.22" y1="200.85" x2="468.11" y2="206.38"/><polyline class="cls-9" points="467.99 202.79 469.87 201.7 470.79 203.25"/><polyline class="cls-9" points="467.76 203.85 469.46 202.83 470.37 204.12"/><polyline class="cls-9" points="467.64 204.71 469.05 203.96 469.67 205.2"/><polyline class="cls-9" points="467.58 205.41 468.68 204.87 469.17 205.87"/><path class="cls-10" d="M451,206.84a13.16,13.16,0,0,0,12.7-5.2,11.66,11.66,0,0,1,2.16-2.24,12.43,12.43,0,0,1,2.63-1.6c4.38-1.93,7.29-5.94,7.23-10.41-.05-3.83-1.82-8-5.81-9.61-7-2.75-13.2-6.77-19.07-5.58a8.52,8.52,0,0,0-5.45,4.25,2.63,2.63,0,0,1-1.38,1.11c-2.19.77-4.69,1.9-5.25,4-2,7.62,1.37,12.53,3.5,18.69C443.55,204,447,206.21,451,206.84Z"/><path class="cls-11" d="M465.22,198.1h0a.65.65,0,0,1,.77-.45L477.51,200c-1,.07.57.39.49.7h0c-.08.32-1.29.34-.77.45l-11.52-2.38C465.5,199,465.14,198.42,465.22,198.1Z"/><path class="cls-12" d="M465.05,197.5c1.16-.92,2.4-1.38,2.91-1.11.08,0,0,.19-.13.3l-.27.21a.36.36,0,0,1-.31.1c-.34-.14-1.15.19-1.92.8s-1.23,1.3-1.13,1.63c0,.07,0,.18-.16.27l-.26.21c-.14.11-.3.15-.34.08C463.23,199.48,463.9,198.42,465.05,197.5Z"/><path class="cls-8" d="M315.94,166.81l.38-1a.24.24,0,0,1,.29-.14h0a.22.22,0,0,1,.15.27l-.38,1a.23.23,0,0,1-.29.13h0A.22.22,0,0,1,315.94,166.81Z"/><path class="cls-8" d="M314.08,172.46c-.39-.44-.5-1.59-.29-3.22s1.61-2.64,2.34-2.41,1.19,1.8.28,3.21S314.56,173,314.08,172.46Z"/><line class="cls-9" x1="316.22" y1="166.85" x2="314.11" y2="172.38"/><polyline class="cls-9" points="313.99 168.79 315.87 167.7 316.79 169.25"/><polyline class="cls-9" points="313.76 169.85 315.46 168.83 316.37 170.12"/><polyline class="cls-9" points="313.64 170.71 315.05 169.96 315.67 171.2"/><polyline class="cls-9" points="313.58 171.41 314.68 170.87 315.17 171.87"/><path class="cls-10" d="M297,172.84a13.16,13.16,0,0,0,12.7-5.2,11.66,11.66,0,0,1,2.16-2.24,12.43,12.43,0,0,1,2.63-1.6c4.38-1.93,7.29-5.94,7.23-10.41-.05-3.83-1.82-8-5.81-9.61-7-2.75-13.2-6.77-19.07-5.58a8.52,8.52,0,0,0-5.45,4.25,2.63,2.63,0,0,1-1.38,1.11c-2.19.77-4.69,1.9-5.25,4-2,7.62,1.37,12.53,3.5,18.69C289.55,170,293,172.21,297,172.84Z"/><path class="cls-11" d="M311.22,164.1h0a.65.65,0,0,1,.77-.45L323.51,166c-1,.07.57.39.49.7h0c-.08.32-1.29.34-.77.45l-11.52-2.38C311.5,165,311.14,164.42,311.22,164.1Z"/><path class="cls-12" d="M311.05,163.5c1.16-.92,2.4-1.38,2.91-1.11.08,0,0,.19-.13.3l-.27.21a.36.36,0,0,1-.31.1c-.34-.14-1.15.19-1.92.8s-1.23,1.3-1.13,1.63c0,.07,0,.18-.16.27l-.26.21c-.14.11-.3.15-.34.08C309.23,165.48,309.9,164.42,311.05,163.5Z"/><path class="cls-8" d="M119.94,226.81l.38-1a.24.24,0,0,1,.29-.14h0a.22.22,0,0,1,.15.27l-.38,1a.23.23,0,0,1-.29.13h0A.22.22,0,0,1,119.94,226.81Z"/><path class="cls-8" d="M118.08,232.46c-.39-.44-.5-1.59-.29-3.22s1.61-2.64,2.34-2.41,1.19,1.8.28,3.21S118.56,233,118.08,232.46Z"/><line class="cls-9" x1="120.22" y1="226.85" x2="118.11" y2="232.38"/><polyline class="cls-9" points="117.99 228.79 119.87 227.7 120.79 229.25"/><polyline class="cls-9" points="117.76 229.85 119.46 228.83 120.36 230.12"/><polyline class="cls-9" points="117.64 230.71 119.05 229.96 119.67 231.2"/><polyline class="cls-9" points="117.58 231.41 118.68 230.87 119.17 231.87"/><path class="cls-10" d="M101,232.84a13.16,13.16,0,0,0,12.7-5.2,11.66,11.66,0,0,1,2.16-2.24,12.43,12.43,0,0,1,2.63-1.6c4.38-1.93,7.29-5.94,7.23-10.41,0-3.83-1.82-8-5.81-9.61-7-2.75-13.2-6.77-19.07-5.58a8.52,8.52,0,0,0-5.45,4.25A2.63,2.63,0,0,1,94,203.56c-2.19.77-4.69,1.9-5.25,4-2,7.62,1.37,12.53,3.5,18.69C93.55,230,97,232.21,101,232.84Z"/><path class="cls-11" d="M115.22,224.1h0a.65.65,0,0,1,.77-.45L127.51,226c-1,.07.57.39.49.7h0c-.08.32-1.29.34-.77.45l-11.52-2.38C115.5,225,115.14,224.42,115.22,224.1Z"/><path class="cls-12" d="M115.05,223.5c1.16-.92,2.4-1.38,2.91-1.11.08,0,0,.19-.13.3l-.27.21a.36.36,0,0,1-.31.1c-.34-.14-1.15.19-1.92.8s-1.23,1.3-1.13,1.63c0,.07,0,.18-.16.27l-.26.21c-.14.11-.3.15-.34.08C113.23,225.48,113.9,224.42,115.05,223.5Z"/><path class="cls-8" d="M679.94,72.81l.38-1a.24.24,0,0,1,.29-.14h0a.22.22,0,0,1,.15.27l-.38,1a.23.23,0,0,1-.29.13h0A.22.22,0,0,1,679.94,72.81Z"/><path class="cls-8" d="M678.08,78.46c-.39-.44-.5-1.59-.29-3.22s1.61-2.64,2.34-2.41,1.19,1.8.28,3.21S678.56,79,678.08,78.46Z"/><line class="cls-9" x1="680.22" y1="72.85" x2="678.11" y2="78.38"/><polyline class="cls-9" points="677.99 74.79 679.87 73.7 680.79 75.25"/><polyline class="cls-9" points="677.76 75.85 679.46 74.83 680.37 76.12"/><polyline class="cls-9" points="677.64 76.71 679.05 75.96 679.67 77.2"/><polyline class="cls-9" points="677.58 77.41 678.68 76.87 679.17 77.87"/><path class="cls-10" d="M661,78.84a13.16,13.16,0,0,0,12.7-5.2,11.66,11.66,0,0,1,2.16-2.24,12.43,12.43,0,0,1,2.63-1.6c4.38-1.93,7.29-5.94,7.23-10.41-.05-3.83-1.82-8-5.81-9.61-7-2.75-13.2-6.77-19.07-5.58a8.52,8.52,0,0,0-5.45,4.25A2.63,2.63,0,0,1,654,49.56c-2.19.77-4.69,1.9-5.25,4-2,7.62,1.37,12.53,3.5,18.69C653.55,76,657,78.21,661,78.84Z"/><path class="cls-11" d="M675.22,70.1h0a.65.65,0,0,1,.77-.45L687.51,72c-1,.07.57.39.49.7h0c-.08.32-1.29.34-.77.45l-11.52-2.38C675.5,71,675.14,70.42,675.22,70.1Z"/><path class="cls-12" d="M675.05,69.5c1.16-.92,2.4-1.38,2.91-1.11.08,0,0,.19-.13.3l-.27.21a.36.36,0,0,1-.31.1c-.34-.14-1.15.19-1.92.8s-1.23,1.3-1.13,1.63c0,.07,0,.18-.16.27l-.26.21c-.14.11-.3.15-.34.08C673.23,71.48,673.9,70.42,675.05,69.5Z"/><path class="cls-8" d="M1057.94,72.81l.38-1a.24.24,0,0,1,.29-.14h0a.22.22,0,0,1,.15.27l-.38,1a.23.23,0,0,1-.29.13h0A.22.22,0,0,1,1057.94,72.81Z"/><path class="cls-8" d="M1056.08,78.46c-.39-.44-.5-1.59-.29-3.22s1.61-2.64,2.34-2.41,1.19,1.8.28,3.21S1056.56,79,1056.08,78.46Z"/><line class="cls-9" x1="1058.22" y1="72.85" x2="1056.11" y2="78.38"/><polyline class="cls-9" points="1055.99 74.79 1057.87 73.7 1058.79 75.25"/><polyline class="cls-9" points="1055.76 75.85 1057.46 74.83 1058.37 76.12"/><polyline class="cls-9" points="1055.64 76.71 1057.05 75.96 1057.67 77.2"/><polyline class="cls-9" points="1055.58 77.41 1056.68 76.87 1057.17 77.87"/><path class="cls-10" d="M1039,78.84a13.16,13.16,0,0,0,12.7-5.2,11.66,11.66,0,0,1,2.16-2.24,12.43,12.43,0,0,1,2.63-1.6c4.38-1.93,7.29-5.94,7.23-10.41,0-3.83-1.82-8-5.81-9.61-7-2.75-13.2-6.77-19.07-5.58a8.52,8.52,0,0,0-5.45,4.25,2.63,2.63,0,0,1-1.38,1.11c-2.19.77-4.69,1.9-5.25,4-2,7.62,1.37,12.53,3.5,18.69C1031.55,76,1035,78.21,1039,78.84Z"/><path class="cls-11" d="M1053.22,70.1h0a.65.65,0,0,1,.77-.45L1065.51,72c-1,.07.57.39.49.7h0c-.08.32-1.29.34-.77.45l-11.52-2.38C1053.5,71,1053.14,70.42,1053.22,70.1Z"/><path class="cls-12" d="M1053.05,69.5c1.16-.92,2.4-1.38,2.91-1.11.08,0,0,.19-.13.3l-.27.21a.36.36,0,0,1-.31.1c-.34-.14-1.15.19-1.92.8s-1.23,1.3-1.13,1.63c0,.07,0,.18-.16.27l-.26.21c-.14.11-.3.15-.34.08C1051.23,71.48,1051.9,70.42,1053.05,69.5Z"/><path class="cls-8" d="M1258.94,123.81l.38-1a.24.24,0,0,1,.29-.14h0a.22.22,0,0,1,.15.27l-.38,1a.23.23,0,0,1-.29.13h0A.22.22,0,0,1,1258.94,123.81Z"/><path class="cls-8" d="M1257.08,129.46c-.39-.44-.5-1.59-.29-3.22s1.61-2.64,2.34-2.41,1.19,1.8.28,3.21S1257.56,130,1257.08,129.46Z"/><line class="cls-9" x1="1259.22" y1="123.85" x2="1257.11" y2="129.38"/><polyline class="cls-9" points="1256.99 125.79 1258.87 124.7 1259.79 126.25"/><polyline class="cls-9" points="1256.76 126.85 1258.46 125.83 1259.37 127.12"/><polyline class="cls-9" points="1256.64 127.71 1258.05 126.96 1258.67 128.2"/><polyline class="cls-9" points="1256.58 128.41 1257.68 127.87 1258.17 128.87"/><path class="cls-10" d="M1240,129.84a13.16,13.16,0,0,0,12.7-5.2,11.66,11.66,0,0,1,2.16-2.24,12.43,12.43,0,0,1,2.63-1.6c4.38-1.93,7.29-5.94,7.23-10.41,0-3.83-1.82-8-5.81-9.61-7-2.75-13.2-6.77-19.07-5.58a8.52,8.52,0,0,0-5.45,4.25,2.63,2.63,0,0,1-1.38,1.11c-2.19.77-4.69,1.9-5.25,4-2,7.62,1.37,12.53,3.5,18.69C1232.55,127,1236,129.21,1240,129.84Z"/><path class="cls-11" d="M1254.22,121.1h0a.65.65,0,0,1,.77-.45l11.52,2.39c-1,.07.57.39.49.7h0c-.08.32-1.29.34-.77.45l-11.52-2.38C1254.5,122,1254.14,121.42,1254.22,121.1Z"/><path class="cls-12" d="M1254.05,120.5c1.16-.92,2.4-1.38,2.91-1.11.08,0,0,.19-.13.3l-.27.21a.36.36,0,0,1-.31.1c-.34-.14-1.15.19-1.92.8s-1.23,1.3-1.13,1.63c0,.07,0,.18-.16.27l-.26.21c-.14.11-.3.15-.34.08C1252.23,122.48,1252.9,121.42,1254.05,120.5Z"/><path class="cls-8" d="M1018.94,275.81l.38-1a.24.24,0,0,1,.29-.14h0a.22.22,0,0,1,.15.27l-.38,1.05a.23.23,0,0,1-.29.13h0A.22.22,0,0,1,1018.94,275.81Z"/><path class="cls-8" d="M1017.08,281.46c-.39-.44-.5-1.59-.29-3.22s1.61-2.64,2.34-2.41,1.19,1.8.28,3.21S1017.56,282,1017.08,281.46Z"/><line class="cls-9" x1="1019.22" y1="275.85" x2="1017.11" y2="281.38"/><polyline class="cls-9" points="1016.99 277.79 1018.87 276.7 1019.79 278.25"/><polyline class="cls-9" points="1016.76 278.85 1018.46 277.83 1019.37 279.12"/><polyline class="cls-9" points="1016.64 279.71 1018.05 278.96 1018.67 280.2"/><polyline class="cls-9" points="1016.58 280.41 1017.68 279.87 1018.17 280.87"/><path class="cls-10" d="M1000,281.84a13.16,13.16,0,0,0,12.7-5.2,11.66,11.66,0,0,1,2.16-2.24,12.43,12.43,0,0,1,2.63-1.6c4.38-1.93,7.29-5.94,7.23-10.41,0-3.83-1.82-8-5.81-9.61-7-2.75-13.2-6.77-19.07-5.58a8.52,8.52,0,0,0-5.45,4.25,2.63,2.63,0,0,1-1.38,1.11c-2.19.77-4.69,1.9-5.25,4-2,7.62,1.37,12.53,3.5,18.69C992.55,279,996,281.21,1000,281.84Z"/><path class="cls-11" d="M1014.22,273.1h0a.65.65,0,0,1,.77-.45l11.52,2.39c-1,.07.57.39.49.7h0c-.08.32-1.29.34-.77.45l-11.52-2.38C1014.5,274,1014.14,273.42,1014.22,273.1Z"/><path class="cls-12" d="M1014.05,272.5c1.16-.92,2.4-1.38,2.91-1.11.08,0,0,.19-.13.3l-.27.21a.36.36,0,0,1-.31.1c-.34-.14-1.15.19-1.92.8s-1.23,1.3-1.13,1.63c0,.07,0,.18-.16.27l-.26.21c-.14.11-.3.15-.34.08C1012.23,274.48,1012.9,273.42,1014.05,272.5Z"/><path class="cls-8" d="M1200.94,441.81l.38-1a.24.24,0,0,1,.29-.14h0a.22.22,0,0,1,.15.27l-.38,1.05a.23.23,0,0,1-.29.13h0A.22.22,0,0,1,1200.94,441.81Z"/><path class="cls-8" d="M1199.08,447.46c-.39-.44-.5-1.59-.29-3.22s1.61-2.64,2.34-2.41,1.19,1.8.28,3.21S1199.56,448,1199.08,447.46Z"/><line class="cls-9" x1="1201.22" y1="441.85" x2="1199.11" y2="447.38"/><polyline class="cls-9" points="1198.99 443.79 1200.87 442.7 1201.79 444.25"/><polyline class="cls-9" points="1198.76 444.85 1200.46 443.83 1201.37 445.12"/><polyline class="cls-9" points="1198.64 445.71 1200.05 444.96 1200.67 446.2"/><polyline class="cls-9" points="1198.58 446.41 1199.68 445.87 1200.17 446.87"/><path class="cls-10" d="M1182,447.84a13.16,13.16,0,0,0,12.7-5.2,11.66,11.66,0,0,1,2.16-2.24,12.43,12.43,0,0,1,2.63-1.6c4.38-1.93,7.29-5.94,7.23-10.41,0-3.83-1.82-8-5.81-9.61-7-2.75-13.2-6.77-19.07-5.58a8.52,8.52,0,0,0-5.45,4.25,2.63,2.63,0,0,1-1.38,1.11c-2.19.77-4.69,1.9-5.25,4-2,7.62,1.37,12.53,3.5,18.69C1174.55,445,1178,447.21,1182,447.84Z"/><path class="cls-11" d="M1196.22,439.1h0a.65.65,0,0,1,.77-.45l11.52,2.39c-1,.07.57.39.49.7h0c-.08.32-1.29.34-.77.45l-11.52-2.38C1196.5,440,1196.14,439.42,1196.22,439.1Z"/><path class="cls-12" d="M1196.05,438.5c1.16-.92,2.4-1.38,2.91-1.11.08,0,0,.19-.13.3l-.27.21a.36.36,0,0,1-.31.1c-.34-.14-1.15.19-1.92.8s-1.23,1.3-1.13,1.63c0,.07,0,.18-.16.27l-.26.21c-.14.11-.3.15-.34.08C1194.23,440.48,1194.9,439.42,1196.05,438.5Z"/><path class="cls-8" d="M1557.94,138.81l.38-1a.24.24,0,0,1,.29-.14h0a.22.22,0,0,1,.15.27l-.38,1a.23.23,0,0,1-.29.13h0A.22.22,0,0,1,1557.94,138.81Z"/><path class="cls-8" d="M1556.08,144.46c-.39-.44-.5-1.59-.29-3.22s1.61-2.64,2.34-2.41,1.19,1.8.28,3.21S1556.56,145,1556.08,144.46Z"/><line class="cls-9" x1="1558.22" y1="138.85" x2="1556.11" y2="144.38"/><polyline class="cls-9" points="1555.99 140.79 1557.87 139.7 1558.79 141.25"/><polyline class="cls-9" points="1555.76 141.85 1557.46 140.83 1558.37 142.12"/><polyline class="cls-9" points="1555.64 142.71 1557.05 141.96 1557.67 143.2"/><polyline class="cls-9" points="1555.58 143.41 1556.68 142.87 1557.17 143.87"/><path class="cls-10" d="M1539,144.84a13.16,13.16,0,0,0,12.7-5.2,11.66,11.66,0,0,1,2.16-2.24,12.43,12.43,0,0,1,2.63-1.6c4.38-1.93,7.29-5.94,7.23-10.41,0-3.83-1.82-8-5.81-9.61-7-2.75-13.2-6.77-19.07-5.58a8.52,8.52,0,0,0-5.45,4.25,2.63,2.63,0,0,1-1.38,1.11c-2.19.77-4.69,1.9-5.25,4-2,7.62,1.37,12.53,3.5,18.69C1531.55,142,1535,144.21,1539,144.84Z"/><path class="cls-11" d="M1553.22,136.1h0a.65.65,0,0,1,.77-.45l11.52,2.39c-1,.07.57.39.49.7h0c-.08.32-1.29.34-.77.45l-11.52-2.38C1553.5,137,1553.14,136.42,1553.22,136.1Z"/><path class="cls-12" d="M1553.05,135.5c1.16-.92,2.4-1.38,2.91-1.11.08,0,0,.19-.13.3l-.27.21a.36.36,0,0,1-.31.1c-.34-.14-1.15.19-1.92.8s-1.23,1.3-1.13,1.63c0,.07,0,.18-.16.27l-.26.21c-.14.11-.3.15-.34.08C1551.23,137.48,1551.9,136.42,1553.05,135.5Z"/><polyline class="cls-24" points="736.5 865.5 742.5 837.5 748.5 865.5 748.5 837.5 756.5 861.5 758.5 837.5 763.5 858.5"/><polyline class="cls-24" points="621.5 729.76 626.06 708.5 630.61 729.76 630.61 708.5 636.68 726.72 638.2 708.5 642 724.44"/><polyline class="cls-24" points="374.5 743.76 379.06 722.5 383.61 743.76 383.61 722.5 389.69 740.72 391.2 722.5 395 738.44"/><polyline class="cls-24" points="1052.5 647.72 1056.83 627.5 1061.17 647.72 1061.17 627.5 1066.94 644.83 1068.39 627.5 1072 642.67"/><polyline class="cls-24" points="1237.5 841.5 1243.5 813.5 1249.5 841.5 1249.5 813.5 1257.5 837.5 1259.5 813.5 1264.5 834.5"/><polyline class="cls-24" points="149.5 811.5 155.5 783.5 161.5 811.5 161.5 783.5 169.5 807.5 171.5 783.5 176.5 804.5"/><path class="cls-25" d="M80.9,9A67.72,67.72,0,0,0,65,10.89a68,68,0,0,1,0,132.22A68,68,0,1,0,80.9,9Z"/><polygon class="cls-26" points="1599 143.5 1599 135.12 1588.77 79.84 1599 103.04 1599 82.57 1597.19 76.7 1599 79.78 1599 0 1427.48 0 1488.73 6.64 1411.8 16.26 1489.33 15.6 1414.04 34.09 1490.96 24.44 1418.32 51.54 1493.61 33.02 1424.61 68.38 1497.24 41.25 1432.81 84.37 1501.79 48.99 1442.81 99.3 1507.22 56.15 1454.47 112.97 1513.44 62.64 1467.64 125.2 1520.37 68.36 1482.15 135.81 1527.92 73.23 1497.78 144.67 1535.98 77.2 1514.34 151.65 1544.45 80.2 1531.6 156.66 1553.21 82.2 1549.32 159.64 1562.14 83.17 1567.27 160.53 1571.13 83.1 1585.2 159.34 1580.04 81.98 1599 143.5"/><ellipse class="cls-27" cx="276.36" cy="50.9" rx="57.32" ry="34.8"/><ellipse class="cls-27" cx="345.97" cy="46.8" rx="57.32" ry="34.8"/><ellipse class="cls-27" cx="288.65" cy="81.2" rx="57.32" ry="34.8"/><ellipse class="cls-27" cx="231.32" cy="62.36" rx="57.32" ry="34.8"/><ellipse class="cls-27" cx="403.29" cy="52.54" rx="57.32" ry="34.8"/><ellipse class="cls-27" cx="345.97" cy="81.2" rx="57.32" ry="34.8"/><line class="cls-28" x1="220" y1="119" x2="219" y2="143"/><line class="cls-28" x1="220" y1="180" x2="219" y2="204"/><line class="cls-28" x1="262" y1="182" x2="261" y2="206"/><line class="cls-28" x1="389" y1="181" x2="388" y2="205"/><line class="cls-28" x1="320" y1="181" x2="319" y2="205"/><line class="cls-28" x1="353" y1="147" x2="352" y2="171"/><line class="cls-28" x1="269" y1="140" x2="268" y2="164"/><line class="cls-28" x1="336" y1="219" x2="335" y2="243"/><line class="cls-28" x1="232" y1="221" x2="231" y2="245"/><line class="cls-28" x1="398" y1="128" x2="397" y2="152"/><line class="cls-28" x1="416" y1="196" x2="415" y2="220"/><path class="cls-8" d="M807.94,503.81l.38-1a.24.24,0,0,1,.29-.14h0a.22.22,0,0,1,.15.27l-.38,1.05a.23.23,0,0,1-.29.13h0A.22.22,0,0,1,807.94,503.81Z"/><path class="cls-8" d="M806.08,509.46c-.39-.44-.5-1.59-.29-3.22s1.61-2.64,2.34-2.41,1.19,1.8.28,3.21S806.56,510,806.08,509.46Z"/><line class="cls-9" x1="808.22" y1="503.85" x2="806.11" y2="509.38"/><polyline class="cls-9" points="805.99 505.79 807.87 504.7 808.79 506.25"/><polyline class="cls-9" points="805.76 506.85 807.46 505.83 808.37 507.12"/><polyline class="cls-9" points="805.64 507.71 807.05 506.96 807.67 508.2"/><polyline class="cls-9" points="805.58 508.41 806.68 507.87 807.17 508.87"/><path class="cls-10" d="M789,509.84a13.16,13.16,0,0,0,12.7-5.2,11.66,11.66,0,0,1,2.16-2.24,12.43,12.43,0,0,1,2.63-1.6c4.38-1.93,7.29-5.94,7.23-10.41-.05-3.83-1.82-8-5.81-9.61-7-2.75-13.2-6.77-19.07-5.58a8.52,8.52,0,0,0-5.45,4.25,2.63,2.63,0,0,1-1.38,1.11c-2.19.77-4.69,1.9-5.25,4-2,7.62,1.37,12.53,3.5,18.69C781.55,507,785,509.21,789,509.84Z"/><path class="cls-11" d="M803.22,501.1h0a.65.65,0,0,1,.77-.45L815.51,503c-1,.07.57.39.49.7h0c-.08.32-1.29.34-.77.45l-11.52-2.38C803.5,502,803.14,501.42,803.22,501.1Z"/><path class="cls-12" d="M803.05,500.5c1.16-.92,2.4-1.38,2.91-1.11.08,0,0,.19-.13.3l-.27.21a.36.36,0,0,1-.31.1c-.34-.14-1.15.19-1.92.8s-1.23,1.3-1.13,1.63c0,.07,0,.18-.16.27l-.26.21c-.14.11-.3.15-.34.08C801.23,502.48,801.9,501.42,803.05,500.5Z"/><path class="cls-8" d="M611.94,390.81l.38-1a.24.24,0,0,1,.29-.14h0a.22.22,0,0,1,.15.27l-.38,1.05a.23.23,0,0,1-.29.13h0A.22.22,0,0,1,611.94,390.81Z"/><path class="cls-8" d="M610.08,396.46c-.39-.44-.5-1.59-.29-3.22s1.61-2.64,2.34-2.41,1.19,1.8.28,3.21S610.56,397,610.08,396.46Z"/><line class="cls-9" x1="612.22" y1="390.85" x2="610.11" y2="396.38"/><polyline class="cls-9" points="609.99 392.79 611.87 391.7 612.79 393.25"/><polyline class="cls-9" points="609.76 393.85 611.46 392.83 612.37 394.12"/><polyline class="cls-9" points="609.64 394.71 611.05 393.96 611.67 395.2"/><polyline class="cls-9" points="609.58 395.41 610.68 394.87 611.17 395.87"/><path class="cls-10" d="M593,396.84a13.16,13.16,0,0,0,12.7-5.2,11.66,11.66,0,0,1,2.16-2.24,12.43,12.43,0,0,1,2.63-1.6c4.38-1.93,7.29-5.94,7.23-10.41-.05-3.83-1.82-8-5.81-9.61-7-2.75-13.2-6.77-19.07-5.58a8.52,8.52,0,0,0-5.45,4.25,2.63,2.63,0,0,1-1.38,1.11c-2.19.77-4.69,1.9-5.25,4-2,7.62,1.37,12.53,3.5,18.69C585.55,394,589,396.21,593,396.84Z"/><path class="cls-11" d="M607.22,388.1h0a.65.65,0,0,1,.77-.45L619.51,390c-1,.07.57.39.49.7h0c-.08.32-1.29.34-.77.45l-11.52-2.38C607.5,389,607.14,388.42,607.22,388.1Z"/><path class="cls-12" d="M607.05,387.5c1.16-.92,2.4-1.38,2.91-1.11.08,0,0,.19-.13.3l-.27.21a.36.36,0,0,1-.31.1c-.34-.14-1.15.19-1.92.8s-1.23,1.3-1.13,1.63c0,.07,0,.18-.16.27l-.26.21c-.14.11-.3.15-.34.08C605.23,389.48,605.9,388.42,607.05,387.5Z"/><line class="cls-28" x1="1246" y1="260" x2="1152" y2="207"/><polygon class="cls-13" points="1258.54 267.82 1237.69 268.22 1247.77 249.96 1258.54 267.82"/><path class="cls-8" d="M826.16,354.19l-1,.51a.26.26,0,0,1-.31-.1h0a.21.21,0,0,1,.08-.3l1-.51a.26.26,0,0,1,.31.1h0A.22.22,0,0,1,826.16,354.19Z"/><path class="cls-8" d="M831.37,351.33c0,.58-.72,1.49-2,2.55s-3,.83-3.35.17.36-2.13,2-2.55S831.39,350.6,831.37,351.33Z"/><line class="cls-9" x1="825.98" y1="353.97" x2="831.29" y2="351.37"/><polyline class="cls-9" points="828.93 354.07 826.82 353.59 827.2 351.83"/><polyline class="cls-9" points="829.83 353.45 827.89 353.04 828.1 351.48"/><polyline class="cls-9" points="830.5 352.9 828.95 352.5 829.35 351.16"/><polyline class="cls-9" points="831.01 352.43 829.84 352.08 830.17 351.01"/><path class="cls-10" d="M844.13,362.68a13.18,13.18,0,0,0-12.84-4.85,11.25,11.25,0,0,1-3.1.17,11.82,11.82,0,0,1-3-.62c-4.53-1.56-9.39-.62-12.39,2.7-2.57,2.84-4.14,7.12-2.29,11,3.24,6.76,5,13.95,10.16,17.08a8.47,8.47,0,0,0,6.88.6,2.5,2.5,0,0,1,.91-.09,2.65,2.65,0,0,1,.87.22c2.12.93,4.71,1.8,6.55.65,6.68-4.18,7.54-10.1,10.17-16.06C847.63,369.86,846.64,365.88,844.13,362.68Z"/><path class="cls-11" d="M827.76,359.39h0a.65.65,0,0,1-.87-.2l-6.8-9.59c.77.62-.15-.67.12-.85h0c.28-.18,1.18.63.87.2l6.81,9.59C828.19,358.53,828,359.21,827.76,359.39Z"/><path class="cls-12" d="M827.48,359.94c-1.47-.11-2.69-.62-2.88-1.17,0-.08.11-.14.3-.12l.33,0a.36.36,0,0,1,.3.14c.16.34,1,.65,2,.73s1.79-.11,1.94-.43c0-.06.15-.1.3-.09l.33,0c.18,0,.33.09.3.17C830.17,359.74,829,360.06,827.48,359.94Z"/><path class="cls-8" d="M825.16,354.19l-1,.51a.26.26,0,0,1-.31-.1h0a.21.21,0,0,1,.08-.3l1-.51a.26.26,0,0,1,.31.1h0A.22.22,0,0,1,825.16,354.19Z"/><path class="cls-8" d="M830.37,351.33c0,.58-.72,1.49-2,2.55s-3,.83-3.35.17.36-2.13,2-2.55S830.39,350.6,830.37,351.33Z"/><line class="cls-9" x1="824.98" y1="353.97" x2="830.29" y2="351.37"/><polyline class="cls-9" points="827.93 354.07 825.82 353.59 826.2 351.83"/><polyline class="cls-9" points="828.83 353.45 826.89 353.04 827.1 351.48"/><polyline class="cls-9" points="829.5 352.9 827.95 352.5 828.35 351.16"/><polyline class="cls-9" points="830.01 352.43 828.84 352.08 829.17 351.01"/><path class="cls-23" d="M826.53,388.75a2.5,2.5,0,0,1,.91-.09,2.65,2.65,0,0,1,.87.22c2.12.93,4.71,1.8,6.55.65,6.68-4.18,7.54-10.1,10.17-16.06,1.6-3.61.61-7.59-1.9-10.79a13.18,13.18,0,0,0-12.84-4.85,11.25,11.25,0,0,1-3.1.17,11.82,11.82,0,0,1-3-.62"/><path class="cls-11" d="M826.89,358.54c.3,0,.15.67-.13.85h0a.65.65,0,0,1-.87-.2"/><path class="cls-12" d="M826.48,359.94c-1.47-.11-2.69-.62-2.88-1.17,0-.08.11-.14.3-.12l.33,0a.36.36,0,0,1,.3.14c.16.34,1,.65,2,.73s1.79-.11,1.94-.43c0-.06.15-.1.3-.09l.33,0c.18,0,.33.09.3.17C829.17,359.74,828,360.06,826.48,359.94Z"/><rect class="cls-29" x="510" y="124" width="661" height="98" rx="49"/><path class="cls-30" d="M1105,209,559,222c-27,0-49-18-49-49h0c0-26.95,39-30,66-30l546-19c39,0,49,22.05,49,49h0C1171,200,1132,209,1105,209Z"/><line class="cls-31" x1="831" y1="453" x2="830" y2="901"/><line class="cls-31" x1="831" y1="222" x2="831" y2="286"/><line class="cls-31" x1="828" x2="828" y2="124"/><line class="cls-28" x1="440" y1="135" x2="439" y2="159"/><path class="cls-32" d="M529.74,167.22a11.75,11.75,0,0,1,1.63-6.14,15.19,15.19,0,0,1,4.43-4.69,21.6,21.6,0,0,1,6.54-3,29.56,29.56,0,0,1,7.93-1,33.75,33.75,0,0,1,5.92.47,37.14,37.14,0,0,1,4.47,1.06,24.51,24.51,0,0,1,3.73,1.49l-6.12,7.86c-.63-.34-1.31-.67-2-1a23,23,0,0,0-2.36-.66,13.93,13.93,0,0,0-3.12-.32,11.31,11.31,0,0,0-3.33.47,9.44,9.44,0,0,0-2.65,1.27A6.24,6.24,0,0,0,543,164.9a4.49,4.49,0,0,0-.64,2.32,4.28,4.28,0,0,0,.67,2.31,6.24,6.24,0,0,0,1.84,1.89,9.37,9.37,0,0,0,2.74,1.28,12.12,12.12,0,0,0,3.44.47,15.23,15.23,0,0,0,3.33-.34,15.55,15.55,0,0,0,2.45-.77,9.6,9.6,0,0,0,2-1.1l6.12,7.85a18.8,18.8,0,0,1-3.73,1.66,39.45,39.45,0,0,1-4.49,1.1,31.79,31.79,0,0,1-6,.51,31,31,0,0,1-8.4-1.08,21.55,21.55,0,0,1-6.65-3,14.46,14.46,0,0,1-4.38-4.69A11.92,11.92,0,0,1,529.74,167.22Zm7.35,0a7.93,7.93,0,0,1,1-3.82,9.5,9.5,0,0,1,2.71-3.1,13.66,13.66,0,0,1,4.26-2.09,19.5,19.5,0,0,1,5.6-.76,21.87,21.87,0,0,1,2.71.15,16.75,16.75,0,0,1,2,.36,9.22,9.22,0,0,1,1.69.51l.82-1c-.63-.2-1.29-.38-2-.55s-1.42-.27-2.27-.38a21.9,21.9,0,0,0-3-.17,20.9,20.9,0,0,0-5.69.76,16,16,0,0,0-4.78,2.19,11.59,11.59,0,0,0-3.33,3.44,8.36,8.36,0,0,0-1.25,4.48,8.56,8.56,0,0,0,1.2,4.5,10.8,10.8,0,0,0,3.29,3.42,16.38,16.38,0,0,0,4.9,2.19,22.51,22.51,0,0,0,5.95.76,21.31,21.31,0,0,0,3.15-.21,24.37,24.37,0,0,0,2.4-.47,13.85,13.85,0,0,0,2-.68l-.82-1a8.3,8.3,0,0,1-1.75.64,17.11,17.11,0,0,1-2.1.45,19.73,19.73,0,0,1-2.86.19,20.15,20.15,0,0,1-5.77-.77,14,14,0,0,1-4.35-2.08,9.35,9.35,0,0,1-2.74-3.1A7.93,7.93,0,0,1,537.09,167.22Z"/><path class="cls-32" d="M578,153h9.33l14.76,28.33H589.83l-1.28-2.55H576.76l-1.28,2.55H563.22ZM571.92,178l1.11-2.12h19.25l1.11,2.12H595l-11.26-21.53h-2.22L570.28,178Zm10.73-20.51,9.1,17.37h-18.2Zm2.63,15.12-2.63-5-2.62,5Z"/><path class="cls-32" d="M608.09,160.47h-7.18V153H628.1v7.44h-7.17v20.89H608.09ZM615.27,178V157.45h8.34v-1h-18.2v1h8.34V178Z"/><path class="cls-32" d="M629.27,167.22a11.75,11.75,0,0,1,1.63-6.14,15.11,15.11,0,0,1,4.44-4.69,21.43,21.43,0,0,1,6.53-3,29.56,29.56,0,0,1,7.93-1,33.87,33.87,0,0,1,5.93.47,36.94,36.94,0,0,1,4.46,1.06,24.51,24.51,0,0,1,3.73,1.49l-6.12,7.86c-.62-.34-1.31-.67-2-1a23.26,23.26,0,0,0-2.37-.66,13.93,13.93,0,0,0-3.12-.32,11.29,11.29,0,0,0-3.32.47,9.37,9.37,0,0,0-2.66,1.27,6.24,6.24,0,0,0-1.78,1.89,4.49,4.49,0,0,0-.64,2.32,4.28,4.28,0,0,0,.67,2.31,6.24,6.24,0,0,0,1.84,1.89,9.5,9.5,0,0,0,2.74,1.28,12.12,12.12,0,0,0,3.44.47,15.1,15.1,0,0,0,3.33-.34,15.55,15.55,0,0,0,2.45-.77,9.36,9.36,0,0,0,2-1.1l6.13,7.85a18.9,18.9,0,0,1-3.74,1.66,39.45,39.45,0,0,1-4.49,1.1,31.71,31.71,0,0,1-6,.51,31.05,31.05,0,0,1-8.4-1.08,21.65,21.65,0,0,1-6.65-3,14.46,14.46,0,0,1-4.38-4.69A11.92,11.92,0,0,1,629.27,167.22Zm7.35,0a7.93,7.93,0,0,1,1-3.82,9.5,9.5,0,0,1,2.71-3.1,13.66,13.66,0,0,1,4.26-2.09,19.55,19.55,0,0,1,5.6-.76,22,22,0,0,1,2.72.15,16.54,16.54,0,0,1,2,.36,9,9,0,0,1,1.69.51l.82-1c-.62-.2-1.28-.38-2-.55s-1.42-.27-2.28-.38a21.9,21.9,0,0,0-3-.17,20.77,20.77,0,0,0-5.68.76,16.07,16.07,0,0,0-4.79,2.19,11.44,11.44,0,0,0-3.32,3.44,8.28,8.28,0,0,0-1.26,4.48,8.56,8.56,0,0,0,1.2,4.5,10.91,10.91,0,0,0,3.29,3.42,16.44,16.44,0,0,0,4.91,2.19,22.45,22.45,0,0,0,6,.76,21.5,21.5,0,0,0,3.15-.21,24.12,24.12,0,0,0,2.39-.47,13.43,13.43,0,0,0,2-.68l-.81-1a8.52,8.52,0,0,1-1.75.64,18,18,0,0,1-2.1.45,19.83,19.83,0,0,1-2.86.19,20.22,20.22,0,0,1-5.78-.77,14,14,0,0,1-4.35-2.08,9.46,9.46,0,0,1-2.74-3.1A7.93,7.93,0,0,1,636.62,167.22Z"/><path class="cls-32" d="M666,153h12.42v9.64h7V153h12.48v28.33H685.34V170.87h-7v10.49H666ZM673.32,178V167.22h17.15V178H692V156.43h-1.52v9.77H673.32v-9.77H671.8V178Z"/><path class="cls-32" d="M718.71,160.47h-7.18V153h27.19v7.44h-7.18v20.89H718.71ZM725.88,178V157.45h8.35v-1H716v1h8.35V178Z"/><path class="cls-32" d="M740.76,153h12.43v9.64h6.94V153h12.49v28.33H760.13V170.87h-6.94v10.49H740.76ZM748.11,178V167.22h17.16V178h1.51V156.43h-1.51v9.77H748.11v-9.77H746.6V178Z"/><path class="cls-32" d="M776.7,153h22.93v7.44h-10.5v3.14h10.33v7H789.13v3.27H800v7.43H776.7Zm19,24.93v-1H784.05v-9.31h11.09v-1H784.05v-9.17h11.67v-1H782.54V178Z"/><path class="cls-32" d="M815.21,153h12.42v9.64h7V153h12.48v28.33H834.58V170.87h-7v10.49H815.21ZM822.56,178V167.22h17.15V178h1.52V156.43h-1.52v9.77H822.56v-9.77H821V178Z"/><path class="cls-32" d="M862.7,153H872l14.76,28.33H874.54l-1.28-2.55H861.47l-1.28,2.55H847.94ZM856.63,178l1.11-2.12H877L878.1,178h1.63l-11.26-21.53h-2.21L855,178Zm10.74-20.51,9.1,17.37H858.26ZM870,172.57l-2.62-5-2.63,5Z"/><path class="cls-32" d="M918,163.82a8.69,8.69,0,0,1-1.4,5,10.29,10.29,0,0,1-3.82,3.34,19.61,19.61,0,0,1-5.66,1.86,38.34,38.34,0,0,1-7,.6v6.75H887.67V153H900.1a38.34,38.34,0,0,1,7,.6,19.61,19.61,0,0,1,5.66,1.87,10.36,10.36,0,0,1,3.82,3.33A8.69,8.69,0,0,1,918,163.82Zm-5.66,0a6,6,0,0,0-.9-3.31,6.92,6.92,0,0,0-2.54-2.3,13.6,13.6,0,0,0-3.88-1.33,24.81,24.81,0,0,0-4.87-.45h-6.6V178H895v-6.75h5.08a25.63,25.63,0,0,0,4.87-.44,13.92,13.92,0,0,0,3.88-1.34,6.92,6.92,0,0,0,2.54-2.3A6,6,0,0,0,912.29,163.82Zm-1.63,0a5.17,5.17,0,0,1-.88,3.06,6.11,6.11,0,0,1-2.33,2,12,12,0,0,1-3.36,1,23.2,23.2,0,0,1-4,.32H895V157.45h5.08a24.25,24.25,0,0,1,4,.32,12,12,0,0,1,3.36,1,6.11,6.11,0,0,1,2.33,1.95A5.17,5.17,0,0,1,910.66,163.82ZM900.1,167h.52a5.9,5.9,0,0,0,3.53-.82,2.77,2.77,0,0,0,1.08-2.32,2.74,2.74,0,0,0-1.08-2.31,5.82,5.82,0,0,0-3.53-.83h-.52Z"/><path class="cls-32" d="M951.15,163.82a8.69,8.69,0,0,1-1.4,5,10.32,10.32,0,0,1-3.83,3.34,19.51,19.51,0,0,1-5.66,1.86,38.18,38.18,0,0,1-7,.6v6.75H920.87V153h12.42a38.18,38.18,0,0,1,7,.6,19.51,19.51,0,0,1,5.66,1.87,10.39,10.39,0,0,1,3.83,3.33A8.69,8.69,0,0,1,951.15,163.82Zm-5.66,0a6,6,0,0,0-.91-3.31,6.84,6.84,0,0,0-2.54-2.3,13.5,13.5,0,0,0-3.88-1.33,24.74,24.74,0,0,0-4.87-.45H926.7V178h1.52v-6.75h5.07a25.55,25.55,0,0,0,4.87-.44,13.81,13.81,0,0,0,3.88-1.34,6.84,6.84,0,0,0,2.54-2.3A6,6,0,0,0,945.49,163.82Zm-1.64,0a5.17,5.17,0,0,1-.87,3.06,6.15,6.15,0,0,1-2.34,2,12,12,0,0,1-3.35,1,23.4,23.4,0,0,1-4,.32h-5.07V157.45h5.07a24.46,24.46,0,0,1,4,.32,12,12,0,0,1,3.35,1,6.15,6.15,0,0,1,2.34,1.95A5.17,5.17,0,0,1,943.85,163.82ZM933.29,167h.53a5.9,5.9,0,0,0,3.53-.82,2.77,2.77,0,0,0,1.08-2.32,2.74,2.74,0,0,0-1.08-2.31,5.82,5.82,0,0,0-3.53-.83h-.53Z"/><path class="cls-32" d="M962.93,169.17,950.85,153h13.83l4.49,6,4.44-6h13.82l-12.07,16.14v12.19H962.93Zm7,8.79V167.81l8.52-11.38h-1.81l-7.47,10.07-7.52-10.07H959.9l8.46,11.38V178Z"/><path class="cls-32" d="M1011.53,153h9.33l14.76,28.33h-12.25l-1.28-2.55H1010.3l-1.28,2.55H996.77ZM1005.46,178l1.11-2.12h19.25l1.11,2.12h1.64l-11.26-21.53h-2.22L1003.83,178Zm10.74-20.51,9.1,17.37h-18.2Zm2.62,15.12-2.62-5-2.63,5Z"/><path class="cls-32" d="M1066.78,163.82a8.69,8.69,0,0,1-1.4,5,10.29,10.29,0,0,1-3.82,3.34,19.61,19.61,0,0,1-5.66,1.86,38.26,38.26,0,0,1-7,.6v6.75H1036.5V153h12.43a38.26,38.26,0,0,1,7,.6,19.61,19.61,0,0,1,5.66,1.87,10.36,10.36,0,0,1,3.82,3.33A8.69,8.69,0,0,1,1066.78,163.82Zm-5.66,0a6,6,0,0,0-.9-3.31,6.92,6.92,0,0,0-2.54-2.3,13.5,13.5,0,0,0-3.88-1.33,24.81,24.81,0,0,0-4.87-.45h-6.6V178h1.52v-6.75h5.08a25.63,25.63,0,0,0,4.87-.44,13.81,13.81,0,0,0,3.88-1.34,6.92,6.92,0,0,0,2.54-2.3A6,6,0,0,0,1061.12,163.82Zm-1.63,0a5.1,5.1,0,0,1-.88,3.06,6.11,6.11,0,0,1-2.33,2,11.94,11.94,0,0,1-3.36,1,23.2,23.2,0,0,1-4,.32h-5.08V157.45h5.08a24.25,24.25,0,0,1,4,.32,11.94,11.94,0,0,1,3.36,1,6.11,6.11,0,0,1,2.33,1.95A5.1,5.1,0,0,1,1059.49,163.82ZM1048.93,167h.52a5.88,5.88,0,0,0,3.53-.82,2.77,2.77,0,0,0,1.08-2.32,2.74,2.74,0,0,0-1.08-2.31,5.8,5.8,0,0,0-3.53-.83h-.52Z"/><path class="cls-32" d="M1100,163.82a8.69,8.69,0,0,1-1.4,5,10.37,10.37,0,0,1-3.82,3.34,19.71,19.71,0,0,1-5.66,1.86,38.37,38.37,0,0,1-7,.6v6.75H1069.7V153h12.42a38.37,38.37,0,0,1,7,.6,19.71,19.71,0,0,1,5.66,1.87,10.44,10.44,0,0,1,3.82,3.33A8.69,8.69,0,0,1,1100,163.82Zm-5.66,0a5.91,5.91,0,0,0-.91-3.31,6.89,6.89,0,0,0-2.53-2.3,13.6,13.6,0,0,0-3.88-1.33,24.84,24.84,0,0,0-4.88-.45h-6.59V178h1.52v-6.75h5.07a25.66,25.66,0,0,0,4.88-.44,13.92,13.92,0,0,0,3.88-1.34,6.89,6.89,0,0,0,2.53-2.3A5.89,5.89,0,0,0,1094.32,163.82Zm-1.64,0a5.17,5.17,0,0,1-.87,3.06,6.11,6.11,0,0,1-2.33,2,12.15,12.15,0,0,1-3.36,1,23.32,23.32,0,0,1-4,.32h-5.07V157.45h5.07a24.37,24.37,0,0,1,4,.32,12.15,12.15,0,0,1,3.36,1,6.11,6.11,0,0,1,2.33,1.95A5.17,5.17,0,0,1,1092.68,163.82ZM1082.12,167h.53a5.9,5.9,0,0,0,3.53-.82,2.77,2.77,0,0,0,1.08-2.32,2.74,2.74,0,0,0-1.08-2.31,5.82,5.82,0,0,0-3.53-.83h-.53Z"/><path class="cls-32" d="M1102.89,153h13v20.9h10.73v7.43h-23.69ZM1123.31,178v-1h-13.06V156.43h-1.52V178Z"/><path class="cls-32" d="M1128.62,153h22.93v7.44h-10.5v3.14h10.33v7h-10.33v3.27H1152v7.43h-23.34Zm19,24.93v-1H1136v-9.31h11.09v-1H1136v-9.17h11.67v-1h-13.18V178Z"/></svg>