<svg id="Layer_1" data-name="Layer 1" xmlns="http://www.w3.org/2000/svg" viewBox="0 0 61.05 13.66"><defs><style>.cls-1{fill:#e02d2d;}.cls-2{fill:#2e9330;}.cls-3{fill:none;stroke:#111110;stroke-miterlimit:10;stroke-width:0.25px;}.cls-4{fill:#2c7218;}.cls-5{fill:#ba7e1e;}.cls-6{fill:#050505;}</style></defs><title>timer pil</title><path class="cls-1" d="M51,10.86,3.4,12.13C1.57,12.18,0,10.45,0,8.29H0c0-2.16,1.42-4,3.25-4L50.8,3c1.83,0,3.36,1.67,3.4,3.83h0C54.24,9,52.78,10.81,51,10.86Z"/><path class="cls-2" d="M59.31,6.17l-.15-.37a.09.09,0,0,1,0-.11h0a.06.06,0,0,1,.09,0l.15.37a.09.09,0,0,1,0,.11h0A.06.06,0,0,1,59.31,6.17Z"/><path class="cls-2" d="M60.17,8.11c-.18,0-.46-.27-.79-.75s-.24-1.1,0-1.23.66.14.79.75S60.39,8.13,60.17,8.11Z"/><line class="cls-3" x1="59.38" y1="6.11" x2="60.16" y2="8.08"/><polyline class="cls-3" points="59.33 7.19 59.49 6.42 60.04 6.57"/><polyline class="cls-3" points="59.52 7.53 59.66 6.82 60.14 6.91"/><polyline class="cls-3" points="59.68 7.78 59.82 7.21 60.23 7.37"/><polyline class="cls-3" points="59.83 7.97 59.94 7.54 60.27 7.67"/><path class="cls-4" d="M56.54,12.73A5.33,5.33,0,0,0,58.14,8a4.74,4.74,0,0,1,0-1.14,5.6,5.6,0,0,1,.22-1.11,4.8,4.8,0,0,0-.76-4.58A2.84,2.84,0,0,0,54.14.27C52,1.41,49.75,2,48.74,3.88a3.62,3.62,0,0,0-.23,2.53,1.27,1.27,0,0,1,0,.34,1.14,1.14,0,0,1-.07.32,3.18,3.18,0,0,0-.25,2.41c1.27,2.49,3.11,2.85,4.95,3.87A2.9,2.9,0,0,0,56.54,12.73Z"/><path class="cls-5" d="M57.67,6.72h0a.28.28,0,0,1,.07-.32l3-2.43c-.2.28.21-.05.26,0h0c.06.11-.2.43-.06.32l-3,2.44C57.94,6.89,57.73,6.83,57.67,6.72Z"/><path class="cls-6" d="M57.5,6.61c0-.54.22-1,.39-1.05,0,0,0,.05,0,.11V5.8a.16.16,0,0,1,0,.11c-.11,0-.21.35-.24.71s0,.66.12.71a.17.17,0,0,1,0,.12v.12c0,.07,0,.12-.06.11S57.46,7.16,57.5,6.61Z"/></svg>